<svg width="130" height="116" viewBox="0 0 130 116" fill="none" xmlns="http://www.w3.org/2000/svg">
<rect width="130" height="116" fill="#1E1E1E"/>
<g clip-path="url(#clip0_308_119)">
<rect width="1728" height="3862" transform="translate(-581 -1412)" fill="#FAF5EF"/>
<g clip-path="url(#clip1_308_119)">
<rect width="1728" height="1117" transform="translate(-581 -309)" fill="#D6809B"/>
<path d="M4 69.5051C16.1146 118.312 48.3425 114.958 62.9421 107.18C98.2297 124.917 119.684 89.4538 126 69.5051C114.072 63.7995 99.0787 67.1278 93.0732 69.5051C105.436 57.9079 108.009 37.644 107.75 28.9618C91.225 28.9618 82.049 39.227 77.6207 42.8712C77.6207 23.3252 67.3427 9.40063 62.9421 4C52.0079 13.5506 49.119 36.0937 49.0414 46.1714C44.9411 33.644 30.1447 27.6181 23.2591 26.171C20.4634 43.5977 29.0834 62.3215 33.7428 69.5051C27.406 65.226 11.2739 67.7221 4 69.5051Z" fill="#917196" stroke="#917196" stroke-width="7" stroke-linejoin="round"/>
<path d="M57.3773 86.4745C60.2538 85.7336 64.2809 81.396 57.3773 69.9727C54.793 65.8641 51.8544 57.639 57.3773 52.5953C59.6637 50.5073 65.1977 45.2267 65.4674 40C66.0742 43.1208 72.1323 50.6775 74.1585 52.5953C75.4395 53.8076 80.1375 61.6207 73.0182 69.9727C70.1417 74.1037 66.1146 83.1876 73.0182 86.4745M57.3773 86.4745C37.152 85.5046 34.9271 89.8422 36.3429 92.1323C43.624 99.0293 59.3773 95.006 66.3438 92.1323M57.3773 86.4745C59.7299 87.2955 63.6792 88.9338 65.4674 90.4507M73.0182 86.4745C80.8387 85.3744 96.1695 84.9658 94.929 92.1323C93.1088 95.051 84.8433 99.1371 66.3438 92.1323M73.0182 86.4745C71.4676 86.4745 70.3215 90.4507 65.4674 90.4507M66.3438 92.1323C66.5422 91.6291 66.1731 91.0493 65.4674 90.4507" stroke="#E6CBAE" stroke-width="2" stroke-linejoin="round"/>
<ellipse cx="65" cy="63.5" rx="5" ry="5.5" fill="#E6CBAE"/>
</g>
</g>
<defs>
<clipPath id="clip0_308_119">
<rect width="1728" height="3862" fill="white" transform="translate(-581 -1412)"/>
</clipPath>
<clipPath id="clip1_308_119">
<rect width="1728" height="1117" fill="white" transform="translate(-581 -309)"/>
</clipPath>
</defs>
</svg>
