<svg width="483" height="773" viewBox="0 0 483 773" fill="none" xmlns="http://www.w3.org/2000/svg">
<g opacity="0.4">
<path d="M368.759 248.852C375.077 251.777 374.266 267.426 392.098 255.613C394.602 253.966 396.239 261.966 403.863 259.584C412.084 257.011 409.255 246.423 409.255 246.423C409.255 246.423 387.588 256.948 367.012 243.695C358.471 266.014 334.471 269.697 334.471 269.697C334.471 269.697 338.671 279.862 346.897 277.312C354.526 274.95 350.972 267.536 353.991 267.469C375.668 267.003 365.43 254.778 368.759 248.852Z" fill="#E6CBAE"/>
<path d="M461.671 248.877C464.99 254.807 454.747 267.008 476.409 267.503C479.413 267.57 475.869 274.984 483.498 277.351C491.719 279.901 495.924 269.745 495.924 269.745C495.924 269.745 471.944 266.043 463.418 243.72C442.832 256.963 421.17 246.418 421.17 246.418C421.17 246.418 418.341 257.011 426.557 259.585C434.176 261.985 435.843 253.976 438.326 255.623C456.144 267.445 455.348 251.796 461.671 248.877Z" fill="#E6CBAE"/>
<path d="M461.576 523.155C455.258 520.231 456.069 504.582 438.241 516.395C435.738 518.042 434.096 510.042 426.472 512.424C418.251 514.997 421.08 525.585 421.08 525.585C421.08 525.585 442.747 515.06 463.323 528.312C471.864 505.994 495.864 502.311 495.864 502.311C495.864 502.311 491.664 492.146 483.438 494.696C475.809 497.058 479.363 504.472 476.344 504.539C454.672 505.019 464.905 517.23 461.576 523.155Z" fill="#E6CBAE"/>
<path d="M368.664 523.124C365.345 517.194 375.587 504.993 353.925 504.498C350.921 504.431 354.466 497.022 346.841 494.65C338.616 492.1 334.411 502.261 334.411 502.261C334.411 502.261 358.391 505.958 366.917 528.281C387.502 515.038 409.165 525.583 409.165 525.583C409.165 525.583 411.993 514.99 403.778 512.416C396.158 510.015 394.491 518.03 392.008 516.383C374.191 504.556 374.987 520.205 368.664 523.124Z" fill="#E6CBAE"/>
<path d="M293.514 470.72C294.46 464.055 310.225 459.954 293.013 447.34C290.615 445.587 298.02 441.578 293.314 435.384C288.227 428.661 278.595 434.529 278.595 434.529C278.595 434.529 295.732 451.042 288.948 473.903C313.719 474.796 324.783 495.535 324.783 495.535C324.783 495.535 333.559 488.568 328.493 481.85C323.792 475.608 317.539 481.154 316.543 478.422C309.364 458.816 300.418 471.92 293.514 470.72Z" fill="#E6CBAE"/>
<path d="M264.828 385.955C269.684 381.095 284.949 386.665 278.746 366.748C277.88 363.972 286.325 364.928 286.32 357.24C286.32 348.948 274.936 348.252 274.936 348.252C274.936 348.252 278.676 371.271 259.176 385.945C278.666 400.634 274.906 423.648 274.906 423.648C274.906 423.648 286.285 422.962 286.3 414.669C286.3 406.986 277.865 407.947 278.731 405.157C284.949 385.259 269.679 390.819 264.828 385.955Z" fill="#E6CBAE"/>
<path d="M293.57 301.204C300.473 300.008 309.41 313.122 316.599 293.521C317.6 290.789 323.848 296.325 328.554 290.097C333.625 283.375 324.849 276.408 324.849 276.408C324.849 276.408 313.77 297.142 289.004 298.015C295.773 320.886 278.626 337.39 278.626 337.39C278.626 337.39 288.248 343.243 293.345 336.545C298.065 330.331 290.651 326.336 293.049 324.584C310.296 311.984 294.511 307.873 293.57 301.204Z" fill="#E6CBAE"/>
<path d="M331.407 138.481C335.077 137.122 338.937 136.294 342.861 136.022C338.757 135.271 334.559 135.109 330.406 135.542C326.783 137.537 323.49 140.037 320.633 142.961C323.974 140.966 327.605 139.456 331.407 138.481Z" fill="#E6CBAE"/>
<path d="M331.242 633.47C327.44 632.501 323.809 630.996 320.468 629.004C323.325 631.93 326.618 634.434 330.24 636.433C334.394 636.864 338.592 636.702 342.696 635.953C338.771 635.674 334.91 634.837 331.242 633.47Z" fill="#E6CBAE"/>
<path d="M195.616 538.896C193.136 535.967 191.123 532.702 189.644 529.206C190.159 533.186 191.29 537.07 192.998 540.73C196.096 543.419 199.593 545.65 203.376 547.352C200.366 544.918 197.75 542.069 195.616 538.896Z" fill="#E6CBAE"/>
<path d="M143.851 385.918C143.637 382.149 144.008 378.37 144.952 374.706C142.932 378.214 141.467 381.991 140.607 385.913C141.465 389.836 142.926 393.614 144.942 397.125C144.004 393.461 143.636 389.685 143.851 385.918Z" fill="#E6CBAE"/>
<path d="M195.721 232.973C197.855 229.804 200.468 226.957 203.476 224.527C199.692 226.226 196.193 228.456 193.093 231.144C191.384 234.804 190.252 238.688 189.734 242.668C191.217 239.169 193.235 235.902 195.721 232.973Z" fill="#E6CBAE"/>
<path d="M483.228 600.549C484.044 597.922 480.089 592.65 478.142 590.239C478.407 588.957 481.326 589.519 483.899 589.116C486.232 587.992 488.249 585.894 489.246 586.782C489.145 589.831 489.175 596.323 491.443 597.994C494.382 600.165 512.885 606.95 526.422 602.489C535.198 599.641 528.7 590.998 530.593 588.761C553.652 590.571 543.564 563.791 535.844 556.32C519.228 540.239 515.864 556.291 515.243 556.382C508.925 544.676 488.605 568.012 503.789 577.51C505.02 578.283 506.207 577.188 507.078 575.94C511.959 580.742 515.388 575.085 511.639 572.708C509.291 571.191 505.095 563.105 517.917 561.29C537.476 565.035 532.815 595.32 507.253 590.619C471.709 582.682 473.566 533.987 509.08 517.152C500.865 526.794 498.362 544.849 498.362 544.849C516.28 540.407 507.153 526.554 514.848 517.676C526.037 513.412 536.941 526.016 546.888 511.049C546.888 511.049 528.215 507.746 516.114 512.254C543.809 485.077 592.656 498.473 589.517 533.334C586.263 558.106 554.798 552.978 557.141 533.977C562.903 522.847 569.627 529.176 570.403 531.788C571.599 535.946 578.258 534.563 575.023 528.628C576.525 528.22 577.982 527.476 577.597 526.117C572.866 509.311 543.439 520.629 553.066 530.016C552.791 530.559 535.834 528.652 546.628 548.786C551.634 558.14 575.074 575.633 580.415 554.044C583.219 553.007 589.777 561.607 595.314 554.486C603.93 543.523 602.934 524.552 601.692 521.195C600.736 518.607 594.313 516.576 591.259 515.721C590.688 514.535 593.392 513.32 595.224 511.568C596.42 509.345 596.771 506.507 598.123 506.665C599.91 509.186 603.91 514.425 606.768 514.497C610.478 514.593 629.602 509.652 637.807 498.411C643.164 491.16 632.616 487.847 632.801 484.966C652.566 473.442 627.99 457.452 617.167 455.762C593.867 452.122 600.986 467.003 600.541 467.425C588.255 461.519 586.112 491.857 604.225 490.987C605.697 490.92 605.987 489.369 605.927 487.866C612.811 488.985 612.125 482.488 607.635 482.68C604.806 482.777 596.45 478.594 605.717 469.903C623.835 461.903 638.629 489.033 615.064 499.64C581.457 513.253 553.106 472.818 571.509 439.172C570.768 451.604 579.804 467.622 579.804 467.622C591.579 453.928 575.714 447.863 576.49 436.344C582.928 426.587 599.479 430.639 598.358 412.921C598.358 412.921 581.226 420.776 574.197 431.244C579.945 393.647 627.675 376.946 646.498 406.919C659.049 428.791 630.448 442.384 620.701 425.689C618.538 413.435 627.86 414.765 630.088 416.44C633.592 419.129 638.143 414.26 631.89 411.283C632.856 410.102 633.577 408.681 632.431 407.797C618.313 396.878 601.437 422.616 614.994 424.772C615.099 425.362 600.215 433.381 621.287 443.585C631.074 448.324 660.751 449.27 651.825 428.791C653.457 426.39 664.031 429.636 664.146 420.748C664.401 407.019 651.965 392.235 648.906 390.218C646.548 388.667 640.1 390.641 637.112 391.659C635.92 391.02 637.377 388.533 637.772 386.06C637.377 383.587 635.92 381.1 637.112 380.466C640.115 381.493 646.548 383.477 648.906 381.906C651.97 379.894 664.426 365.1 664.171 351.387C664.061 342.498 653.482 345.754 651.85 343.339C660.771 322.864 631.094 323.791 621.312 328.521C600.23 338.71 615.109 346.738 615.004 347.334C601.447 349.48 618.308 375.232 632.431 364.318C633.577 363.434 632.861 362.013 631.89 360.832C638.148 357.859 633.612 352.986 630.098 355.674C627.865 357.345 618.543 358.671 620.711 346.417C630.468 329.731 659.059 343.344 646.498 365.206C627.65 395.169 579.915 378.44 574.212 340.837C581.221 351.31 598.363 359.175 598.363 359.175C599.494 341.456 582.943 345.5 576.51 335.738C575.739 324.213 591.614 318.163 579.845 304.459C579.845 304.459 570.798 320.473 571.529 332.905C553.141 299.244 581.542 258.828 615.114 272.465C638.674 283.087 623.86 310.207 605.747 302.198C596.491 293.497 604.846 289.319 607.675 289.42C612.18 289.617 612.851 283.115 605.972 284.229C606.033 282.731 605.742 281.175 604.27 281.108C586.157 280.23 588.28 310.567 600.566 304.67C601.016 305.088 593.887 319.969 617.187 316.343C628.01 314.658 652.596 298.692 632.841 287.149C632.681 284.268 643.239 280.945 637.888 273.704C629.677 262.453 610.558 257.503 606.849 257.599C603.99 257.671 599.99 262.881 598.198 265.426C596.846 265.579 596.501 262.746 595.304 260.523C593.472 258.742 590.768 257.551 591.339 256.365C594.393 255.51 600.821 253.484 601.777 250.896C603.024 247.534 604.03 228.572 595.424 217.6C589.887 210.475 583.329 219.07 580.525 218.033C575.194 196.425 551.754 213.922 546.733 223.271C535.924 243.4 552.881 241.518 553.156 242.041C543.504 251.424 572.926 262.751 577.662 245.96C578.047 244.601 576.6 243.852 575.094 243.443C578.333 237.513 571.674 236.126 570.478 240.284C569.697 242.896 562.968 249.225 557.216 238.085C554.883 219.084 586.353 213.975 589.592 238.747C592.706 273.613 543.849 286.976 516.174 259.784C528.275 264.297 546.948 261.008 546.948 261.008C537.011 246.036 526.097 258.636 514.908 254.363C507.218 245.475 516.35 231.631 498.437 227.18C498.437 227.18 500.94 245.234 509.141 254.881C473.636 238.017 471.824 189.323 507.363 181.415C532.926 176.728 537.566 207.017 518.007 210.748C505.181 208.933 509.381 200.842 511.734 199.325C515.489 196.953 512.059 191.306 507.173 196.093C506.302 194.845 505.116 193.75 503.884 194.523C488.695 204.021 509 227.372 515.328 215.651C515.949 215.742 519.303 231.794 535.929 215.728C543.654 208.261 553.762 181.487 530.703 183.282C528.81 181.045 535.308 172.406 526.537 169.554C513.02 165.084 494.497 171.854 491.553 174.025C489.286 175.696 489.256 182.188 489.351 185.232C488.349 186.12 486.347 184.022 484.004 182.898C481.431 182.495 478.497 183.052 478.252 181.77C480.199 179.369 484.154 174.087 483.343 171.465C482.297 168.047 471.483 152.129 457.811 148.11C448.965 145.464 448.925 156.119 446.021 156.858C428.474 142.396 420.224 169.751 421.891 180.147C425.48 202.523 438.041 191.431 438.597 191.709C436.534 204.741 467.278 197.318 460.82 181.064C460.319 179.744 458.667 179.96 457.2 180.478C456.199 173.852 449.946 176.483 451.528 180.521C452.499 183.076 450.932 191.988 439.448 186.221C425.931 172.162 448.249 150.29 466.051 168.503C489.931 194.955 458.602 233.326 419.548 226.916C432.099 223.747 445.19 210.551 445.19 210.551C427.973 204.04 426.867 220.39 415.202 223.242C403.538 220.361 402.441 204.036 385.22 210.532C385.22 210.532 398.301 223.737 410.852 226.911C371.803 233.283 340.488 194.907 364.388 168.474C382.201 150.266 404.519 172.157 390.977 186.207C379.492 191.969 377.93 183.052 378.907 180.497C380.489 176.464 374.256 173.828 373.235 180.449C371.763 179.931 370.136 179.715 369.61 181.035C363.142 197.289 393.881 204.727 391.828 191.695C392.384 191.417 404.934 202.518 408.539 180.142C410.216 169.751 401.981 142.386 384.429 156.839C381.525 156.095 381.49 145.44 372.644 148.081C358.957 152.095 348.113 168.003 347.082 171.422C346.271 174.053 350.226 179.321 352.173 181.731C351.908 183.014 348.989 182.452 346.416 182.855C344.083 183.979 342.07 186.077 341.069 185.189C341.169 182.14 341.139 175.648 338.871 173.977C335.933 171.806 317.429 165.021 303.892 169.487C295.116 172.33 301.614 180.973 299.717 183.21C276.688 181.4 286.751 208.179 294.47 215.651C311.086 231.732 314.451 215.68 315.071 215.593C321.389 227.295 341.71 203.959 326.526 194.466C325.294 193.693 324.108 194.787 323.237 196.036C318.356 191.234 314.926 196.891 318.676 199.267C321.024 200.785 325.219 208.871 312.398 210.686C292.838 206.941 297.499 176.656 323.061 181.357C358.606 189.294 356.749 237.989 321.234 254.824C329.469 245.201 331.973 227.146 331.973 227.146C314.055 231.588 323.177 245.441 315.487 254.319C304.298 258.588 293.394 245.979 283.447 260.946C283.447 260.946 302.12 264.249 314.22 259.741C286.525 286.918 237.679 273.521 240.818 238.661C244.072 213.889 275.537 219.017 273.194 238.017C267.431 249.148 260.708 242.819 259.927 240.207C258.736 236.049 252.077 237.432 255.311 243.367C253.809 243.775 252.352 244.519 252.738 245.878C257.469 262.684 286.896 251.366 277.269 241.979C277.544 241.436 294.501 243.343 283.707 223.209C278.701 213.86 255.261 196.362 249.919 217.927C247.116 218.964 240.558 210.364 235.021 217.485C226.405 228.452 227.401 247.424 228.643 250.78C229.599 253.364 236.022 255.395 239.076 256.25C239.651 257.436 236.943 258.627 235.111 260.403C233.914 262.626 233.564 265.464 232.212 265.306C230.425 262.785 226.425 257.546 223.566 257.474C219.857 257.378 200.733 262.319 192.527 273.56C187.17 280.811 197.719 284.124 197.534 287.005C177.769 298.529 202.345 314.519 213.168 316.209C236.467 319.849 229.349 304.968 229.794 304.546C242.08 310.452 244.222 280.114 226.109 280.983C224.638 281.051 224.347 282.606 224.407 284.105C217.524 282.986 218.21 289.483 222.7 289.29C225.529 289.194 233.884 293.377 224.618 302.068C206.5 310.068 191.706 282.938 215.271 272.331C248.878 258.718 277.229 299.153 258.826 332.799C259.567 320.372 250.53 304.349 250.53 304.349C238.755 318.043 254.62 324.108 253.844 335.627C247.406 345.384 230.855 341.336 231.977 359.05C231.977 359.05 249.108 351.199 256.137 340.727C250.39 378.329 202.66 395.025 183.836 365.052C171.285 343.18 199.886 329.591 209.634 346.282C211.796 358.536 202.475 357.206 200.242 355.53C196.737 352.841 192.192 357.71 198.445 360.692C197.478 361.869 196.758 363.29 197.904 364.174C212.022 375.098 228.898 349.355 215.341 347.199C215.236 346.609 230.12 338.59 209.048 328.386C199.261 323.647 169.583 322.701 178.51 343.18C176.878 345.581 166.304 342.34 166.189 351.223C165.934 364.951 178.369 379.736 181.428 381.753C183.786 383.308 190.234 381.33 193.228 380.312C194.415 380.951 192.958 383.438 192.562 385.911C192.958 388.384 194.415 390.871 193.223 391.51C190.219 390.478 183.786 388.494 181.428 390.069C178.364 392.081 165.909 406.875 166.164 420.589C166.274 429.477 176.847 426.222 178.485 428.637C169.563 449.112 199.241 448.185 209.023 443.455C230.104 433.266 215.226 425.237 215.331 424.642C228.888 422.495 212.027 396.749 197.904 407.658C196.758 408.542 197.473 409.963 198.445 411.144C192.187 414.116 196.722 418.99 200.237 416.306C202.47 414.63 211.791 413.305 209.624 425.559C199.866 442.245 171.275 428.637 183.836 406.77C202.685 376.807 250.42 393.536 256.122 431.139C249.113 420.666 231.977 412.801 231.977 412.801C230.84 430.519 247.391 426.476 253.824 436.238C254.595 447.762 238.725 453.812 250.49 467.517C250.49 467.517 259.537 451.503 258.806 439.071C277.194 472.731 248.793 513.148 215.221 499.511C191.661 488.889 206.475 461.769 224.588 469.778C233.844 478.479 225.489 482.656 222.66 482.556C218.154 482.359 217.484 488.86 224.362 487.746C224.302 489.244 224.593 490.8 226.064 490.867C244.177 491.746 242.055 461.409 229.769 467.305C229.319 466.888 236.447 452.007 213.148 455.632C202.325 457.318 177.739 473.283 197.493 484.832C197.654 487.713 187.095 491.031 192.452 498.277C200.657 509.527 219.776 514.482 223.491 514.382C226.35 514.314 230.35 509.1 232.142 506.56C233.494 506.401 233.839 509.234 235.036 511.462C236.868 513.239 239.571 514.43 239.001 515.616C235.947 516.47 229.519 518.497 228.563 521.085C227.316 524.446 226.31 543.408 234.916 554.38C240.452 561.506 247.011 552.911 249.814 553.948C255.146 575.556 278.585 558.058 283.607 548.709C294.415 528.585 277.459 530.463 277.179 529.939C286.836 520.557 257.414 509.229 252.678 526.021C252.287 527.38 253.739 528.129 255.246 528.537C252.007 534.467 258.665 535.855 259.862 531.697C260.643 529.084 267.371 522.761 273.124 533.896C275.457 552.896 243.987 558.005 240.748 533.233C237.634 498.368 286.49 485.005 314.165 512.197C302.065 507.683 283.392 510.972 283.392 510.972C293.329 525.949 304.243 513.344 315.432 517.618C323.122 526.506 313.99 540.349 331.903 544.801C331.903 544.801 329.399 526.746 321.199 517.099C356.704 533.963 358.516 582.657 322.976 590.566C297.414 595.252 292.773 564.963 312.333 561.232C325.159 563.047 320.959 571.138 318.606 572.655C314.851 575.028 318.28 580.674 323.167 575.892C324.038 577.14 325.224 578.23 326.451 577.457C341.645 567.959 321.339 544.609 315.011 556.33C314.391 556.243 311.036 540.186 294.41 556.253C286.686 563.719 276.578 590.494 299.637 588.698C301.529 590.936 295.031 599.574 303.802 602.426C317.319 606.897 335.843 600.126 338.786 597.956C341.054 596.285 341.084 589.793 340.989 586.749C341.99 585.86 343.993 587.959 346.336 589.082C348.909 589.486 351.843 588.929 352.088 590.211C350.141 592.612 346.186 597.893 346.997 600.515C348.043 603.934 358.856 619.852 372.529 623.871C381.35 626.507 381.385 615.857 384.293 615.127C401.816 629.59 410.091 602.234 408.424 591.838C404.834 569.462 392.274 580.554 391.718 580.276C393.78 567.244 363.037 574.667 369.495 590.921C369.995 592.242 371.648 592.026 373.114 591.507C374.116 598.134 380.369 595.502 378.787 591.464C377.815 588.909 379.382 580.002 390.867 585.764C404.384 599.824 382.066 621.696 364.263 603.483C340.383 577.03 371.713 538.659 410.767 545.069C398.216 548.239 385.125 561.434 385.125 561.434C402.341 567.945 403.448 551.595 415.112 548.748C426.777 551.605 427.873 567.955 445.095 561.453C445.095 561.453 432.014 548.253 419.463 545.074C458.512 538.702 489.826 577.078 465.926 603.511C448.114 621.72 425.796 599.829 439.338 585.779C450.822 580.017 452.384 588.933 451.408 591.488C449.826 595.521 456.059 598.158 457.08 591.536C458.552 592.055 460.179 592.271 460.705 590.95C467.168 574.701 436.434 567.258 438.487 580.29C437.931 580.569 425.38 569.467 421.776 591.843C420.099 602.239 428.334 629.599 445.886 615.146C448.79 615.89 448.825 626.545 457.671 623.904C471.358 619.876 482.177 603.968 483.228 600.549ZM466.953 543.067C463.178 538.265 440.719 527.735 431.052 540.066C430.642 540.066 430.156 540.037 429.681 540.023C427.283 533.3 422.286 531.922 415.117 534.261C407.948 531.913 402.952 533.3 400.549 540.023C400.048 540.023 399.588 540.056 399.182 540.061C389.52 527.726 367.057 538.241 363.277 543.043C358.441 549.141 365.219 552.877 363.412 554.663C361.686 554.356 359.942 554.141 358.191 554.02C356.698 553.129 355.156 552.318 353.57 551.59C353.204 549.127 360.979 549.934 360.809 542.27C360.699 536.258 348.979 515.078 333.6 519.601C333.274 519.366 332.899 519.073 332.523 518.799C334.706 512 331.522 508.077 324.268 505.926C319.907 499.986 315.026 498.277 308.959 502.368C308.568 502.108 308.163 501.854 307.827 501.628C307.572 486.2 282.951 482.042 276.953 483.799C269.304 486.003 272.498 492.851 269.945 493.273C268.738 492.05 267.459 490.894 266.115 489.811C265.455 488.25 264.704 486.725 263.867 485.245C265.078 483.041 270.876 488.078 275.432 481.783C279.031 476.856 282.53 453.111 267.316 448.103C267.196 447.729 267.071 447.277 266.931 446.845C272.868 442.576 272.683 437.597 268.147 431.777C268.252 424.512 265.354 420.378 257.939 420.253C257.784 419.821 257.609 419.389 257.474 419.014C266.726 406.395 249.354 389.147 243.426 387.188C235.887 384.658 234.275 391.99 231.947 390.9C231.71 389.228 231.376 387.571 230.946 385.935C231.372 384.3 231.707 382.644 231.947 380.975C234.275 379.875 235.877 387.217 243.421 384.696C249.354 382.737 266.731 365.489 257.494 352.87L257.96 351.636C265.374 351.531 268.278 347.396 268.172 340.112C272.713 334.297 272.898 329.318 266.971 325.049C267.106 324.612 267.231 324.161 267.351 323.786C282.57 318.788 279.086 295.043 275.492 290.116C270.941 283.816 265.139 288.849 263.927 286.645C264.765 285.164 265.517 283.639 266.18 282.078C267.524 280.995 268.803 279.839 270.01 278.616C272.568 279.043 269.369 285.886 277.019 288.1C283.026 289.857 307.637 285.699 307.902 270.285C308.238 270.064 308.643 269.805 309.034 269.551C315.101 273.642 319.983 271.951 324.348 266.002C331.587 263.856 334.791 259.933 332.608 253.133C332.989 252.855 333.364 252.567 333.69 252.327C349.064 256.864 360.799 235.689 360.914 229.677C361.089 221.994 353.309 222.815 353.685 220.352C355.269 219.626 356.81 218.816 358.301 217.927C360.052 217.805 361.795 217.591 363.522 217.288C365.335 219.07 358.551 222.806 363.382 228.909C367.157 233.71 389.615 244.241 399.282 231.91C399.693 231.91 400.178 231.938 400.654 231.953C403.052 238.675 408.048 240.053 415.217 237.715C422.386 240.058 427.383 238.675 429.786 231.953C430.286 231.953 430.747 231.924 431.152 231.914C440.815 244.25 463.278 233.734 467.058 228.933C471.894 222.834 465.115 219.099 466.922 217.312C468.649 217.62 470.392 217.835 472.144 217.956C473.636 218.847 475.179 219.658 476.765 220.385C477.13 222.849 469.356 222.042 469.526 229.706C469.636 235.717 481.356 256.898 496.735 252.375C497.06 252.61 497.436 252.903 497.811 253.181C495.629 259.976 498.813 263.904 506.067 266.05C510.427 271.99 515.308 273.699 521.376 269.608C521.766 269.867 522.172 270.122 522.507 270.348C522.763 285.776 547.384 289.934 553.381 288.181C561.031 285.972 557.837 279.125 560.39 278.703C561.597 279.926 562.876 281.081 564.22 282.165C564.881 283.727 565.631 285.253 566.468 286.736C565.256 288.935 559.459 283.898 554.903 290.198C551.304 295.12 547.804 318.864 563.018 323.873C563.139 324.247 563.264 324.698 563.404 325.131C557.466 329.399 557.652 334.384 562.187 340.198C562.082 347.463 564.981 351.598 572.395 351.723C572.55 352.155 572.726 352.592 572.861 352.961C563.609 365.585 580.981 382.828 586.908 384.792C594.448 387.318 596.06 379.99 598.388 381.076C598.625 382.747 598.959 384.405 599.389 386.041C598.959 387.675 598.625 389.331 598.388 391.001C596.06 392.1 594.453 384.759 586.908 387.284C580.976 389.239 563.599 406.491 572.836 419.105L572.37 420.34C564.956 420.445 562.052 424.579 562.157 431.864C557.617 437.679 557.431 442.658 563.359 446.932C563.224 447.364 563.098 447.815 562.978 448.19C547.759 453.188 551.244 476.933 554.838 481.859C559.389 488.159 565.191 483.127 566.403 485.331C565.564 486.811 564.814 488.336 564.155 489.898C562.808 490.981 561.526 492.137 560.315 493.36C557.762 492.932 560.961 486.09 553.306 483.876C547.299 482.119 522.688 486.277 522.422 501.691C522.087 501.911 521.681 502.171 521.291 502.425C515.223 498.334 510.342 500.024 505.977 505.974C498.737 508.12 495.533 512.043 497.716 518.842C497.336 519.121 496.96 519.409 496.635 519.649C481.26 515.111 469.526 536.287 469.411 542.299C469.235 549.982 477.015 549.161 476.64 551.624C475.056 552.352 473.515 553.163 472.024 554.054C470.273 554.172 468.529 554.384 466.802 554.687C464.99 552.906 471.784 549.17 466.953 543.067Z" fill="#E6CBAE"/>
<path d="M495.363 622.995C537.481 627.412 561.381 602.563 558.142 574.876C584.58 586.4 616.621 572.303 625.277 532.52C662.063 512.353 666.168 478.769 646.583 458.204C675.039 452.624 692.311 423.151 674.939 386.086C692.336 349.031 675.084 319.549 646.628 313.95C666.233 293.394 662.148 259.81 625.377 239.619C616.741 199.832 584.716 185.71 558.292 197.219C561.551 169.537 537.666 144.674 495.548 149.068C464.179 121.746 429.615 128.377 415.272 152.602C400.944 128.367 366.381 121.717 334.996 149.015C292.878 144.597 268.978 169.446 272.217 197.133C245.779 185.609 213.739 199.707 205.083 239.489C168.297 259.656 164.191 293.24 183.776 313.806C155.32 319.39 138.049 348.858 155.42 385.923C138.023 422.978 155.275 452.461 183.731 458.06C164.126 478.616 168.211 512.199 204.983 532.391C213.619 572.178 245.644 586.3 272.067 574.79C268.808 602.472 292.693 627.335 334.811 622.942C366.181 650.264 400.744 643.632 415.087 619.412C429.415 643.642 463.989 650.292 495.363 622.995ZM415.092 609.847C403.873 644.223 360.133 640.3 350.556 626.173C345.59 618.86 342.776 611.816 340.668 605.67C335.197 609.454 328.598 613.564 320.098 616.671C303.702 622.673 265.924 601.166 277.94 567.04C247.797 588.523 214.815 560.692 215.711 543.881C216.172 535.166 218.214 527.877 220.277 521.716C213.533 521.692 205.679 521.298 196.893 519.022C179.951 514.634 162.569 475.936 193.203 455.097C155.656 455.486 146.024 414.378 157.052 401.279C162.765 394.489 168.882 389.755 174.329 385.913C168.887 382.072 162.775 377.342 157.062 370.548C146.049 357.444 155.696 316.341 193.248 316.768C162.629 295.914 180.036 257.227 196.983 252.848C205.769 250.576 213.624 250.187 220.367 250.168C218.309 244.008 216.272 236.723 215.816 228.003C214.935 211.197 247.932 183.376 278.06 204.883C266.045 170.747 303.857 149.264 320.253 155.276C328.763 158.388 335.347 162.479 340.819 166.287C342.926 160.145 345.745 153.101 350.716 145.793C360.303 131.69 404.043 127.791 415.242 162.176C426.461 127.801 470.201 131.724 479.779 145.85C484.745 153.163 487.558 160.208 489.666 166.354C495.138 162.57 501.736 158.465 510.237 155.353C526.632 149.351 564.41 170.858 552.395 204.984C582.538 183.501 615.519 211.332 614.623 228.143C614.163 236.863 612.12 244.147 610.057 250.307C616.801 250.307 624.656 250.725 633.442 253.001C650.383 257.39 667.765 296.087 637.131 316.927C674.679 316.538 684.311 357.646 673.282 370.745C667.57 377.534 661.452 382.269 656.01 386.11C661.447 389.952 667.56 394.686 673.272 401.476C684.286 414.58 674.639 455.683 637.086 455.255C667.705 476.114 650.298 514.797 633.352 519.176C624.566 521.447 616.711 521.836 609.967 521.855C612.025 528.021 614.062 535.3 614.518 544.02C615.399 560.826 582.403 588.648 552.275 567.141C564.29 601.281 526.477 622.764 510.082 616.747C501.571 613.636 494.988 609.521 489.516 605.737C487.408 611.879 484.59 618.923 479.618 626.231C470.026 640.319 426.291 644.218 415.092 609.847Z" fill="#E6CBAE"/>
<path d="M334.751 58.4062C334.751 58.4062 318.05 34.6857 339.757 34.2439C339.071 12.5833 353.99 20.122 355.873 19.008C361.85 15.4691 359.277 -0.040493 378.341 9.8847C380.989 11.2676 381.75 3.16228 389.595 4.73245C398.051 6.44187 396.429 17.265 396.429 17.265C396.429 17.265 350.611 0.626915 334.751 58.4062Z" fill="#E6CBAE"/>
<path d="M149.353 166.305C149.353 166.305 121.318 156.528 138.599 143.929C124.772 126.786 141.458 124.477 142.299 122.513C144.967 116.271 133.383 105.183 154.885 102.466C157.889 102.091 153.508 95.0852 160.827 91.9497C168.722 88.5885 174.034 98.2352 174.034 98.2352C174.034 98.2352 126.77 110.619 149.353 166.305Z" fill="#E6CBAE"/>
<path d="M65.4872 358.125C65.4872 358.125 36.8011 366.033 43.079 346.087C21.3817 340.013 33.4669 328.738 32.9463 326.678C31.2842 320.129 15.1088 317.68 30.8386 303.361C33.0314 301.368 25.2065 298.166 29.2066 291.501C33.517 284.298 43.7248 289.143 43.7248 289.143C43.7248 289.143 13.0913 325.804 65.4872 358.125Z" fill="#E6CBAE"/>
<path d="M115.18 560.59C115.18 560.59 96.8216 583.158 89.6726 563.471C68.4008 570.788 71.2695 554.827 69.5823 553.478C64.2256 549.118 49.6422 556.258 53.5922 535.803C54.1429 532.96 45.8475 534.775 45.0014 527.131C44.0852 518.886 55.3144 517.047 55.3144 517.047C55.3144 517.047 52.9714 563.98 115.18 560.59Z" fill="#E6CBAE"/>
<path d="M279.462 696.366C279.462 696.366 278.461 724.979 260.603 713.09C247.877 731.001 240.433 716.495 238.225 716.332C231.216 715.823 223.792 729.824 214.455 711.05C213.158 708.437 207.561 714.584 202.19 708.874C196.397 702.719 204.342 694.882 204.342 694.882C204.342 694.882 231.226 734.17 279.462 696.366Z" fill="#E6CBAE"/>
<path d="M495.584 713.6C495.584 713.6 512.285 737.321 490.577 737.763C491.258 759.428 476.339 751.884 474.457 752.998C468.48 756.537 471.053 772.052 451.994 762.122C449.341 760.739 448.58 768.844 440.735 767.279C432.279 765.565 433.901 754.746 433.901 754.746C433.901 754.746 479.724 771.379 495.584 713.6Z" fill="#E6CBAE"/>
<path d="M495.799 58.4531C495.799 58.4531 512.52 34.7374 490.793 34.286C491.489 12.6206 476.565 20.1545 474.687 19.0357C468.71 15.4968 471.288 -0.0128288 452.224 9.91236C449.571 11.2953 448.815 3.18993 440.97 4.7505C432.509 6.45512 434.131 17.2782 434.131 17.2782C434.131 17.2782 480.009 0.664204 495.799 58.4531Z" fill="#E6CBAE"/>
<path d="M279.672 75.5538C279.672 75.5538 278.67 46.945 260.823 58.8197C248.107 40.9044 240.653 55.4057 238.445 55.5641C231.436 56.0443 224.022 42.0664 214.675 60.846C213.373 63.4534 207.781 57.3072 202.405 63.0116C196.607 69.1627 204.552 77.0039 204.552 77.0039C204.552 77.0039 231.461 37.7209 279.672 75.5538Z" fill="#E6CBAE"/>
<path d="M115.295 211.233C115.295 211.233 96.9519 188.665 89.7929 208.318C68.5262 200.991 71.3798 216.928 69.6926 218.301C64.3359 222.656 49.7525 215.511 53.6725 235.966C54.2182 238.809 45.9277 236.989 45.0767 244.634C44.1555 252.878 55.3846 254.746 55.3846 254.746C55.3846 254.746 53.1068 207.804 115.295 211.233Z" fill="#E6CBAE"/>
<path d="M65.4874 413.67C65.4874 413.67 36.8063 405.747 43.0692 425.674C21.3469 431.753 33.4471 443.037 32.9014 445.097C31.2393 451.642 15.059 454.086 30.7788 468.415C32.9665 470.407 25.1417 473.605 29.1367 480.275C33.4471 487.477 43.655 482.642 43.655 482.642C43.655 482.642 13.0514 445.957 65.4874 413.67Z" fill="#E6CBAE"/>
<path d="M149.203 605.523C149.203 605.523 121.168 615.275 138.434 627.884C124.597 645.022 141.283 647.341 142.119 649.305C144.787 655.547 133.193 666.63 154.695 669.362C157.699 669.736 153.313 676.737 160.632 679.882C168.522 683.268 173.844 673.602 173.844 673.602C173.844 673.602 126.589 661.223 149.203 605.523Z" fill="#E6CBAE"/>
<path d="M334.536 713.564C334.536 713.564 317.815 737.28 339.542 737.731C338.846 759.397 353.77 751.868 355.647 752.982C361.625 756.52 359.047 772.03 378.111 762.105C380.764 760.727 381.52 768.851 389.365 767.267C397.826 765.562 396.203 754.739 396.203 754.739C396.203 754.739 350.346 771.339 334.536 713.564Z" fill="#E6CBAE"/>
<path d="M325.62 13.1017C304.258 17.284 320.469 63.0398 329.86 72.1055C298.045 56.0244 294.596 1.39024 329.6 0.0121384C340.419 -0.415215 347.918 13.6491 339.578 24.7027C331.512 35.3866 312.644 26.244 325.62 13.1017Z" fill="#E6CBAE"/>
<path d="M114.199 134.803C99.4802 150.231 140.622 178.096 153.789 180.151C118.194 185.077 81.9281 142.822 109.398 121.973C117.908 115.524 132.577 122.674 132.602 136.32C132.627 149.511 111.756 152.752 114.199 134.803Z" fill="#E6CBAE"/>
<path d="M17.7371 352.471C15.2891 373.248 65.6474 372.595 77.5574 366.838C51.78 390.885 -3.45952 377.147 5.96734 344.793C8.88601 334.796 25.1515 332.309 33.537 343.319C41.6572 353.964 26.7585 368.355 17.7371 352.471Z" fill="#E6CBAE"/>
<path d="M73.0818 582.92C83.8353 601.109 124.176 572.193 130.279 560.832C124.166 594.824 71.0592 614.847 58.8739 583.348C55.1041 573.615 66.7338 562.422 80.2708 566.614C93.3623 570.657 90.1232 590.694 73.0818 582.92Z" fill="#E6CBAE"/>
<path d="M259.091 738.171C278.936 746.814 293.854 700.684 291.822 688.041C307.702 718.988 277.013 765.128 247.851 746.517C238.84 740.754 241.383 725.154 254.905 720.914C267.982 716.818 277.644 734.853 259.091 738.171Z" fill="#E6CBAE"/>
<path d="M504.715 758.905C526.077 754.718 509.867 708.967 500.475 699.896C532.29 715.978 535.739 770.612 500.735 771.995C489.917 772.417 482.417 758.358 490.758 747.299C498.823 736.611 517.692 745.734 504.715 758.905Z" fill="#E6CBAE"/>
<path d="M504.965 13.1564C526.322 17.3579 510.082 63.0945 500.685 72.1602C532.51 56.0983 535.994 1.46893 500.995 0.0668182C490.177 -0.37014 482.662 13.6894 490.983 24.7478C499.058 35.4413 517.932 26.3083 504.965 13.1564Z" fill="#E6CBAE"/>
<path d="M259.326 33.7373C279.181 25.0942 294.065 71.2437 292.022 83.8867C307.927 52.9491 277.269 6.78994 248.092 25.3871C239.081 31.1492 241.584 46.7453 255.131 50.9948C268.203 55.1003 277.875 37.0697 259.326 33.7373Z" fill="#E6CBAE"/>
<path d="M73.2123 188.876C83.9759 170.692 124.302 199.636 130.399 211.012C124.307 177.02 71.2148 156.963 59.0045 188.444C55.2297 198.177 66.8493 209.374 80.3914 205.192C93.4828 201.154 90.2588 181.111 73.2123 188.876Z" fill="#E6CBAE"/>
<path d="M17.7121 419.303C15.2791 398.526 65.6374 399.207 77.5424 404.974C51.785 380.908 -3.46451 394.612 5.95234 426.971C8.861 436.973 25.1265 439.484 33.517 428.464C41.6372 417.809 26.7485 403.414 17.7121 419.303Z" fill="#E6CBAE"/>
<path d="M114.048 637.009C99.3449 621.572 140.507 593.736 153.673 591.69C118.083 586.74 81.7828 628.976 109.237 649.839C117.723 656.293 132.422 649.153 132.457 635.506C132.467 622.326 111.6 619.06 114.048 637.009Z" fill="#E6CBAE"/>
<path d="M325.37 758.849C304.013 754.648 320.253 708.911 329.65 699.845C297.825 715.907 294.34 770.536 329.34 771.943C340.158 772.376 347.673 758.316 339.352 747.258C331.277 736.564 312.403 745.697 325.37 758.849Z" fill="#E6CBAE"/>
<path d="M287.001 7.22698C289.97 10.4537 292.508 14.9098 293.94 20.8159C298.516 39.3987 305.905 45.1223 305.905 45.1223C303.353 44.8896 300.922 43.9653 298.896 42.4573C298.19 44.8114 296.801 46.9247 294.891 48.5508C294.891 48.5508 297.394 39.754 289.695 22.1412C287.267 16.5808 286.571 11.5485 287.001 7.22698Z" fill="#E6CBAE"/>
<path d="M286.766 764.68C286.34 760.397 287.046 755.35 289.479 749.794C297.164 732.182 294.691 723.385 294.691 723.385C296.599 725.012 297.988 727.125 298.696 729.478C300.722 727.972 303.153 727.049 305.705 726.818C305.705 726.818 298.31 732.537 293.725 751.115C292.273 756.978 289.719 761.458 286.766 764.68Z" fill="#E6CBAE"/>
<path d="M79.2095 619.961C81.4923 616.254 85.152 612.566 90.5387 609.431C107.56 599.515 110.939 591.006 110.939 591.006C111.489 593.404 111.315 595.903 110.439 598.209C112.995 598.131 115.521 598.753 117.723 600C117.723 600 108.236 600.456 93.137 612.902C88.381 616.83 83.59 619.029 79.2095 619.961Z" fill="#E6CBAE"/>
<path d="M0 385.876C4.11518 384.167 9.33675 383.25 15.6146 383.744C35.4546 385.314 43.4146 380.34 43.4146 380.34C42.3969 382.589 40.7336 384.514 38.6186 385.891C40.7304 387.269 42.3916 389.194 43.4096 391.441C43.4096 391.441 35.4546 386.467 15.6146 388.023C9.33675 388.488 4.11518 387.595 0 385.876Z" fill="#E6CBAE"/>
<path d="M79.3652 151.841C83.7508 152.777 88.5368 154.976 93.3128 158.919C108.402 171.374 117.884 171.835 117.884 171.835C115.683 173.082 113.159 173.701 110.605 173.622C111.471 175.931 111.636 178.429 111.08 180.824C111.08 180.824 107.696 172.316 90.6895 162.39C85.3077 159.236 81.6481 155.548 79.3652 151.841Z" fill="#E6CBAE"/>
<path d="M329.224 132.036C333.587 133.385 338.161 133.993 342.741 133.832C338.754 135.005 334.607 135.604 330.436 135.608C327.059 137.954 323.337 139.806 319.392 141.102C323.194 138.651 326.522 135.583 329.224 132.036Z" fill="#E6CBAE"/>
<path d="M329.054 639.922C326.355 636.37 323.029 633.299 319.227 630.847C323.171 632.148 326.893 634.002 330.271 636.349C334.44 636.358 338.585 636.958 342.571 638.131C337.991 637.971 333.417 638.577 329.054 639.922Z" fill="#E6CBAE"/>
<path d="M189.894 542.877C189.887 538.481 189.077 534.121 187.501 529.994C189.897 533.268 191.773 536.865 193.068 540.668C196.436 543.026 199.42 545.849 201.924 549.047C198.321 546.332 194.249 544.244 189.894 542.877Z" fill="#E6CBAE"/>
<path d="M136.782 385.913C139.467 382.352 141.483 378.369 142.74 374.144C142.67 378.142 141.984 382.108 140.702 385.913C141.98 389.722 142.664 393.691 142.735 397.691C141.479 393.463 139.465 389.477 136.782 385.913Z" fill="#E6CBAE"/>
<path d="M189.999 228.989C194.347 227.619 198.413 225.532 202.014 222.823C199.508 226.021 196.52 228.843 193.148 231.198C191.853 234.999 189.977 238.595 187.581 241.867C189.163 237.742 189.982 233.384 189.999 228.989Z" fill="#E6CBAE"/>
<path d="M307.562 68.0195C306.826 62.6848 305.705 57.9359 303.166 55.0212C302.896 58.8098 304.894 63.2898 307.562 68.0195Z" fill="#E6CBAE"/>
<path d="M336.904 84.2099C338.661 89.1509 346.231 85.2903 346.917 87.3935C345.249 89.9912 341.91 95.6333 343.012 98.1638C344.433 101.453 356.969 116.161 371.047 118.749C380.138 120.463 378.982 109.866 381.785 108.828C400.849 121.399 405.986 93.3477 403.162 83.1872C397.08 61.3104 385.84 73.6365 385.255 73.4156C385.84 60.2493 356.113 70.7987 364.353 86.2939C365.019 87.552 366.616 87.1678 368.018 86.5052C369.775 92.9827 375.678 89.7224 373.655 85.8762C372.404 83.4369 372.959 74.4144 385.024 78.9617C400.043 91.5374 380.303 115.594 360.564 99.3211C333.85 75.49 360.699 34.123 400.244 36.4471C388.118 40.8935 376.584 55.3659 376.584 55.3659C398.612 61.1616 392.324 34.8385 415.308 39.2801C438.296 34.8529 431.979 61.1712 454.026 55.3852C454.026 55.3852 442.512 40.9127 430.376 36.4567C469.926 34.1566 496.74 75.538 470.011 99.3595C450.262 115.618 430.532 91.5518 445.571 78.9857C457.636 74.4432 458.187 83.4657 456.93 85.905C454.927 89.7464 460.805 93.0164 462.567 86.5388C463.969 87.2063 465.571 87.5856 466.232 86.3323C474.487 70.8419 444.76 60.2685 445.34 73.4397C444.755 73.6606 433.52 61.3249 427.428 83.2016C424.594 93.3573 429.711 121.414 448.785 108.857C451.588 109.894 450.427 120.492 459.518 118.778C473.576 116.204 486.122 101.491 487.553 98.2166C488.655 95.6861 485.316 90.0537 483.654 87.4368C484.339 85.3384 491.899 89.2038 493.666 84.2628C495.954 77.8188 498.242 66.3811 492.665 55.0778C490.397 50.449 480.535 50.6314 476.379 50.9243C474.782 48.9652 481.946 45.9497 477.826 39.4001C474.612 34.2335 453.466 21.4512 442.472 32.7113C442.066 32.6585 441.586 32.5864 441.115 32.5288C438.727 22.3491 429.49 23.0598 415.323 29.6094C401.16 23.0502 391.923 22.3348 389.53 32.4904C389.06 32.5529 388.579 32.6249 388.173 32.6729C377.16 21.408 356.028 34.1807 352.814 39.3425C348.684 45.9065 355.848 48.922 354.251 50.8667C350.095 50.5738 340.233 50.3865 337.965 55.0106C332.323 66.3235 334.621 77.7612 336.904 84.2099Z" fill="#E6CBAE"/>
<path d="M427.288 60.3103C423.594 57.11 419.568 54.2813 415.272 51.8688C410.979 54.282 406.953 57.1088 403.257 60.3055C408.133 62.6008 411.958 62.6392 415.272 61.5444C418.587 62.644 422.436 62.6056 427.288 60.3103Z" fill="#E6CBAE"/>
<path d="M121.718 181.373C123.826 184.59 128.186 187.082 133.233 189.406C129.383 185.507 125.563 182.3 121.718 181.373Z" fill="#E6CBAE"/>
<path d="M225.188 656.21C222.645 651.601 219.581 649.416 216.227 648.431C214.225 645.68 211.106 643.553 205.754 642.669C206.781 647.339 208.303 651.895 210.295 656.268C215.248 656.736 220.239 656.717 225.188 656.21Z" fill="#E6CBAE"/>
<path d="M259.111 691.475C262.29 694.053 270.125 699.767 274.826 697.299C286.27 691.311 291.437 680.772 293.54 674.251C295.147 669.257 286.661 668.119 287.392 666.035C290.336 664.868 296.498 662.194 297.159 659.519C298.015 656.057 296.894 637.09 287.102 627.074C280.799 620.558 275.242 629.782 272.338 629.042C264.613 608.126 243.271 627.924 239.331 637.738C230.821 658.866 247.492 655.231 247.842 655.735C239.296 666.059 269.82 674.284 272.643 657.099C272.874 655.706 271.352 655.116 269.805 654.866C272.358 648.624 265.584 647.942 264.864 652.196C264.363 654.876 258.4 661.862 251.432 651.385C246.981 632.735 277.695 624.404 283.692 648.701C290.701 683.038 243.642 701.371 213.063 677.194C225.579 680.435 243.797 675.23 243.797 675.23C229.519 658.117 218.48 682.961 202.61 666.41C181.298 657.037 202.535 639.304 181.158 631.554C181.158 631.554 181.614 649.762 188.668 660.196C155.266 639.765 158.93 591.166 195.176 586.97C221.118 584.948 222.33 615.545 202.465 617.221C189.919 614.09 195.006 606.479 197.509 605.216C201.514 603.243 198.735 597.274 193.339 601.528C192.618 600.198 191.561 598.988 190.25 599.608C174.079 607.487 191.646 632.797 199.261 621.816C199.867 621.969 201.399 638.276 219.732 624.015C228.242 617.393 241.304 591.815 218.175 591.219C216.548 588.818 223.982 580.881 215.577 577.14C202.62 571.301 183.466 576.122 180.297 577.976C177.854 579.416 177.093 585.851 176.848 588.89C175.005 590.206 171.256 582.811 166.805 585.817C161.003 589.745 152.142 597.706 149.729 609.994C148.727 615.021 156.818 620.428 160.357 622.536C160.447 625.023 152.808 623.42 152.117 631.054C151.551 637.047 160.828 659.313 176.623 656.403C176.918 656.672 177.263 656.998 177.624 657.315C173.323 666.89 181.228 671.523 196.703 674.212C204.142 687.508 211.176 693.29 219.351 686.409C219.767 686.625 220.202 686.836 220.558 687.023C222.56 702.336 247.487 703.93 253.254 701.563C260.563 698.644 256.618 692.166 259.111 691.475Z" fill="#E6CBAE"/>
<path d="M140.166 540.541C143.26 541.256 149.889 542.562 152.056 540.776C154.88 538.457 165.573 522.482 163.806 508.859C162.7 500.033 152.552 504.365 150.654 502.137C157.228 480.86 127.826 484.85 118.614 490.56C98.7992 502.866 114.494 509.315 114.459 509.915C101.222 513.449 120.872 537.285 133.688 524.998C134.729 524.004 133.858 522.664 132.762 521.593C138.644 517.987 133.588 513.613 130.399 516.647C128.366 518.568 119.25 520.82 120.031 508.412C127.856 490.819 157.808 501.397 147.776 524.431C132.402 556.166 83.0845 544.459 73.182 507.668C81.3373 517.344 99.2498 523.413 99.2498 523.413C98.1885 501.517 74.0331 515.394 71.3347 493.056C59.8202 473.461 87.8905 471.084 75.3397 452.765C75.3397 452.765 64.5512 467.751 63.8803 480.183C49.3621 444.823 82.1233 407.571 113.998 424.593C136.226 437.587 118.459 463.007 101.347 453.188C93.1171 443.584 101.893 440.29 104.697 440.703C109.142 441.361 110.554 434.97 103.585 435.368C103.816 433.885 103.7 432.31 102.249 432.089C84.336 429.347 83.0394 459.728 95.9206 455.137C96.3161 455.617 87.5601 469.662 111.135 468.462C122.084 467.905 148.317 454.57 129.973 441.049C130.139 438.168 140.987 435.959 136.482 428.195C129.583 416.166 111.13 409.266 107.445 408.988C104.592 408.767 100.026 413.554 97.9632 415.878C95.6703 415.902 97.1672 407.806 91.7203 407.715C84.6214 407.619 72.5763 409.064 63.0943 417.645C59.2044 421.146 62.4335 430.086 64.0055 433.784C62.5536 435.849 57.3571 430.245 52.1205 436.031C47.9903 440.559 41.8476 463.799 56.4109 470.349L56.6462 471.645C47.2944 476.966 50.8489 485.172 61.7226 496.072C59.5999 511.02 61.7226 519.663 72.5712 518.707L73.172 519.884C65.3972 533.391 84.5964 548.742 90.6941 550.082C98.4738 551.815 99.2548 544.349 101.708 545.203C102.709 549.083 105.558 558.139 110.849 558.778C123.781 560.382 134.419 554.768 140.106 550.697C144.462 547.518 138.299 541.813 140.166 540.541Z" fill="#E6CBAE"/>
<path d="M234.2 620.511C224.898 617.692 222.77 629.332 228.152 632.755C233.209 636.597 244.097 631.079 238.435 623.464C266.4 591.772 306.316 617.831 307.372 635.564C308.734 658.464 298.145 672.677 304.338 680.744C307.592 684.989 311.552 684.427 314.576 682.689C315.958 685.805 318.816 688.489 324.048 686.895C334.01 683.865 334.161 666.401 349.31 648.649C361.039 634.902 409.285 636.376 412.479 677.762C403.228 680.729 408.639 691.341 415.092 691.077C421.546 691.341 426.962 680.734 417.711 677.762C420.93 636.376 469.18 634.935 480.9 648.692C496.034 666.459 496.179 683.913 506.137 686.952C511.369 688.547 514.227 685.862 515.609 682.751C518.613 684.494 522.618 685.051 525.852 680.83C532.05 672.763 521.471 658.545 522.848 635.646C523.914 617.913 563.85 591.902 591.79 623.584C586.128 631.199 597.006 636.736 602.068 632.885C607.45 629.461 605.332 617.827 596.03 620.636C573.271 585.338 611.424 556.974 629.332 561.493C652.461 567.327 663.28 581.377 673.192 578.217C678.409 576.56 679.075 572.777 678.284 569.478C681.788 569.185 685.342 567.408 685.383 562.141C685.453 552.12 668.186 546.578 655.265 527.28C646.378 514.008 658.308 478.211 690.509 477.26V473.477C657.352 474.917 634.103 508.582 657.032 554.66C601.632 547.616 575.464 582.793 588.39 614.821C560.646 593.112 517.667 606.086 507.499 658.795C466.993 621.85 424.239 635.555 415.072 668.754C405.926 635.55 363.207 621.812 322.681 658.723C312.548 606.005 269.579 593.011 241.814 614.701C254.766 582.678 228.623 547.476 173.228 554.496C197.318 506.129 170.525 471.398 134.775 473.289C164.873 454.687 165.313 411.477 116.166 385.898C165.308 360.362 164.918 317.151 134.83 298.506C170.58 300.427 197.409 265.701 173.323 217.323C228.728 224.367 254.896 189.19 241.97 157.162C269.715 178.871 312.694 165.896 322.861 113.188C363.367 150.123 406.096 136.414 415.263 103.215C424.409 136.423 467.128 150.156 507.654 113.245C517.792 165.964 560.756 178.962 588.521 157.272C575.569 189.29 601.712 224.497 657.107 217.472C634.158 263.511 657.347 297.181 690.469 298.674V294.89C658.313 293.877 646.414 258.109 655.32 244.851C668.251 225.558 685.528 220.031 685.463 210.01C685.428 204.728 681.883 202.966 678.369 202.668C679.16 199.369 678.494 195.586 673.282 193.924C663.37 190.76 652.541 204.805 629.412 210.625C611.5 215.133 573.342 186.741 596.145 151.458C605.447 154.276 607.575 142.642 602.193 139.213C597.137 135.372 586.248 140.889 591.91 148.505C563.945 180.196 524.029 154.137 522.973 136.404C521.616 113.505 532.2 99.2963 526.007 91.2246C522.753 86.9846 518.793 87.5416 515.769 89.3039C514.387 86.1924 511.529 83.5034 506.297 85.0975C496.335 88.1274 496.184 105.596 481.035 123.343C469.311 137.091 421.06 135.617 417.866 94.2304C427.118 91.2678 421.706 80.6559 415.253 80.9152C408.8 80.6511 403.383 91.2581 412.634 94.2304C409.415 135.617 361.165 137.057 349.445 123.3C334.311 105.534 334.166 88.0795 324.208 85.0399C318.977 83.4457 316.118 86.1299 314.736 89.2415C311.732 87.5032 307.752 86.9414 304.498 91.1622C298.296 99.2291 308.874 113.442 307.502 136.342C306.441 154.075 266.501 180.086 238.56 148.404C244.222 140.788 233.344 135.252 228.282 139.103C222.901 142.526 225.018 154.161 234.32 151.352C257.079 186.65 218.926 215.018 201.018 210.495C177.889 204.661 167.07 190.611 157.158 193.771C151.946 195.427 151.276 199.211 152.067 202.51C148.562 202.803 145.008 204.584 144.968 209.847C144.898 219.868 162.164 225.409 175.085 244.707C185.098 259.655 168.722 303.212 126.7 293.335C126.614 283.981 114.419 285.652 112.682 291.606C110.424 297.406 119.27 305.627 125.073 298.112C165.123 313.838 151.636 358.293 134.374 364.732C112.091 373.053 94.7294 367.786 88.6367 375.929C85.4377 380.208 87.2149 383.646 89.8783 385.869C87.2149 388.092 85.4377 391.525 88.6317 395.809C94.7144 403.971 112.081 398.69 134.359 407.035C151.616 413.484 165.068 457.933 125.012 473.65C119.215 466.13 110.364 474.346 112.617 480.151C114.349 486.12 126.544 487.781 126.635 478.427C168.687 468.574 185.008 512.145 174.99 527.083C162.059 546.377 144.782 551.904 144.847 561.925C144.882 567.207 148.427 568.969 151.941 569.267C151.15 572.565 151.816 576.349 157.028 578.011C166.94 581.175 177.769 567.13 200.898 561.31C218.82 556.835 256.953 585.228 234.2 620.511Z" fill="#E6CBAE"/>
<path d="M133.113 582.421C128.051 584.74 123.691 587.222 121.598 590.449C125.423 589.522 129.248 586.315 133.113 582.421Z" fill="#E6CBAE"/>
<path d="M302.941 716.922C305.485 714.007 306.611 709.239 307.352 703.924C304.679 708.648 302.676 713.124 302.941 716.922Z" fill="#E6CBAE"/>
<path d="M403.047 711.691C406.741 714.892 410.767 717.72 415.062 720.133C419.356 717.72 423.382 714.893 427.077 711.696C422.196 709.401 418.376 709.363 415.062 710.457C411.748 709.363 407.918 709.396 403.047 711.691Z" fill="#E6CBAE"/>
<path d="M440.84 739.492C441.31 739.429 441.791 739.357 442.196 739.309C453.21 750.574 474.342 737.802 477.556 732.64C481.686 726.076 474.522 723.06 476.119 721.116C480.274 721.409 490.137 721.596 492.404 716.972C497.991 705.673 495.714 694.235 493.406 687.787C491.648 682.846 484.079 686.706 483.393 684.603C485.06 682.005 488.399 676.363 487.298 673.833C485.871 670.544 473.34 655.836 459.263 653.253C450.171 651.534 451.328 662.131 448.524 663.168C429.46 650.597 424.324 678.649 427.147 688.81C433.23 710.686 444.469 698.36 445.055 698.581C444.469 711.752 474.197 701.198 465.956 685.703C465.29 684.445 463.693 684.829 462.292 685.496C460.534 679.014 454.632 682.274 456.654 686.125C457.906 688.56 457.35 697.582 445.285 693.035C430.266 680.459 450.006 656.403 469.746 672.676C496.46 696.507 469.611 737.878 430.066 735.55C442.191 731.103 453.726 716.636 453.726 716.636C431.698 710.835 437.986 737.158 415.002 732.717C392.013 737.144 398.331 710.825 376.283 716.612C376.283 716.612 387.798 731.084 399.933 735.54C360.383 737.84 333.57 696.459 360.298 672.637C380.048 656.379 399.778 680.445 384.739 693.011C372.674 697.553 372.123 688.531 373.38 686.092C375.382 682.25 369.505 678.98 367.743 685.463C366.341 684.79 364.739 684.411 364.078 685.669C355.823 701.155 385.55 711.728 384.969 698.557C385.555 698.341 396.789 710.672 402.882 688.8C405.715 678.639 400.599 650.588 381.525 663.144C378.721 662.102 379.883 651.505 370.791 653.219C356.734 655.793 344.188 670.505 342.756 673.785C341.655 676.315 344.989 681.948 346.656 684.56C345.97 686.658 338.411 682.793 336.643 687.734C334.356 694.178 332.068 705.616 337.645 716.919C339.913 721.548 349.775 721.365 353.93 721.072C355.527 723.032 348.363 726.047 352.483 732.597C355.697 737.763 376.844 750.55 387.838 739.285C388.243 739.338 388.724 739.41 389.195 739.473C391.583 749.648 400.819 748.937 414.987 742.387C429.21 748.971 438.457 749.686 440.84 739.492Z" fill="#E6CBAE"/>
<path d="M95.8908 497.484C96.6617 492.327 95.5203 488.841 93.3876 486.143C93.4477 482.781 92.2311 479.31 88.4514 475.579C86.4185 479.936 84.8567 484.481 83.7905 489.144C87.5169 492.312 91.5714 495.107 95.8908 497.484Z" fill="#E6CBAE"/>
<path d="M95.9659 274.3C91.6526 276.68 87.6047 279.478 83.8857 282.65C84.9488 287.312 86.5072 291.857 88.5366 296.215C92.3164 292.474 93.5429 289.012 93.4778 285.651C95.5905 282.957 96.7319 279.462 95.9659 274.3Z" fill="#E6CBAE"/>
<path d="M215.677 194.675C224.087 190.939 216.678 183.021 218.29 180.601C241.414 180.02 228.378 154.432 219.867 147.805C201.544 133.535 200.002 149.841 199.396 149.99C191.796 139.009 174.214 164.309 190.385 172.193C191.696 172.837 192.753 171.627 193.479 170.273C198.87 174.527 201.649 168.563 197.654 166.59C195.151 165.322 190.069 157.707 202.615 154.585C222.48 156.29 221.244 186.882 195.306 184.836C159.085 180.616 155.456 132.017 188.873 111.605C181.789 122.034 181.323 140.243 181.323 140.243C202.705 132.507 181.484 114.765 202.8 105.401C218.68 88.8592 229.699 113.708 243.992 96.6044C243.992 96.6044 225.794 91.3897 213.258 94.6213C243.842 70.4637 290.901 88.8256 283.847 123.163C277.84 147.45 247.126 139.105 251.587 120.459C258.566 109.982 264.543 116.973 265.019 119.648C265.74 123.907 272.528 123.22 269.965 116.983C271.512 116.733 273.034 116.143 272.803 114.75C269.99 97.5696 239.466 105.771 248.002 116.099C247.667 116.608 231.021 112.964 239.492 134.096C243.431 143.911 264.758 163.723 272.493 142.812C275.402 142.072 280.954 151.301 287.257 144.79C297.054 134.778 298.195 115.811 297.334 112.349C296.678 109.68 290.516 106.995 287.577 105.829C286.841 103.745 295.332 102.607 293.725 97.6176C291.627 91.1112 286.471 80.5714 275.031 74.5692C270.355 72.1011 262.49 77.8104 259.311 80.3841C256.808 79.7023 260.768 73.2247 253.409 70.238C247.647 67.8708 222.7 69.4505 220.703 84.7585C220.347 84.9458 219.912 85.1571 219.496 85.3731C211.331 78.4874 204.292 84.2687 196.843 97.5551C181.363 100.235 173.453 104.863 177.754 114.443C177.408 114.755 177.063 115.086 176.753 115.355C160.958 112.436 151.671 134.697 152.222 140.684C152.908 148.319 160.547 146.725 160.457 149.212C156.913 151.315 148.822 156.717 149.819 161.745C152.227 174.037 161.078 182.003 166.875 185.931C171.331 188.942 175.085 181.552 176.923 182.863C177.168 185.907 177.924 192.356 180.362 193.782C183.561 195.679 202.715 200.509 215.677 194.675Z" fill="#E6CBAE"/>
<path d="M225.384 115.682C220.436 115.175 215.447 115.156 210.495 115.624C208.497 119.996 206.971 124.553 205.939 129.223C211.291 128.33 214.41 126.207 216.418 123.461C219.772 122.471 222.841 120.287 225.384 115.682Z" fill="#E6CBAE"/>
<path d="M97.9837 355.99C100.046 358.314 104.607 363.107 107.461 362.881C111.16 362.598 129.618 355.712 136.527 343.674C141.033 335.914 130.174 333.691 130.019 330.815C148.377 317.308 122.149 303.959 111.2 303.392C87.6306 302.182 96.3766 316.242 95.9761 316.707C83.0999 312.102 84.3765 342.483 102.289 339.756C103.741 339.535 103.856 337.96 103.626 336.476C110.595 336.879 109.188 330.488 104.747 331.141C101.944 331.53 93.1676 328.26 101.403 318.657C118.519 308.837 136.267 334.282 114.034 347.261C82.1487 364.264 49.4226 326.993 63.9709 291.637C64.6367 304.069 75.4153 319.065 75.4153 319.065C87.9761 300.751 59.9308 298.36 71.4353 278.769C74.1487 256.431 98.294 270.322 99.3704 248.427C99.3704 248.427 81.4579 254.467 73.2926 264.152C83.2301 227.366 132.552 215.688 147.886 247.433C157.899 270.481 127.946 281.045 120.132 263.432C119.361 251.024 128.477 253.31 130.505 255.207C133.694 258.241 138.755 253.867 132.873 250.261C133.969 249.19 134.84 247.86 133.799 246.856C120.993 234.54 101.328 258.381 114.56 261.929C114.6 262.529 98.8998 268.964 118.705 281.285C127.906 287.004 157.303 291.008 150.745 269.727C152.642 267.494 162.79 271.83 163.902 263.005C165.689 249.387 154.99 233.402 152.172 231.083C150.004 229.292 143.376 230.602 140.282 231.308C138.415 230.036 144.582 224.331 140.227 221.196C134.54 217.119 123.911 211.496 110.975 213.095C105.683 213.734 102.82 222.785 101.828 226.665C99.3904 227.515 98.6144 220.048 90.8146 221.782C84.6969 223.117 65.4828 238.453 73.2525 251.965C73.0773 252.321 72.857 252.734 72.6518 253.142C61.8232 252.181 59.6704 260.825 61.7881 275.772C50.9094 286.663 47.3449 294.869 56.6967 300.194C56.6066 300.645 56.5315 301.102 56.4564 301.491C41.8881 308.031 48.0158 331.261 52.141 335.804C57.3726 341.6 62.5791 335.996 64.0259 338.061C62.4539 341.758 59.2149 350.694 63.1048 354.194C72.5817 362.785 84.6319 364.24 91.7258 364.148C97.1826 364.057 95.6908 355.961 97.9837 355.99Z" fill="#E6CBAE"/>
<path d="M140.166 540.541C143.26 541.256 149.889 542.562 152.056 540.776C154.88 538.457 165.573 522.482 163.806 508.859C162.7 500.033 152.552 504.365 150.654 502.137C157.228 480.86 127.826 484.85 118.614 490.56C98.7992 502.866 114.494 509.315 114.459 509.915C101.222 513.449 120.872 537.285 133.688 524.998C134.729 524.004 133.858 522.664 132.762 521.593C138.644 517.987 133.588 513.613 130.399 516.647C128.366 518.568 119.25 520.82 120.031 508.412C127.856 490.819 157.808 501.397 147.776 524.431C132.402 556.166 83.0845 544.459 73.182 507.668C81.3373 517.344 99.2498 523.413 99.2498 523.413C98.1885 501.517 74.0331 515.394 71.3347 493.056C59.8202 473.461 87.8905 471.084 75.3397 452.765C75.3397 452.765 64.5512 467.751 63.8803 480.183C49.3621 444.823 82.1233 407.571 113.998 424.593C136.226 437.587 118.459 463.007 101.347 453.188C93.1171 443.584 101.893 440.29 104.697 440.703C109.142 441.361 110.554 434.97 103.585 435.368C103.816 433.885 103.7 432.31 102.249 432.089C84.336 429.347 83.0394 459.728 95.9206 455.137C96.3161 455.617 87.5601 469.662 111.135 468.462C122.084 467.905 148.317 454.57 129.973 441.049C130.139 438.168 140.987 435.959 136.482 428.195C129.583 416.166 111.13 409.266 107.445 408.988C104.592 408.767 100.026 413.554 97.9632 415.878C95.6703 415.902 97.1672 407.806 91.7203 407.715C84.6214 407.619 72.5763 409.064 63.0943 417.645C59.2044 421.146 62.4335 430.086 64.0055 433.784C62.5536 435.849 57.3571 430.245 52.1205 436.031C47.9903 440.559 41.8476 463.799 56.4109 470.349L56.6462 471.645C47.2944 476.966 50.8489 485.172 61.7226 496.072C59.5999 511.02 61.7226 519.663 72.5712 518.707L73.172 519.884C65.3972 533.391 84.5964 548.742 90.6941 550.082C98.4738 551.815 99.2548 544.349 101.708 545.203C102.709 549.083 105.558 558.139 110.849 558.778C123.781 560.382 134.419 554.768 140.106 550.697C144.462 547.518 138.299 541.813 140.166 540.541Z" fill="#E6CBAE"/>
<path d="M52.3608 385.892C56.0355 387.332 61.0918 386.852 66.6088 385.892C61.0918 384.917 56.0355 384.475 52.3608 385.892Z" fill="#E6CBAE"/>
</g>
</svg>
