<svg width="1728" height="524" viewBox="0 0 1728 524" fill="none" xmlns="http://www.w3.org/2000/svg">
<g clip-path="url(#clip0_308_2675)">
<rect x="-3" width="1733" height="524" fill="#917196"/>
<g opacity="0.2">
<path d="M974.446 230.857C970.961 237.93 952.312 237.022 966.389 256.987C968.352 259.79 958.818 261.623 961.657 270.159C964.724 279.362 977.341 276.195 977.341 276.195C977.341 276.195 964.798 251.937 980.592 228.901C953.995 219.339 949.606 192.469 949.606 192.469C949.606 192.469 937.492 197.171 940.53 206.38C943.345 214.922 952.181 210.943 952.261 214.322C952.816 238.592 967.385 227.13 974.446 230.857Z" fill="url(#paint0_radial_308_2675)"/>
<path d="M974.412 334.878C967.345 338.595 952.804 327.127 952.215 351.379C952.135 354.742 943.3 350.774 940.479 359.316C937.44 368.519 949.543 373.227 949.543 373.227C949.543 373.227 953.955 346.38 980.557 336.835C964.775 313.787 977.342 289.534 977.342 289.534C977.342 289.534 964.718 286.368 961.651 295.565C958.79 304.096 968.335 305.963 966.372 308.743C952.284 328.691 970.933 327.799 974.412 334.878Z" fill="url(#paint1_radial_308_2675)"/>
<path d="M911.958 419.011C904.016 417.952 899.129 400.302 884.097 419.572C882.008 422.256 877.23 413.967 869.843 419.235C861.831 424.93 868.83 435.714 868.83 435.714C868.83 435.714 888.509 416.528 915.752 424.123C916.817 396.39 941.502 384.003 941.502 384.003C941.502 384.003 933.194 374.177 925.194 379.849C917.755 385.112 924.359 392.113 921.108 393.228C897.767 401.266 913.389 411.282 911.958 419.011Z" fill="url(#paint2_radial_308_2675)"/>
<path d="M810.946 451.128C805.155 445.692 811.793 428.602 788.057 435.547C784.755 436.516 785.894 427.061 776.733 427.066C766.85 427.066 766.021 439.812 766.021 439.812C766.021 439.812 793.453 435.625 810.94 457.456C828.445 435.636 855.872 439.84 855.872 439.84C855.872 439.84 855.048 427.106 845.171 427.089C836.015 427.089 837.16 436.533 833.835 435.564C810.116 428.602 816.743 445.697 810.946 451.128Z" fill="url(#paint3_radial_308_2675)"/>
<path d="M709.957 418.949C708.532 411.22 724.16 401.215 700.801 393.167C697.545 392.046 704.143 385.051 696.721 379.782C688.71 374.104 680.407 383.93 680.407 383.93C680.407 383.93 705.116 396.334 706.157 424.061C733.413 416.483 753.08 435.68 753.08 435.68C753.08 435.68 760.055 424.907 752.073 419.202C744.668 413.916 739.907 422.217 737.819 419.532C722.786 400.246 717.905 417.896 709.957 418.949Z" fill="url(#paint4_radial_308_2675)"/>
<path d="M647.555 334.771C651.04 327.697 669.689 328.605 655.612 308.646C653.649 305.844 663.182 304.005 660.344 295.469C657.277 286.266 644.659 289.432 644.659 289.432C644.659 289.432 657.203 313.691 641.409 336.727C668.006 346.289 672.395 373.159 672.395 373.159C672.395 373.159 684.509 368.457 681.471 359.248C678.655 350.706 669.82 354.685 669.74 351.305C669.168 327.042 654.616 338.498 647.555 334.771Z" fill="url(#paint5_radial_308_2675)"/>
<path d="M647.588 230.747C654.655 227.031 669.195 238.499 669.785 214.247C669.865 210.884 678.694 214.852 681.521 206.316C684.56 197.107 672.451 192.398 672.451 192.398C672.451 192.398 668.045 219.246 641.442 228.791C657.224 251.839 644.658 276.091 644.658 276.091C644.658 276.091 657.282 279.258 660.349 270.061C663.21 261.53 653.659 259.663 655.622 256.883C669.716 236.935 651.067 237.827 647.588 230.747Z" fill="url(#paint6_radial_308_2675)"/>
<path d="M710.045 146.613C717.988 147.672 722.875 165.322 737.907 146.052C739.996 143.368 744.774 151.657 752.156 146.389C760.167 140.694 753.174 129.91 753.174 129.91C753.174 129.91 733.495 149.096 706.251 141.501C705.187 169.234 680.473 181.621 680.473 181.621C680.473 181.621 688.776 191.447 696.781 185.775C704.22 180.512 697.611 173.511 700.867 172.396C724.231 164.358 708.615 154.342 710.045 146.613Z" fill="url(#paint7_radial_308_2675)"/>
<path d="M811.062 114.496C816.853 119.933 810.215 137.022 833.951 130.078C837.259 129.108 836.12 138.564 845.281 138.558C855.164 138.558 855.994 125.812 855.994 125.812C855.994 125.812 828.561 129.999 811.074 108.168C793.569 129.988 766.143 125.779 766.143 125.779C766.143 125.779 766.961 138.519 776.843 138.536C785.999 138.536 784.854 129.091 788.179 130.061C811.892 137.022 805.266 119.927 811.062 114.496Z" fill="url(#paint8_radial_308_2675)"/>
<path d="M912.048 146.676C913.472 154.405 897.845 164.41 921.203 172.459C924.459 173.58 917.861 180.575 925.283 185.843C933.294 191.521 941.597 181.696 941.597 181.696C941.597 181.696 916.889 169.292 915.847 141.564C888.592 149.142 868.925 129.945 868.925 129.945C868.925 129.945 861.949 140.718 869.932 146.424C877.336 151.709 882.097 143.408 884.186 146.093C899.201 165.402 904.099 147.73 912.048 146.676Z" fill="url(#paint9_radial_308_2675)"/>
<path d="M1105.97 189.034C1107.59 193.144 1108.58 197.465 1108.9 201.859C1109.8 197.264 1109.99 192.564 1109.48 187.913C1107.1 183.858 1104.12 180.17 1100.64 176.973C1103.01 180.713 1104.81 184.778 1105.97 189.034Z" fill="url(#paint10_radial_308_2675)"/>
<path d="M1105.91 376.773C1104.75 381.03 1102.96 385.095 1100.58 388.835C1104.07 385.639 1107.05 381.951 1109.43 377.894C1109.94 373.244 1109.75 368.544 1108.86 363.949C1108.53 368.344 1107.53 372.666 1105.91 376.773Z" fill="url(#paint11_radial_308_2675)"/>
<path d="M1003.28 519.934C997.12 526.346 989.787 531.567 981.659 535.325C986.402 534.748 991.03 533.482 995.393 531.569C998.596 528.096 1001.25 524.174 1003.28 519.934Z" fill="url(#paint12_radial_308_2675)"/>
<path d="M640.182 535.204C632.06 531.442 624.73 526.221 618.574 519.812C620.598 524.052 623.256 527.971 626.459 531.443C630.818 533.355 635.443 534.622 640.182 535.204Z" fill="url(#paint13_radial_308_2675)"/>
<path d="M516.03 376.59C514.41 372.481 513.423 368.159 513.1 363.766C512.204 368.36 512.011 373.06 512.527 377.711C514.898 381.768 517.874 385.456 521.357 388.652C518.981 384.912 517.186 380.847 516.03 376.59Z" fill="url(#paint14_radial_308_2675)"/>
<path d="M516.094 188.851C517.249 184.594 519.042 180.53 521.416 176.789C517.929 179.987 514.946 183.674 512.564 187.73C512.05 192.38 512.243 197.08 513.136 201.675C513.468 197.28 514.465 192.958 516.094 188.851Z" fill="url(#paint15_radial_308_2675)"/>
<path d="M628.801 37.0109C632.29 34.234 636.182 31.9805 640.348 30.3242C635.605 30.9014 630.977 32.1671 626.615 34.0795C623.41 37.5477 620.751 41.4636 618.724 45.6986C621.623 42.3283 625.019 39.4002 628.801 37.0109Z" fill="url(#paint16_radial_308_2675)"/>
<path d="M993.362 37.1254C997.139 39.5136 1000.53 42.4398 1003.43 45.8074C1001.4 41.5707 998.745 37.6529 995.542 34.1828C991.18 32.2697 986.551 31.0022 981.809 30.4219C985.978 32.0827 989.871 34.342 993.362 37.1254Z" fill="url(#paint17_radial_308_2675)"/>
<path d="M555.324 359.013C558.454 359.927 564.737 355.499 567.609 353.319C569.137 353.616 568.468 356.884 568.948 359.764C570.287 362.376 572.788 364.635 571.729 365.75C568.096 365.638 560.359 365.672 558.368 368.211C555.781 371.501 547.696 392.217 553.012 407.373C556.405 417.198 566.705 409.923 569.372 412.042C567.214 437.858 599.128 426.564 608.031 417.921C627.195 399.319 608.066 395.552 607.957 394.857C621.908 387.784 594.098 365.033 582.779 382.033C581.858 383.412 583.162 384.74 584.65 385.715C578.928 391.18 585.669 395.02 588.501 390.821C590.31 388.193 599.946 383.496 602.109 397.85C597.645 419.749 561.555 414.53 567.157 385.912C576.616 346.116 634.646 348.196 654.708 387.957C643.218 378.76 621.702 375.957 621.702 375.957C626.995 396.017 643.504 385.799 654.084 394.414C659.166 406.941 644.145 419.149 661.981 430.286C661.981 430.286 665.918 409.379 660.545 395.832C692.933 426.839 676.968 481.526 635.424 478.012C605.903 474.369 612.014 439.142 634.657 441.765C647.921 448.216 640.379 455.743 637.266 456.612C632.311 457.952 633.959 465.406 641.032 461.786C641.518 463.467 642.405 465.098 644.024 464.667C664.052 459.37 650.565 426.424 639.378 437.202C638.731 436.894 641.003 417.91 617.01 429.994C605.863 435.599 585.016 461.842 610.744 467.822C611.98 470.961 601.731 478.303 610.217 484.502C623.281 494.148 645.89 493.033 649.89 491.643C652.974 490.573 655.395 483.381 656.413 479.962C657.827 479.323 659.274 482.35 661.363 484.402C664.012 485.741 667.394 486.134 667.205 487.647C664.201 489.648 657.958 494.126 657.872 497.327C657.758 501.48 663.646 522.891 677.042 532.077C685.683 538.074 689.631 526.265 693.064 526.472C706.798 548.601 725.853 521.086 727.867 508.968C732.205 482.883 714.471 490.853 713.968 490.354C721.006 476.599 684.853 474.201 685.889 494.479C685.969 496.127 687.817 496.452 689.608 496.385C688.275 504.092 696.017 503.324 695.788 498.296C695.674 495.129 700.658 485.775 711.015 496.149C720.548 516.434 688.218 532.996 675.577 506.614C659.354 468.988 707.542 437.247 747.638 457.851C732.823 457.021 713.733 467.138 713.733 467.138C730.053 480.321 737.28 462.559 751.008 463.428C762.636 470.636 757.806 489.166 778.921 487.91C778.921 487.91 769.56 468.73 757.085 460.861C801.89 467.295 821.792 520.733 786.074 541.807C760.009 555.859 743.809 523.838 763.706 512.925C778.309 510.504 776.724 520.94 774.727 523.434C771.522 527.358 777.325 532.453 780.872 525.452C782.28 526.534 783.974 527.341 785.027 526.057C798.039 510.252 767.368 491.357 764.799 506.535C764.095 506.653 754.539 489.99 742.379 513.581C736.731 524.539 735.604 557.765 760.009 547.771C762.87 549.598 759.002 561.436 769.594 561.565C785.954 561.851 803.573 547.928 805.976 544.503C807.824 541.863 805.473 534.644 804.259 531.298C805.02 529.964 807.985 531.595 810.932 532.038C813.879 531.595 816.843 529.964 817.598 531.298C816.373 534.661 814.01 541.863 815.881 544.503C818.279 547.934 835.909 561.879 852.252 561.593C862.844 561.469 858.964 549.626 861.843 547.799C886.242 557.787 885.138 524.561 879.501 513.609C867.359 490.007 857.791 506.664 857.082 506.547C854.524 491.368 823.835 510.246 836.842 526.057C837.895 527.341 839.589 526.539 840.996 525.452C844.538 532.458 850.346 527.38 847.142 523.446C845.151 520.946 843.571 510.509 858.175 512.936C878.059 523.86 861.837 555.87 835.783 541.807C800.076 520.705 820.013 467.262 864.824 460.878C852.344 468.725 842.971 487.916 842.971 487.916C864.086 489.183 859.268 470.653 870.901 463.45C884.634 462.587 891.844 480.36 908.176 467.183C908.176 467.183 889.092 457.055 874.277 457.873C914.39 437.286 962.554 469.083 946.303 506.67C933.646 533.047 901.326 516.462 910.871 496.183C921.24 485.82 926.218 495.174 926.098 498.341C925.863 503.385 933.611 504.137 932.284 496.435C934.069 496.503 935.923 496.177 936.003 494.53C937.05 474.251 900.897 476.628 907.924 490.382C907.426 490.887 889.693 482.905 894.013 508.99C896.022 521.108 915.048 548.634 928.805 526.517C932.238 526.338 936.198 538.159 944.827 532.167C958.234 522.975 964.134 501.569 964.019 497.416C963.934 494.216 957.725 489.737 954.692 487.731C954.509 486.218 957.885 485.831 960.534 484.491C962.657 482.44 964.077 479.413 965.49 480.052C966.509 483.471 968.923 490.668 972.008 491.738C976.013 493.134 998.61 494.261 1011.69 484.626C1020.18 478.427 1009.93 471.084 1011.17 467.945C1036.92 461.976 1016.07 435.734 1004.93 430.112C980.94 418.011 983.183 436.995 982.559 437.303C971.378 426.497 957.879 459.437 977.89 464.739C979.509 465.171 980.402 463.551 980.889 461.864C987.956 465.491 989.609 458.036 984.654 456.696C981.541 455.822 973.999 448.289 987.275 441.849C1009.92 439.237 1016.01 474.47 986.485 478.096C944.936 481.582 929.011 426.884 961.416 395.9C956.037 409.447 959.957 430.353 959.957 430.353C977.799 419.227 962.783 407.008 967.876 394.481C978.468 385.872 994.965 396.096 1000.27 376.041C1000.27 376.041 978.754 378.844 967.258 388.025C987.355 348.274 1045.38 346.245 1054.81 386.035C1060.39 414.654 1024.3 419.849 1019.85 397.951C1022.01 383.591 1031.66 388.294 1033.46 390.928C1036.29 395.132 1043.02 391.292 1037.32 385.822C1038.8 384.847 1040.11 383.518 1039.19 382.139C1027.87 365.134 1000.04 387.868 1014.01 394.952C1013.9 395.647 994.771 399.403 1013.92 418.017C1022.82 426.665 1054.72 437.981 1052.58 412.165C1055.25 410.046 1065.54 417.322 1068.94 407.502C1074.27 392.368 1066.2 371.63 1063.62 368.334C1061.62 365.795 1053.89 365.762 1050.26 365.868C1049.2 364.747 1051.7 362.505 1053.04 359.882C1053.52 357.001 1052.86 353.717 1054.39 353.442C1057.25 355.622 1063.54 360.05 1066.67 359.142C1070.74 357.971 1089.71 345.864 1094.5 330.557C1097.65 320.653 1084.95 320.608 1084.07 317.357C1101.31 297.712 1068.71 288.475 1056.32 290.342C1029.65 294.36 1042.87 308.423 1042.54 309.045C1027.01 306.736 1035.86 341.156 1055.23 333.926C1056.8 333.365 1056.54 331.516 1055.92 329.873C1063.82 328.752 1060.69 321.752 1055.87 323.523C1052.83 324.61 1042.21 322.856 1049.08 309.998C1065.84 294.865 1091.9 319.852 1070.2 339.783C1038.67 366.518 992.945 331.443 1000.58 287.719C1004.36 301.77 1020.09 316.427 1020.09 316.427C1027.85 297.152 1008.36 295.913 1004.96 282.853C1008.4 269.794 1027.85 268.566 1020.11 249.285C1020.11 249.285 1004.37 263.931 1000.59 277.983C992.997 234.264 1038.73 199.205 1070.23 225.963C1091.93 245.906 1065.84 270.892 1049.1 255.731C1042.23 242.873 1052.86 241.125 1055.9 242.218C1060.71 243.989 1063.85 237.011 1055.96 235.867C1056.58 234.219 1056.83 232.398 1055.26 231.809C1035.89 224.568 1027.03 258.982 1042.56 256.684C1042.89 257.306 1029.66 271.358 1056.33 275.393C1068.71 277.271 1101.32 268.051 1084.1 248.4C1084.98 245.149 1097.68 245.11 1094.53 235.206C1089.75 219.882 1070.79 207.742 1066.72 206.587C1063.58 205.679 1057.3 210.107 1054.43 212.287C1052.9 211.99 1053.57 208.722 1053.09 205.842C1051.75 203.23 1049.25 200.976 1050.31 199.855C1053.94 199.968 1061.68 199.934 1063.67 197.395C1066.26 194.105 1074.34 173.389 1069.02 158.233C1065.64 148.408 1055.34 155.683 1052.67 153.559C1054.83 127.776 1022.91 139.042 1014.01 147.685C994.845 166.287 1013.97 170.054 1014.08 170.749C1000.13 177.822 1027.94 200.573 1039.26 183.573C1040.18 182.194 1038.87 180.866 1037.38 179.891C1043.11 174.426 1036.37 170.586 1033.53 174.785C1031.73 177.413 1022.09 182.11 1019.93 167.756C1024.39 145.857 1060.48 151.076 1054.88 179.694C1045.42 219.49 987.389 217.41 967.327 177.649C978.794 186.869 1000.31 189.671 1000.31 189.671C995.017 169.611 978.508 179.823 967.928 171.214C962.841 158.687 977.867 146.48 960.031 135.343C960.031 135.343 956.094 156.249 961.467 169.796C929.079 138.79 945.044 84.1022 986.588 87.6165C1016.11 91.2597 1010 126.487 987.355 123.864C974.091 117.412 981.633 109.885 984.745 109.011C989.701 107.677 988.053 100.222 980.98 103.843C980.494 102.161 979.607 100.53 977.987 100.962C957.959 106.259 971.447 139.204 982.634 128.426C983.28 128.734 981.009 147.718 1005 135.634C1016.14 130.029 1037 103.787 1011.3 97.8063C1010.06 94.6675 1020.31 87.325 1011.82 81.126C998.754 71.4799 976.145 72.5953 972.145 73.9853C969.066 75.0558 966.646 82.2469 965.627 85.666C964.214 86.3105 962.795 83.2783 960.678 81.2269C958.028 79.8873 954.646 79.4949 954.835 77.9816C957.839 75.9806 964.082 71.5023 964.168 68.3019C964.283 64.1486 958.394 42.7377 944.999 33.5512C936.358 27.5539 932.41 39.3635 928.976 39.1562C915.243 17.0279 896.188 44.5425 894.173 56.6604C889.836 82.7458 907.569 74.7756 908.073 75.2744C901.034 89.0289 937.188 91.4279 936.152 71.1492C936.072 69.5013 934.218 69.1762 932.432 69.2435C933.766 61.5367 926.023 62.3046 926.252 67.3322C926.367 70.499 921.383 79.8536 911.025 69.4789C901.492 49.1946 933.823 32.632 946.463 59.0145C962.686 96.6404 914.499 128.381 874.403 107.777C889.212 108.607 908.307 98.4901 908.307 98.4901C891.987 85.3072 884.76 103.069 871.033 102.201C859.405 94.9926 864.229 76.4626 843.119 77.7182C843.119 77.7182 852.475 96.8983 864.955 104.768C820.144 98.3331 800.248 44.8956 835.966 23.8211C862.031 9.76946 878.225 41.7905 858.335 52.7033C843.732 55.1246 845.317 44.6882 847.314 42.1884C850.518 38.265 844.716 33.1757 841.162 40.1763C839.76 39.0945 838.067 38.2874 837.014 39.5709C823.995 55.3769 854.673 74.2711 857.242 59.0929C857.946 58.9752 867.502 75.6387 879.662 52.0475C885.31 41.0899 886.437 7.86378 862.031 17.8574C859.17 16.0302 863.033 4.19255 852.447 4.06363C836.087 3.77778 818.468 17.7005 816.064 21.1251C814.21 23.765 816.568 30.9841 817.781 34.3359C817.02 35.6643 814.056 34.0333 811.109 33.5905C808.162 34.0333 805.198 35.6643 804.437 34.3303C805.667 30.9674 808.03 23.765 806.153 21.1251C803.756 17.6949 786.126 3.74973 769.783 4.03558C759.191 4.15889 763.07 15.9966 760.192 17.8294C735.792 7.84136 736.897 41.0675 742.533 52.0195C754.676 75.6219 764.244 58.964 764.953 59.0817C767.511 74.2599 798.194 55.3825 785.193 39.5709C784.14 38.2874 782.446 39.0889 781.038 40.1763C777.496 33.1701 771.688 38.2481 774.887 42.1828C776.884 44.6826 778.463 55.119 763.86 52.6921C743.975 41.768 760.192 9.75825 786.251 23.8211C821.958 44.9237 802.022 98.3668 757.211 104.751C769.691 96.9039 779.064 77.7182 779.064 77.7182C757.949 76.4458 762.767 94.9758 751.134 102.178C737.4 103.041 730.19 85.2736 713.859 98.4452C713.859 98.4452 732.943 108.573 747.758 107.755C707.645 128.342 659.48 96.5452 675.732 58.9584C688.389 32.5816 720.709 49.1666 711.164 69.4453C700.795 79.8088 695.817 70.4542 695.937 67.2874C696.171 62.2429 688.424 61.4918 689.751 69.193C687.966 69.1258 686.112 69.4509 686.032 71.0987C684.984 91.3774 721.138 89.0009 714.111 75.2464C714.609 74.742 732.342 82.7234 728.022 56.638C726.013 44.5201 706.987 16.9942 693.224 39.1113C689.791 39.2907 685.837 27.4698 677.202 33.4671C663.795 42.6536 657.889 64.0589 658.01 68.2178C658.09 71.4182 664.304 75.8966 667.331 77.9031C667.52 79.4165 664.144 79.8032 661.489 81.1428C659.372 83.1942 657.952 86.2209 656.539 85.5819C655.52 82.1629 653.106 74.9661 650.021 73.8956C646.016 72.5 623.419 71.3734 610.343 81.0083C601.851 87.2073 612.094 94.5498 610.858 97.6886C585.108 103.658 605.96 129.9 617.101 135.522C641.083 147.623 638.846 128.639 639.47 128.325C650.651 139.137 664.15 106.197 644.139 100.895C642.519 100.457 641.627 102.083 641.14 103.77C634.073 100.144 632.42 107.598 637.375 108.938C640.488 109.812 648.024 117.345 634.754 123.785C612.111 126.397 606.023 91.1644 635.544 87.538C677.093 84.0518 693.018 138.75 660.613 169.734C665.992 156.187 662.072 135.281 662.072 135.281C644.225 146.407 659.246 158.626 654.153 171.153C643.561 179.762 627.064 169.538 621.759 189.593C621.759 189.593 643.275 186.79 654.771 177.609C634.674 217.36 576.645 219.389 567.22 179.599C561.635 150.98 597.731 145.785 602.178 167.683C600.014 182.043 590.372 177.34 588.564 174.706C585.737 170.502 579.008 174.342 584.707 179.812C583.22 180.787 581.921 182.116 582.842 183.489C594.161 200.5 621.988 177.766 608.02 170.682C608.123 169.987 627.258 166.231 608.111 147.617C599.213 138.969 567.306 127.653 569.446 153.469C566.78 155.588 556.485 148.312 553.086 158.132C547.759 173.266 555.827 194.004 558.414 197.3C560.405 199.839 568.141 199.872 571.769 199.766C572.828 200.887 570.327 203.129 568.988 205.752C568.508 208.633 569.171 211.917 567.644 212.192C564.783 210.012 558.488 205.584 555.364 206.492C551.289 207.663 532.32 219.77 527.531 235.077C524.389 244.953 537.081 244.992 537.951 248.249C520.715 267.866 553.315 277.131 565.704 275.264C592.37 271.246 579.151 257.183 579.483 256.561C595.013 258.87 586.167 224.45 566.797 231.68C565.223 232.241 565.481 234.09 566.099 235.733C558.202 236.854 561.338 243.854 566.15 242.083C569.194 240.996 579.809 242.75 572.942 255.608C556.188 270.741 530.123 245.754 551.827 225.823C583.351 199.088 629.078 234.163 621.439 277.887C617.662 263.836 601.937 249.179 601.937 249.179C594.178 268.454 613.662 269.693 617.055 282.753C613.651 295.812 594.166 297.04 601.914 316.321C601.914 316.321 617.645 301.675 621.433 287.623C629.026 331.342 583.294 366.401 551.793 339.643C530.094 319.7 556.182 294.714 572.925 309.875C579.792 322.733 569.166 324.481 566.121 323.388C561.315 321.617 558.173 328.595 566.064 329.739C565.446 331.387 565.189 333.208 566.762 333.797C586.127 341.033 594.996 306.624 579.466 308.922C579.134 308.3 592.364 294.248 565.698 290.213C553.309 288.335 520.704 297.555 537.928 317.206C537.041 320.457 524.343 320.496 527.49 330.4C532.291 345.724 551.249 357.836 555.324 359.013ZM623.825 340.792C629.547 336.566 642.096 311.422 627.401 300.599C627.401 300.139 627.436 299.595 627.453 299.063C635.464 296.378 637.106 290.784 634.319 282.758C637.118 274.732 635.464 269.138 627.453 266.448C627.453 265.887 627.413 265.372 627.407 264.918C642.107 254.1 629.576 228.951 623.853 224.719C616.586 219.305 612.134 226.894 610.006 224.87C610.372 222.937 610.628 220.985 610.772 219.024C611.834 217.353 612.801 215.626 613.668 213.851C616.603 213.442 615.642 222.146 624.775 221.956C631.939 221.832 657.18 208.711 651.79 191.493C652.07 191.129 652.419 190.708 652.745 190.288C660.848 192.732 665.523 189.167 668.087 181.045C675.165 176.163 677.202 170.699 672.327 163.905C672.636 163.468 672.939 163.014 673.208 162.639C691.594 162.353 696.549 134.788 694.455 128.073C691.828 119.509 683.668 123.085 683.165 120.226C684.622 118.875 686 117.443 687.29 115.938C689.151 115.199 690.968 114.359 692.732 113.422C695.359 114.778 689.356 121.269 696.858 126.369C702.729 130.399 731.026 134.317 736.994 117.283C737.44 117.149 737.978 117.009 738.493 116.852C743.58 123.499 749.514 123.292 756.45 118.214C765.108 118.332 770.035 115.086 770.183 106.785C770.698 106.612 771.213 106.415 771.66 106.264C786.698 116.622 807.252 97.1729 809.587 90.5367C812.602 82.0956 803.865 80.2908 805.163 77.6845C807.156 77.4195 809.131 77.0452 811.08 76.5635C813.029 77.0415 815.002 77.4157 816.991 77.6845C818.302 80.2908 809.552 82.0844 812.557 90.531C814.891 97.1729 835.446 116.628 850.484 106.287L851.954 106.808C852.08 115.109 857.007 118.36 865.688 118.242C872.618 123.326 878.552 123.533 883.639 116.897C884.159 117.048 884.697 117.188 885.144 117.323C891.1 134.362 919.397 130.461 925.268 126.436C932.776 121.341 926.779 114.845 929.405 113.489C931.17 114.427 932.987 115.269 934.847 116.011C936.138 117.516 937.516 118.948 938.973 120.299C938.464 123.163 930.31 119.581 927.672 128.146C925.577 134.872 930.533 162.426 948.901 162.723C949.164 163.098 949.473 163.552 949.777 163.989C944.901 170.783 946.915 176.247 954.005 181.135C956.563 189.24 961.238 192.827 969.341 190.383C969.673 190.809 970.016 191.229 970.302 191.594C964.895 208.807 990.13 221.945 997.294 222.073C1006.45 222.27 1005.47 213.56 1008.41 213.98C1009.27 215.753 1010.24 217.479 1011.3 219.148C1011.44 221.108 1011.7 223.06 1012.06 224.994C1009.93 227.023 1005.48 219.428 998.21 224.837C992.488 229.063 979.939 254.207 994.633 265.03C994.633 265.489 994.599 266.033 994.582 266.565C986.571 269.25 984.929 274.844 987.715 282.87C984.923 290.896 986.571 296.49 994.582 299.181C994.582 299.741 994.616 300.257 994.628 300.711C979.927 311.528 992.459 336.678 998.181 340.909C1005.45 346.324 1009.9 338.735 1012.03 340.758C1011.66 342.691 1011.41 344.643 1011.26 346.604C1010.2 348.275 1009.23 350.002 1008.37 351.777C1005.43 352.187 1006.39 343.482 997.26 343.673C990.096 343.796 964.855 356.917 970.245 374.136C969.965 374.5 969.616 374.92 969.284 375.341C961.187 372.897 956.506 376.462 953.948 384.583C946.87 389.465 944.833 394.93 949.708 401.723C949.399 402.16 949.096 402.614 948.827 402.99C930.441 403.276 925.486 430.841 927.574 437.555C930.206 446.12 938.366 442.544 938.87 445.402C937.413 446.754 936.035 448.185 934.744 449.69C932.883 450.43 931.064 451.27 929.297 452.207C926.676 450.85 932.678 444.36 925.171 439.259C919.306 435.229 891.009 431.312 885.041 448.345C884.594 448.479 884.056 448.62 883.541 448.777C878.454 442.129 872.515 442.336 865.585 447.415C856.927 447.297 852 450.542 851.852 458.843C851.337 459.017 850.816 459.213 850.375 459.364C835.331 449.006 814.783 468.456 812.442 475.092C809.432 483.533 818.165 485.338 816.871 487.944C814.879 488.209 812.904 488.583 810.954 489.065C809.007 488.584 807.033 488.209 805.043 487.944C803.733 485.338 812.482 483.538 809.472 475.092C807.143 468.45 786.583 448.995 771.551 459.336L770.08 458.815C769.954 450.514 765.027 447.263 756.347 447.381C749.417 442.297 743.483 442.09 738.39 448.726C737.875 448.575 737.337 448.435 736.891 448.3C730.934 431.261 702.638 435.162 696.767 439.186C689.259 444.281 695.256 450.777 692.629 452.134C690.865 451.195 689.048 450.355 687.188 449.617C685.896 448.109 684.519 446.674 683.062 445.318C683.571 442.46 691.725 446.041 694.363 437.471C696.458 430.745 691.502 403.192 673.134 402.894C672.87 402.519 672.561 402.065 672.258 401.628C677.133 394.835 675.119 389.37 668.029 384.482C665.472 376.378 660.796 372.79 652.694 375.234C652.362 374.808 652.018 374.388 651.732 374.023C657.14 356.811 631.905 343.673 624.74 343.544C615.585 343.348 616.563 352.058 613.628 351.637C612.761 349.864 611.794 348.139 610.732 346.47C610.591 344.509 610.339 342.557 609.977 340.624C612.1 338.595 616.552 346.201 623.825 340.792Z" fill="url(#paint18_radial_308_2675)"/>
<path d="M528.58 372.598C523.316 419.752 552.929 446.51 585.923 442.884C572.19 472.483 588.99 508.355 636.399 518.046C660.433 559.231 700.454 563.827 724.963 541.901C731.612 573.759 766.735 593.096 810.905 573.647C855.064 593.124 890.199 573.81 896.871 541.951C921.368 563.9 961.39 559.326 985.452 518.158C1032.87 508.49 1049.7 472.635 1035.98 443.052C1068.97 446.701 1098.6 419.96 1093.36 372.805C1125.92 337.685 1118.02 298.988 1089.15 282.93C1118.03 266.889 1125.96 228.192 1093.43 193.055C1098.69 145.9 1069.08 119.142 1036.08 122.769C1049.82 93.169 1033.02 57.2974 985.606 47.6065C961.573 6.42136 921.551 1.82531 897.043 23.7518C890.388 -8.10665 855.27 -27.4437 811.1 -7.99456C766.941 -27.4717 731.807 -8.15711 725.134 23.7014C700.637 1.75243 660.616 6.32607 636.554 47.4944C589.139 57.1629 572.31 93.0177 586.026 122.601C553.037 118.952 523.407 145.693 528.643 192.847C496.084 227.968 503.986 266.664 532.849 282.723C503.975 298.764 496.049 337.472 528.58 372.598ZM544.248 282.728C503.282 270.167 507.957 221.197 524.792 210.475C533.507 204.915 541.902 201.765 549.226 199.405C544.717 193.279 539.819 185.892 536.117 176.374C528.964 158.018 554.594 115.723 595.262 129.175C569.66 95.4278 602.827 58.5025 622.86 59.5058C633.246 60.0214 641.933 62.3082 649.274 64.6175C649.303 57.0676 649.772 48.2734 652.485 38.4368C657.715 19.4696 703.83 0.00928211 728.665 34.3059C728.202 -7.73114 777.19 -18.515 792.8 -6.16734C800.892 0.227898 806.534 7.07711 811.111 13.1753C815.689 7.08271 821.326 0.239084 829.423 -6.15616C845.039 -18.487 894.021 -7.68629 893.512 34.3564C918.364 0.0765553 964.468 19.5649 969.687 38.5376C972.394 48.3743 972.857 57.1685 972.88 64.7183C980.222 62.4147 988.902 60.1335 999.294 59.6235C1019.32 58.637 1052.48 95.5792 1026.85 129.31C1067.53 115.858 1093.13 158.192 1085.96 176.548C1082.26 186.077 1077.38 193.447 1072.84 199.573C1080.16 201.933 1088.56 205.089 1097.26 210.654C1114.07 221.388 1118.72 270.358 1077.74 282.896C1118.71 295.457 1114.03 344.427 1097.2 355.15C1088.48 360.71 1080.09 363.86 1072.76 366.219C1077.27 372.346 1082.16 379.733 1085.87 389.25C1093.02 407.606 1067.39 449.901 1026.73 436.449C1052.33 470.197 1019.16 507.122 999.128 506.119C988.736 505.603 980.056 503.316 972.714 501.007C972.714 508.557 972.216 517.351 969.504 527.188C964.274 546.155 918.158 565.615 893.323 531.319C893.787 573.356 844.798 584.14 829.188 571.792C821.097 565.397 815.455 558.547 810.877 552.455C806.299 558.542 800.657 565.385 792.566 571.781C776.95 584.112 727.967 573.311 728.476 531.268C703.619 565.548 657.52 546.06 652.301 527.087C649.595 517.25 649.131 508.456 649.108 500.906C641.761 503.21 633.086 505.491 622.694 506.001C602.666 506.988 569.512 470.045 595.142 436.315C554.456 449.767 528.855 407.432 536.025 389.076C539.733 379.548 544.637 372.177 549.146 366.051C541.827 363.692 533.433 360.536 524.723 354.97C507.934 344.231 503.288 295.266 544.248 282.728Z" fill="url(#paint19_radial_308_2675)"/>
<path d="M1201.4 192.779C1201.4 192.779 1229.67 174.081 1230.19 198.384C1256.01 197.616 1247.02 214.319 1248.35 216.426C1252.57 223.119 1271.05 220.238 1259.22 241.581C1257.58 244.546 1267.24 245.398 1265.36 254.181C1263.33 263.648 1250.43 261.832 1250.43 261.832C1250.43 261.832 1270.26 210.536 1201.4 192.779Z" fill="url(#paint20_radial_308_2675)"/>
<path d="M1072.81 -14.7849C1072.81 -14.7849 1084.46 -46.1726 1099.48 -26.8243C1119.91 -42.3052 1122.66 -23.6239 1125 -22.6823C1132.44 -19.6949 1145.65 -32.6647 1148.89 -8.59146C1149.34 -5.22849 1157.69 -10.1328 1161.42 -1.93839C1165.43 6.9006 1153.93 12.8475 1153.93 12.8475C1153.93 12.8475 1139.17 -40.0688 1072.81 -14.7849Z" fill="url(#paint21_radial_308_2675)"/>
<path d="M441.135 130.879C441.135 130.879 407.036 129.758 421.205 109.766C399.861 95.5179 417.148 87.1833 417.342 84.7116C417.949 76.8647 401.263 68.5525 423.637 58.0993C426.75 56.6476 419.425 50.3813 426.229 44.3672C433.565 37.8823 442.904 46.7773 442.904 46.7773C442.904 46.7773 396.084 76.8759 441.135 130.879Z" fill="url(#paint22_radial_308_2675)"/>
<path d="M420.6 372.843C420.6 372.843 392.332 391.541 391.806 367.238C365.987 368 374.977 351.297 373.649 349.19C369.432 342.497 350.943 345.378 362.777 324.04C364.425 321.07 354.765 320.218 356.631 311.435C358.674 301.968 371.566 303.784 371.566 303.784C371.566 303.784 351.744 355.086 420.6 372.843Z" fill="url(#paint23_radial_308_2675)"/>
<path d="M1179.09 518.848C1179.09 518.848 1188.43 527.743 1195.77 521.258C1202.57 515.244 1195.25 508.978 1198.36 507.526C1220.73 497.073 1204.05 488.755 1204.66 480.914C1204.84 478.442 1222.14 470.108 1200.79 455.86C1214.96 435.889 1180.86 434.746 1180.86 434.746C1225.91 488.75 1179.09 518.848 1179.09 518.848Z" fill="url(#paint24_radial_308_2675)"/>
<path d="M1201.34 373.087C1201.34 373.087 1229.6 391.808 1230.14 367.483C1255.96 368.262 1246.98 351.553 1248.31 349.451C1252.53 342.759 1271.01 345.646 1259.19 324.302C1257.54 321.331 1267.2 320.485 1265.34 311.702C1263.31 302.23 1250.41 304.046 1250.41 304.046C1250.41 304.046 1270.21 355.409 1201.34 373.087Z" fill="url(#paint25_radial_308_2675)"/>
<path d="M1180.97 131.116C1180.97 131.116 1215.06 129.995 1200.91 110.013C1222.26 95.7764 1204.98 87.4306 1204.79 84.9589C1204.22 77.1119 1220.87 68.811 1198.49 58.3466C1195.39 56.8893 1202.71 50.6286 1195.91 44.6089C1188.58 38.1184 1179.24 47.0134 1179.24 47.0134C1179.24 47.0134 1226.05 77.14 1180.97 131.116Z" fill="url(#paint26_radial_308_2675)"/>
<path d="M549.398 -14.9571C549.398 -14.9571 537.776 -46.3448 522.749 -27.0133C502.326 -42.5054 499.563 -23.8241 497.222 -22.8881C489.783 -19.9006 476.576 -32.8817 473.32 -8.80846C472.874 -5.44549 464.531 -10.3554 460.783 -2.16101C456.749 6.67238 468.267 12.6304 468.267 12.6304C468.267 12.6304 483.019 -40.2746 549.398 -14.9571Z" fill="url(#paint27_radial_308_2675)"/>
<path d="M420.644 192.539C420.644 192.539 392.381 173.818 391.843 198.144C366.025 197.365 374.997 214.073 373.67 216.175C369.452 222.867 350.969 219.981 362.797 241.324C364.44 244.295 354.757 245.141 356.646 253.924C358.677 263.397 371.575 261.581 371.575 261.581C371.575 261.581 351.793 210.239 420.644 192.539Z" fill="url(#paint28_radial_308_2675)"/>
<path d="M423.505 507.3C426.612 508.757 419.288 515.018 426.086 521.037C433.416 527.528 442.76 518.633 442.76 518.633C442.76 518.633 395.958 488.506 441.044 434.559C441.044 434.559 406.95 435.68 421.102 455.661C399.746 469.898 417.033 478.243 417.222 480.715C417.811 488.506 401.125 496.813 423.505 507.3Z" fill="url(#paint29_radial_308_2675)"/>
<path d="M1255.39 182.559C1250.41 158.643 1195.88 176.792 1185.07 187.307C1204.24 151.687 1269.35 147.825 1270.99 187.015C1271.5 199.128 1254.74 207.524 1241.56 198.186C1228.83 189.156 1239.73 168.031 1255.39 182.559Z" fill="url(#paint30_radial_308_2675)"/>
<path d="M391.319 108.074C381.019 130.292 435.993 146.995 451.06 144.719C414.18 162.498 359.194 128.14 381.374 95.4908C388.241 85.4019 406.832 88.2492 411.885 103.388C416.766 118.028 395.273 128.846 391.319 108.074Z" fill="url(#paint31_radial_308_2675)"/>
<path d="M366.61 383.07C371.6 406.987 426.122 388.838 436.931 378.323C417.767 413.942 352.659 417.804 351.011 378.614C350.508 366.502 367.262 358.106 380.441 367.444C393.178 376.473 382.306 397.598 366.61 383.07Z" fill="url(#paint32_radial_308_2675)"/>
<path d="M1230.69 457.549C1240.99 435.331 1186.01 418.634 1170.95 420.904C1207.83 403.125 1262.81 437.483 1240.63 470.132C1233.77 480.221 1215.17 477.374 1210.12 462.235C1205.24 447.595 1226.73 436.777 1230.69 457.549Z" fill="url(#paint33_radial_308_2675)"/>
<path d="M1255.32 383.349C1250.32 407.26 1195.81 389.078 1185.01 378.557C1204.15 414.188 1269.25 418.089 1270.92 378.905C1271.44 366.793 1254.69 358.38 1241.51 367.695C1228.77 376.736 1239.65 397.866 1255.32 383.349Z" fill="url(#paint34_radial_308_2675)"/>
<path d="M1230.8 108.34C1241.1 130.569 1186.1 147.232 1171.04 144.946C1207.9 162.753 1262.91 128.428 1240.75 95.7623C1233.88 85.6734 1215.3 88.4759 1210.23 103.643C1205.34 118.277 1226.83 129.106 1230.8 108.34Z" fill="url(#paint35_radial_308_2675)"/>
<path d="M366.677 182.276C371.684 158.365 426.188 176.548 436.992 187.068C417.851 151.438 352.749 147.537 351.072 186.721C350.557 198.833 367.312 207.246 380.49 197.931C393.234 188.89 382.35 167.759 366.677 182.276Z" fill="url(#paint36_radial_308_2675)"/>
<path d="M391.204 457.288C380.904 435.058 435.901 418.395 450.967 420.682C414.099 402.875 359.091 437.199 381.253 469.865C388.12 479.954 406.706 477.152 411.764 461.985C416.64 447.328 395.175 436.521 391.204 457.288Z" fill="url(#paint37_radial_308_2675)"/>
<path d="M1262.39 139.321C1258.55 142.645 1253.24 145.487 1246.2 147.09C1224.05 152.213 1217.23 160.486 1217.23 160.486C1217.51 157.628 1218.61 154.906 1220.41 152.639C1217.6 151.848 1215.08 150.293 1213.15 148.155C1213.15 148.155 1223.63 150.957 1244.62 142.337C1251.24 139.618 1257.24 138.839 1262.39 139.321Z" fill="url(#paint38_radial_308_2675)"/>
<path d="M1262.27 426.59C1257.17 427.067 1251.15 426.276 1244.53 423.552C1223.54 414.949 1213.06 417.718 1213.06 417.718C1215 415.579 1217.52 414.024 1220.32 413.234C1218.53 410.965 1217.43 408.244 1217.15 405.387C1217.15 405.387 1223.97 413.665 1246.11 418.799C1253.09 420.425 1258.43 423.261 1262.27 426.59Z" fill="url(#paint39_radial_308_2675)"/>
<path d="M359.634 426.301C363.479 422.977 368.818 420.136 375.828 418.533C397.973 413.41 404.794 405.137 404.794 405.137C404.517 407.994 403.415 410.716 401.618 412.984C404.423 413.774 406.942 415.329 408.88 417.468C408.88 417.468 398.396 414.665 377.407 423.286C370.758 426.026 364.744 426.783 359.634 426.301Z" fill="url(#paint40_radial_308_2675)"/>
<path d="M359.731 139.056C364.836 138.58 370.85 139.37 377.47 142.094C398.46 150.697 408.943 147.929 408.943 147.929C407.003 150.065 404.486 151.62 401.681 152.413C403.476 154.681 404.576 157.402 404.852 160.26C404.852 160.26 398.036 151.981 375.897 146.847C368.91 145.221 363.571 142.363 359.731 139.056Z" fill="url(#paint41_radial_308_2675)"/>
<path d="M1113.66 186.59C1112.05 191.474 1111.32 196.595 1111.52 201.723C1110.12 197.259 1109.41 192.616 1109.4 187.947C1106.6 184.166 1104.4 179.999 1102.85 175.582C1105.77 179.839 1109.43 183.564 1113.66 186.59Z" fill="url(#paint42_radial_308_2675)"/>
<path d="M1113.61 379.223C1109.38 382.245 1105.72 385.969 1102.8 390.226C1104.35 385.81 1106.56 381.643 1109.36 377.861C1109.36 373.193 1110.08 368.552 1111.48 364.09C1111.29 369.217 1112.01 374.338 1113.61 379.223Z" fill="url(#paint43_radial_308_2675)"/>
<path d="M1005.31 521.555C1001.5 524.358 998.13 527.699 995.32 531.47C990.788 532.918 986.501 535.019 982.6 537.702C987.518 535.937 992.714 535.03 997.952 535.023C999.582 530.148 1002.07 525.589 1005.31 521.555Z" fill="url(#paint44_radial_308_2675)"/>
<path d="M639.238 537.569C635.339 534.886 631.054 532.786 626.524 531.336C623.718 527.561 620.355 524.216 616.544 521.41C619.773 525.441 622.257 529.993 623.886 534.862C629.125 534.882 634.321 535.798 639.238 537.569Z" fill="url(#paint45_radial_308_2675)"/>
<path d="M508.343 379.032C509.951 374.148 510.675 369.026 510.483 363.898C511.881 368.363 512.595 373.006 512.6 377.675C515.397 381.458 517.603 385.627 519.146 390.046C516.228 385.786 512.572 382.058 508.343 379.032Z" fill="url(#paint46_radial_308_2675)"/>
<path d="M508.408 186.401C512.641 183.379 516.301 179.656 519.223 175.398C517.673 179.814 515.463 183.981 512.666 187.763C512.656 192.431 511.94 197.072 510.543 201.534C510.733 196.407 510.011 191.286 508.408 186.401Z" fill="url(#paint47_radial_308_2675)"/>
<path d="M624.046 30.6011C629.285 30.5934 634.481 29.6867 639.399 27.9219C635.497 30.6048 631.211 32.7053 626.679 34.1546C623.869 37.9249 620.504 41.2663 616.693 44.0697C619.929 40.0353 622.417 35.4768 624.046 30.6011Z" fill="url(#paint48_radial_308_2675)"/>
<path d="M998.11 30.7189C999.743 35.5869 1002.23 40.1389 1005.46 44.1708C1001.65 41.365 998.283 38.0196 995.478 34.2444C990.948 32.795 986.663 30.6945 982.763 28.0117C987.678 29.7832 992.872 30.6994 998.11 30.7189Z" fill="url(#paint49_radial_308_2675)"/>
<path d="M1205.36 408.458C1201.88 405.61 1196.2 404.349 1189.87 403.52C1195.5 406.513 1200.84 408.755 1205.36 408.458Z" fill="url(#paint50_radial_308_2675)"/>
<path d="M1133.01 495.488C1127.52 498.336 1124.91 501.766 1123.74 505.521C1120.46 507.763 1117.93 511.255 1116.87 517.247C1122.44 516.097 1127.87 514.392 1133.08 512.157C1133.63 506.613 1133.61 501.028 1133.01 495.488Z" fill="url(#paint51_radial_308_2675)"/>
<path d="M1189.95 162.343C1196.31 161.519 1201.97 160.264 1205.44 157.422C1200.93 157.119 1195.59 159.356 1189.95 162.343Z" fill="url(#paint52_radial_308_2675)"/>
<path d="M1170.65 195.19C1164.76 197.158 1169.36 205.632 1166.86 206.4C1163.76 204.534 1157.04 200.795 1154.02 202.028C1150.1 203.62 1132.57 217.655 1129.49 233.416C1127.45 243.595 1140.08 242.3 1141.31 245.439C1126.33 266.782 1159.76 272.533 1171.87 269.372C1197.94 262.562 1183.25 249.979 1183.51 249.323C1199.2 249.979 1186.63 216.697 1168.17 225.922C1166.67 226.668 1167.12 228.456 1167.91 230.025C1160.19 231.992 1164.08 238.601 1168.66 236.336C1171.57 234.935 1182.32 235.557 1176.9 249.065C1161.92 265.88 1133.25 243.78 1152.64 221.679C1181.04 191.771 1230.34 221.831 1227.57 266.104C1222.27 252.529 1205.02 239.615 1205.02 239.615C1198.12 264.277 1229.49 257.237 1224.19 282.969C1229.47 308.707 1198.1 301.634 1205 326.318C1205 326.318 1222.25 313.427 1227.56 299.84C1230.3 344.119 1180.98 374.139 1152.6 344.215C1133.22 322.103 1161.9 300.014 1176.87 316.851C1182.29 330.359 1171.54 330.976 1168.63 329.569C1164.05 327.327 1160.15 333.907 1167.87 335.88C1167.08 337.449 1166.63 339.243 1168.12 339.983C1186.58 349.225 1199.18 315.943 1183.48 316.593C1183.22 315.938 1197.92 303.36 1171.85 296.539C1159.75 293.367 1126.31 299.095 1141.28 320.45C1140.04 323.588 1127.41 322.288 1129.45 332.467C1132.52 348.205 1150.05 362.251 1153.96 363.854C1156.97 365.087 1163.69 361.349 1166.8 359.488C1169.3 360.256 1164.7 368.719 1170.59 370.698C1178.27 373.259 1191.9 375.821 1205.37 369.577C1210.88 367.038 1210.66 355.996 1210.32 351.344C1212.65 349.556 1216.24 357.577 1224.05 352.964C1230.21 349.365 1245.44 325.69 1232.02 313.382C1232.08 312.928 1232.17 312.39 1232.24 311.863C1244.37 309.189 1243.52 298.848 1235.72 282.986C1243.53 267.13 1244.39 256.789 1232.28 254.11C1232.21 253.583 1232.12 253.045 1232.07 252.591C1245.49 240.26 1230.27 216.601 1224.12 213.003C1216.3 208.379 1212.7 216.399 1210.38 214.611C1210.73 209.959 1210.96 198.918 1205.45 196.379C1191.96 190.062 1178.33 192.635 1170.65 195.19Z" fill="url(#paint53_radial_308_2675)"/>
<path d="M1199.13 296.38C1202.94 292.245 1206.32 287.737 1209.19 282.928C1206.32 278.121 1202.95 273.614 1199.14 269.477C1196.4 274.936 1196.36 279.218 1197.66 282.928C1196.35 286.639 1196.4 290.949 1199.13 296.38Z" fill="url(#paint54_radial_308_2675)"/>
<path d="M1094.72 501.651C1086.83 492.123 1056.35 477.5 1055.64 503.394C1052.78 505.216 1043.32 496.893 1038.86 506.303C1031.9 520.809 1037.65 542.253 1039.86 545.801C1041.58 548.537 1049.24 549.389 1052.87 549.663C1054.43 551.726 1045.62 555.924 1049.2 560.912C1053.89 567.403 1063.37 577.324 1078.02 580.025C1084.01 581.146 1090.45 572.089 1092.96 568.126C1095.93 568.025 1094.02 576.578 1103.11 577.352C1110.25 577.985 1136.79 567.599 1133.32 549.887L1134.41 548.766C1145.82 553.581 1151.34 544.731 1154.55 527.406C1170.38 519.077 1177.28 511.202 1169.08 502.049C1169.34 501.584 1169.59 501.096 1169.81 500.698C1188.06 498.456 1189.96 470.549 1187.14 464.093C1183.59 455.853 1175.87 460.27 1175.05 457.479C1178.13 453.92 1184.94 445.148 1182 439.885C1174.86 427.072 1162.3 421.288 1154.53 418.934C1148.58 417.134 1147.22 426.635 1144.73 425.816C1143.35 422.521 1140.15 415.621 1136.97 414.881C1132.85 413.923 1110.24 415.178 1098.31 426.141C1090.54 433.198 1101.53 439.42 1100.65 442.67C1075.73 451.319 1099.32 475.213 1111.02 479.624C1136.19 489.152 1131.86 470.488 1132.46 470.095C1144.77 479.663 1154.57 445.49 1134.09 442.329C1132.43 442.071 1131.73 443.78 1131.43 445.507C1123.99 442.648 1123.18 450.232 1128.25 451.039C1131.44 451.599 1139.76 458.275 1127.27 466.077C1105.05 471.059 1095.13 436.673 1124.08 429.958C1165 422.112 1186.85 474.798 1158.04 509.033C1161.9 495.021 1155.7 474.624 1155.7 474.624C1135.3 490.61 1164.91 502.968 1145.18 520.736C1134.01 544.596 1112.88 520.82 1103.65 544.753C1103.65 544.753 1125.34 544.243 1137.78 536.346C1113.43 573.742 1055.52 569.639 1050.51 529.059C1048.11 500.015 1084.56 498.658 1086.56 520.899C1082.83 534.945 1073.76 529.25 1072.26 526.442C1069.91 521.958 1062.79 525.074 1067.86 531.116C1066.27 531.924 1064.83 533.112 1065.6 534.575C1074.98 552.679 1105.15 533.011 1092.06 524.486C1092.27 523.892 1111.71 522.177 1094.72 501.651Z" fill="url(#paint55_radial_308_2675)"/>
<path d="M434.748 463.907C431.927 470.358 433.803 498.288 452.052 500.524C452.275 500.922 452.527 501.41 452.784 501.875C444.578 511.017 451.462 518.897 467.302 527.237C470.489 544.568 476.011 553.424 487.427 548.609C487.799 548.996 488.194 549.382 488.514 549.73C485.029 567.413 511.563 577.811 518.699 577.194C527.797 576.426 525.898 567.873 528.856 567.974C531.368 571.942 537.806 581 543.797 579.885C558.44 577.189 567.939 567.279 572.62 560.788C576.202 555.8 567.395 551.596 568.963 549.539C572.591 549.265 580.276 548.418 581.976 545.689C584.19 542.141 589.947 520.696 582.994 506.191C578.542 496.774 569.101 505.07 566.222 503.265C565.53 477.376 535.036 491.971 527.139 501.499C510.133 522.013 529.566 523.74 529.743 524.418C516.656 532.926 546.801 552.611 556.203 534.507C556.97 533.038 555.527 531.856 553.942 531.043C559.012 525.007 551.905 521.896 549.548 526.369C548.043 529.171 538.967 534.86 535.242 520.814C537.273 498.574 573.73 499.958 571.292 528.997C566.262 569.549 508.347 573.613 484.016 536.2C496.451 544.131 518.15 544.652 518.15 544.652C508.931 520.713 487.782 544.472 476.629 520.607C456.916 502.828 486.528 490.491 466.146 474.489C466.146 474.489 459.931 494.863 463.782 508.898C434.994 474.657 456.876 421.971 497.796 429.868C526.739 436.594 516.788 470.981 494.574 465.986C482.088 458.173 490.42 451.481 493.607 450.948C498.683 450.141 497.864 442.541 490.431 445.411C490.133 443.679 489.43 441.975 487.77 442.233C467.29 445.383 477.069 479.556 489.378 470C489.985 470.375 485.641 489.012 510.825 479.528C522.521 475.117 546.132 451.24 521.211 442.58C520.33 439.324 531.322 433.108 523.569 426.051C511.638 415.082 489.035 413.804 484.909 414.769C481.727 415.503 478.529 422.402 477.138 425.693C474.655 426.516 473.299 417.01 467.353 418.81C459.599 421.158 447.039 426.931 439.886 439.739C436.951 444.974 443.749 453.751 446.822 457.338C446.026 460.09 438.307 455.668 434.748 463.907Z" fill="url(#paint56_radial_308_2675)"/>
<path d="M488.854 495.289C488.247 500.828 488.224 506.414 488.785 511.958C493.995 514.195 499.425 515.904 504.99 517.059C503.92 511.067 501.391 507.575 498.124 505.328C496.945 501.572 494.341 498.136 488.854 495.289Z" fill="url(#paint57_radial_308_2675)"/>
<path d="M432.058 403.281C425.7 404.105 420.041 405.361 416.567 408.202C421.082 408.505 426.421 406.269 432.058 403.281Z" fill="url(#paint58_radial_308_2675)"/>
<path d="M488.988 70.1139C494.481 67.2665 497.085 63.8363 498.258 60.081C501.536 57.839 504.071 54.3472 505.124 48.3555C499.56 49.5059 494.13 51.2093 488.919 53.4392C488.36 58.9851 488.383 64.5725 488.988 70.1139Z" fill="url(#paint59_radial_308_2675)"/>
<path d="M446.968 108.093C443.895 111.652 437.086 120.424 440.027 125.687C447.163 138.5 459.723 144.284 467.494 146.638C473.445 148.437 474.801 138.937 477.285 139.755C478.675 143.051 481.863 149.951 485.05 150.69C489.176 151.649 511.779 150.393 523.715 139.43C531.48 132.373 520.488 126.152 521.369 122.901C546.295 114.253 522.702 90.3588 511.006 85.9477C485.828 76.4193 490.16 95.0838 489.559 95.4761C477.256 85.9085 467.454 120.082 487.934 123.243C489.593 123.501 490.297 121.797 490.595 120.065C498.034 122.924 498.846 115.34 493.776 114.533C490.583 113.972 482.257 107.297 494.743 99.4949C516.969 94.5121 526.897 128.898 497.942 135.613C457.022 143.46 435.175 90.7736 463.986 56.5386C460.124 70.551 466.327 90.9473 466.327 90.9473C486.721 74.962 457.114 62.6031 476.838 44.8355C488.008 20.9752 509.141 44.7514 518.376 20.8183C518.376 20.8183 496.677 21.3283 484.243 29.2257C508.591 -8.17048 566.506 -4.06766 571.508 36.5121C573.917 65.5569 537.454 66.9133 535.457 44.6729C539.188 30.6269 548.258 36.3216 549.763 39.124C552.115 43.608 559.228 40.4972 554.158 34.4551C555.743 33.648 557.185 32.4654 556.447 30.9969C547.056 12.8929 516.894 32.5607 529.981 41.0858C529.798 41.764 510.365 43.4791 527.36 64.0044C535.251 73.5328 565.734 88.1561 566.443 62.2612C569.304 60.4396 578.763 68.763 583.221 59.3523C590.179 44.8467 584.434 23.4022 582.225 19.8542C580.509 17.119 572.841 16.2671 569.219 15.9924C567.651 13.9298 576.463 9.73172 572.881 4.74892C568.2 -1.74721 558.713 -11.6679 544.069 -14.3695C538.078 -15.4905 531.635 -6.43294 529.123 -2.47025C526.159 -2.36936 528.07 -10.9225 518.971 -11.696C511.83 -12.3294 485.296 -1.94339 488.764 15.7402C488.443 16.0709 488.054 16.4576 487.676 16.8612C476.266 12.0465 470.744 20.8967 467.54 38.2216C451.695 46.5506 444.805 54.4255 453.005 63.5784C452.748 64.0436 452.496 64.5312 452.273 64.9292C434.024 67.1712 432.125 95.0782 434.946 101.535C438.425 109.718 446.144 105.302 446.968 108.093Z" fill="url(#paint60_radial_308_2675)"/>
<path d="M626.833 -25.0737C625.981 -21.6098 624.424 -14.1889 626.553 -11.7619C629.317 -8.60075 648.355 3.37141 664.589 1.39287C675.106 0.15419 669.945 -11.207 672.6 -13.3313C697.955 -5.97203 693.2 -38.8899 686.396 -49.2029C671.73 -71.3873 664.045 -53.8158 663.33 -53.855C659.118 -68.6745 630.713 -46.6751 645.356 -32.3265C646.541 -31.1606 648.137 -32.1359 649.413 -33.3634C653.711 -26.7776 658.924 -32.4386 655.307 -36.0089C653.018 -38.2845 650.335 -48.4911 665.121 -47.6167C686.087 -38.8562 673.481 -5.32185 646.032 -16.5542C608.213 -33.7669 622.164 -88.9812 666.008 -100.068C654.478 -90.9373 647.245 -70.8829 647.245 -70.8829C673.338 -72.0711 656.801 -99.115 683.421 -102.136C706.773 -115.027 709.606 -83.6005 731.436 -97.6521C731.436 -97.6521 713.577 -109.731 698.762 -110.482C740.901 -126.736 785.294 -90.0574 765.009 -54.3707C749.524 -29.4848 719.231 -49.3767 730.933 -68.5344C742.377 -77.7489 746.303 -67.9234 745.811 -64.7847C745.027 -59.8075 752.643 -58.2269 752.168 -66.029C753.936 -65.7711 755.813 -65.9001 756.076 -67.5255C759.344 -87.58 723.139 -89.0317 728.61 -74.6101C728.037 -74.1674 711.3 -83.9704 712.73 -57.5767C713.394 -45.3187 729.285 -15.9488 745.399 -36.4853C748.832 -36.3004 751.464 -24.1545 760.717 -29.1989C775.052 -36.9225 783.274 -57.5823 783.606 -61.7076C783.87 -64.9024 778.164 -70.0141 775.395 -72.3233C775.366 -74.8904 785.014 -73.2145 785.123 -79.3127C785.237 -87.2605 783.515 -100.746 773.289 -111.362C769.118 -115.717 758.463 -112.102 754.057 -110.342C751.596 -111.967 758.274 -117.785 751.378 -123.648C745.982 -128.272 718.287 -135.149 710.481 -118.844L708.936 -118.581C702.596 -129.051 692.817 -125.071 679.827 -112.897C662.014 -115.274 651.714 -112.898 652.852 -100.752L651.451 -100.079C635.354 -108.783 617.06 -87.2885 615.463 -80.4617C613.397 -71.7516 622.296 -70.8773 621.277 -68.1308C616.653 -67.0098 605.861 -63.8206 605.1 -57.8962C603.189 -43.4186 609.878 -31.5081 614.731 -25.1409C618.519 -20.2646 625.317 -27.1643 626.833 -25.0737Z" fill="url(#paint61_radial_308_2675)"/>
<path d="M531.537 80.2039C534.896 69.7899 521.025 67.4078 516.945 73.4331C512.367 79.0941 518.942 91.2849 528.018 84.9457C565.785 116.255 534.73 160.943 513.597 162.126C486.308 163.65 469.37 151.796 459.757 158.729C454.698 162.372 455.368 166.806 457.439 170.191C453.725 171.738 450.527 174.939 452.426 180.796C456.037 191.95 476.849 192.118 498.004 209.078C514.387 222.211 512.63 276.225 463.31 279.801C459.774 269.444 447.128 275.502 447.442 282.727C447.128 289.952 459.768 296.017 463.31 285.659C512.63 289.263 514.347 343.283 497.953 356.404C476.78 373.348 455.98 373.51 452.358 384.659C450.458 390.516 453.657 393.716 457.365 395.263C455.288 398.626 454.624 403.11 459.654 406.731C469.267 413.67 486.211 401.827 513.5 403.368C534.633 404.562 565.63 449.273 527.875 480.554C518.799 474.214 512.201 486.394 516.79 492.061C520.87 498.086 534.736 495.715 531.388 485.301C573.452 459.821 607.254 502.536 601.869 522.585C594.917 548.48 578.173 560.592 581.938 571.69C583.913 577.53 588.422 578.276 592.353 577.39C592.702 581.314 594.819 585.293 601.097 585.338C613.039 585.417 619.643 566.085 642.64 551.619C658.457 541.67 701.116 555.027 702.249 591.078H706.758C705.042 553.956 664.923 527.927 610.012 553.597C618.406 491.573 576.485 462.276 538.318 476.748C564.188 445.685 548.726 397.567 485.913 386.183C529.94 340.834 513.609 292.967 474.045 282.705C513.615 272.465 529.986 224.638 485.999 179.266C548.824 167.921 564.308 119.814 538.461 88.729C576.622 103.229 618.572 73.96 610.206 11.9413C667.847 38.9123 709.236 8.91463 706.981 -31.1103C729.15 2.58665 780.644 3.07989 811.127 -51.9438C841.558 3.07429 893.052 2.6371 915.272 -31.0486C912.983 8.97629 954.367 39.0132 1012.02 12.0478C1003.62 74.0777 1045.55 103.375 1083.71 88.9028C1057.84 119.965 1073.3 168.084 1136.12 179.467C1092.1 224.817 1108.44 272.655 1148 282.918C1108.43 293.158 1092.06 340.985 1136.05 386.357C1073.22 397.707 1057.73 445.809 1083.58 476.894C1045.42 462.394 1003.47 491.663 1011.84 553.681C956.976 527.988 916.851 553.95 915.072 591.033H919.581C920.788 555.032 963.413 541.709 979.213 551.68C1002.2 566.158 1008.79 585.501 1020.73 585.428C1027.03 585.389 1029.13 581.42 1029.48 577.486C1033.41 578.371 1037.92 577.626 1039.9 571.791C1043.67 560.693 1026.94 548.57 1020 522.675C1014.63 502.62 1048.46 459.899 1090.51 485.43C1087.15 495.844 1101.02 498.226 1105.1 492.201C1109.68 486.54 1103.11 474.349 1094.03 480.688C1056.26 449.379 1087.32 404.691 1108.45 403.508C1135.74 401.989 1152.67 413.838 1162.29 406.905C1167.34 403.262 1166.68 398.828 1164.58 395.443C1168.29 393.896 1171.49 390.695 1169.59 384.838C1165.98 373.684 1145.16 373.516 1124.01 356.556C1107.63 343.429 1109.39 289.408 1158.71 285.832C1162.24 296.19 1174.89 290.131 1174.58 282.907C1174.89 275.682 1162.25 269.617 1158.71 279.975C1109.39 276.371 1107.67 222.351 1124.07 209.23C1145.24 192.286 1166.04 192.123 1169.66 180.975C1171.56 175.118 1168.36 171.918 1164.65 170.371C1166.73 167.008 1167.4 162.552 1162.37 158.908C1152.75 151.964 1135.81 163.807 1108.52 162.271C1087.39 161.083 1056.39 116.367 1094.15 85.0858C1103.23 91.425 1109.82 79.2454 1105.23 73.5788C1101.15 67.5535 1087.29 69.9244 1090.64 80.3384C1048.57 105.818 1014.77 63.1032 1020.16 43.0543C1027.11 17.1595 1043.85 5.04721 1040.09 -6.05058C1038.11 -11.8853 1033.6 -12.6364 1029.67 -11.7508C1029.32 -15.6742 1027.2 -19.6538 1020.93 -19.6986C1008.99 -19.7771 1002.38 -0.445633 979.384 14.0207C961.571 25.2306 909.664 6.89684 921.435 -40.151C932.582 -40.2463 930.591 -53.9 923.495 -55.8449C916.582 -58.3727 906.786 -48.4688 915.741 -41.9726C897.001 2.86689 844.024 -12.2328 836.35 -31.5587C826.434 -56.5062 832.711 -75.9442 823.006 -82.7654C817.908 -86.347 813.81 -84.3572 811.161 -81.3754C808.512 -84.3572 804.42 -86.347 799.316 -82.771C789.588 -75.961 795.883 -56.5175 785.937 -31.5755C778.252 -12.2552 725.281 2.80524 706.552 -42.0399C715.513 -48.5304 705.723 -58.4399 698.804 -55.9177C691.692 -53.9784 689.712 -40.3248 700.859 -40.2239C712.601 6.85762 660.677 25.1297 642.875 13.9142C619.883 -0.563339 613.297 -19.906 601.354 -19.8331C595.06 -19.7939 592.96 -15.8256 592.605 -11.8909C588.674 -12.7765 584.164 -12.0311 582.185 -6.19631C578.414 4.90147 595.151 17.025 602.087 42.9198C607.42 62.9855 573.584 105.678 531.537 80.2039Z" fill="url(#paint62_radial_308_2675)"/>
<path d="M416.637 157.167C420.11 160.014 425.792 161.275 432.127 162.105C426.496 159.112 421.163 156.87 416.637 157.167Z" fill="url(#paint63_radial_308_2675)"/>
<path d="M422.874 269.242C419.06 273.377 415.689 277.885 412.814 282.694C415.69 287.501 419.059 292.008 422.868 296.146C425.604 290.681 425.649 286.405 424.345 282.694C425.649 278.984 425.609 274.696 422.874 269.242Z" fill="url(#paint64_radial_308_2675)"/>
<path d="M389.744 311.552C389.818 312.078 389.904 312.616 389.961 313.07C376.537 325.401 391.758 349.06 397.91 352.658C405.732 357.282 409.326 349.262 411.643 351.05C411.294 355.702 411.071 366.743 416.581 369.282C430.046 375.538 443.676 372.987 451.361 370.403C457.25 368.436 452.649 359.961 455.155 359.194C458.251 361.06 464.975 364.798 467.99 363.565C471.91 361.968 489.437 347.939 492.516 332.178C494.564 321.999 481.935 323.294 480.699 320.155C495.68 298.811 462.251 293.061 450.143 296.222C424.072 303.032 438.761 315.615 438.498 316.271C422.802 315.615 435.379 348.897 453.845 339.672C455.344 338.926 454.886 337.138 454.091 335.569C461.816 333.601 457.931 326.993 453.341 329.258C450.44 330.659 439.688 330.037 445.107 316.529C460.094 299.714 488.762 321.814 469.369 343.914C440.97 373.822 391.667 343.763 394.442 299.49C399.741 313.065 416.982 325.979 416.982 325.979C423.894 301.317 392.525 308.357 397.818 282.624C392.542 256.887 423.906 263.96 417.011 239.276C417.011 239.276 399.764 252.167 394.453 265.754C391.712 221.475 441.027 191.454 469.415 221.379C488.791 243.491 460.111 265.58 445.136 248.743C439.722 235.235 450.474 234.618 453.381 236.025C457.959 238.267 461.856 231.687 454.131 229.714C454.932 228.144 455.384 226.351 453.885 225.611C435.431 216.368 422.83 249.651 438.526 249C438.784 249.656 424.089 262.234 450.154 269.055C462.262 272.227 495.692 266.499 480.728 245.144C481.97 242.005 494.599 243.306 492.556 233.127C489.489 217.388 471.956 203.343 468.047 201.74C465.032 200.506 458.32 204.239 455.207 206.106C452.706 205.338 457.313 196.874 451.424 194.896C443.745 192.334 430.115 189.773 416.644 196.017C411.128 198.556 411.346 209.598 411.695 214.25C409.36 216.038 405.766 208.017 397.961 212.63C391.804 216.228 376.566 239.904 389.99 252.212C389.927 252.666 389.841 253.204 389.767 253.731C377.641 256.404 378.488 266.746 386.293 282.608C378.448 298.531 377.596 308.884 389.744 311.552Z" fill="url(#paint65_radial_308_2675)"/>
<path d="M1039.01 59.4641C1043.46 68.8804 1052.89 60.5851 1055.78 62.3899C1056.47 88.2791 1086.96 73.6839 1094.86 64.1555C1111.87 43.6414 1092.44 41.915 1092.26 41.2368C1105.34 32.7285 1075.19 13.044 1065.8 31.148C1065.03 32.6164 1066.47 33.7991 1068.09 34.6118C1063.02 40.6483 1070.12 43.7591 1072.48 39.2863C1073.99 36.4839 1083.06 30.7948 1086.78 44.8408C1084.75 67.0812 1048.29 65.6968 1050.73 36.6576C1055.76 -3.89414 1113.68 -7.95771 1138 29.4553C1125.57 21.5243 1103.87 21.003 1103.87 21.003C1113.09 44.9417 1134.24 21.1824 1145.39 45.0482C1165.11 62.8271 1135.5 75.1636 1155.88 91.1657C1155.88 91.1657 1162.09 70.7917 1158.24 56.7569C1187.03 90.9975 1165.15 143.684 1124.23 135.787C1095.28 129.061 1105.23 94.6744 1127.45 99.6684C1139.94 107.482 1131.6 114.174 1128.42 114.706C1123.34 115.514 1124.16 123.114 1131.59 120.244C1131.89 121.976 1132.59 123.68 1134.25 123.422C1154.73 120.272 1144.95 86.0988 1132.65 95.6553C1132.04 95.2797 1136.38 76.6433 1111.2 86.1268C1099.5 90.5379 1075.89 114.415 1100.81 123.075C1101.69 126.331 1090.7 132.547 1098.45 139.604C1110.39 150.572 1132.99 151.85 1137.11 150.886C1140.3 150.152 1143.49 143.252 1144.89 139.962C1147.37 139.138 1148.72 148.644 1154.67 146.845C1162.42 144.497 1174.98 138.724 1182.14 125.916C1185.08 120.681 1178.27 111.876 1175.21 108.317C1176.02 105.514 1183.74 109.948 1187.3 101.709C1190.12 95.2573 1188.24 67.3279 1169.99 65.0915C1169.77 64.6935 1169.52 64.2059 1169.26 63.7407C1177.47 54.599 1170.58 46.7185 1154.74 38.3783C1151.55 21.0479 1146.04 12.192 1134.62 17.0067C1134.25 16.62 1133.85 16.2332 1133.53 15.8857C1137.01 -1.79789 1110.48 -12.1951 1103.35 -11.5785C1094.25 -10.8106 1096.15 -2.25749 1093.18 -2.35838C1090.68 -6.32667 1084.24 -15.3843 1078.25 -14.2689C1063.6 -11.5729 1054.11 -1.66336 1049.43 4.82717C1045.84 9.81557 1054.65 14.0193 1053.08 16.0763C1049.46 16.3509 1041.77 17.1973 1040.07 19.9269C1037.81 23.5084 1032.05 44.9529 1039.01 59.4641Z" fill="url(#paint66_radial_308_2675)"/>
<path d="M1133.15 70.336C1133.75 64.7965 1133.77 59.211 1133.21 53.6669C1128 51.4301 1122.57 49.721 1117.01 48.5664C1118.07 54.5581 1120.6 58.05 1123.88 60.2975C1125.05 64.0529 1127.66 67.4887 1133.15 70.336Z" fill="url(#paint67_radial_308_2675)"/>
<path d="M846.766 -72.2991C843.996 -69.9898 838.285 -64.8837 838.554 -61.6889C838.892 -57.5469 847.098 -36.8814 861.443 -29.1466C870.691 -24.1022 873.34 -36.2593 876.768 -36.4331C892.864 -15.8797 908.772 -45.244 909.448 -57.502C910.89 -83.8901 894.135 -74.0983 893.58 -74.5467C899.067 -88.9626 862.863 -87.5333 866.113 -67.4788C866.376 -65.8534 868.253 -65.7245 870.021 -65.9823C869.54 -58.1802 877.157 -59.7552 876.379 -64.7268C875.915 -67.8656 879.812 -77.691 891.256 -68.4709C902.959 -49.3076 872.636 -29.4381 857.169 -54.3296C836.906 -90.0275 881.323 -126.667 923.456 -110.379C908.641 -109.634 890.77 -97.5662 890.77 -97.5662C912.595 -83.5034 915.444 -114.902 938.791 -102.022C965.411 -98.9842 948.857 -71.9516 974.95 -70.7465C974.95 -70.7465 967.752 -90.801 956.21 -99.9427C1000.05 -88.8168 1013.96 -33.5969 976.135 -16.429C948.668 -5.21912 936.079 -38.7535 957.068 -47.5028C971.855 -48.366 969.131 -38.1594 966.871 -35.8894C963.254 -32.319 968.467 -26.6524 972.764 -33.2382C974.04 -32.0107 975.626 -31.0355 976.821 -32.2013C991.499 -46.5388 963.088 -68.555 958.859 -53.7411C958.144 -53.6963 950.476 -71.2734 935.793 -49.1002C928.978 -38.7983 924.205 -5.88612 949.566 -13.2286C952.227 -11.1043 947.06 0.256912 957.577 1.50121C973.806 3.50217 992.855 -8.47559 995.619 -11.6312C997.754 -14.0581 996.191 -21.4791 995.35 -24.9429C996.867 -27.0336 1003.66 -20.1283 1007.4 -25.0046C1012.26 -31.3718 1018.96 -43.2711 1017.05 -57.7543C1016.29 -63.6787 1005.51 -66.8847 1000.88 -67.9945C999.871 -70.7241 1008.77 -71.5929 1006.7 -80.3254C1005.11 -87.1746 986.836 -108.686 970.733 -99.9875C970.31 -100.184 969.817 -100.43 969.331 -100.66C970.475 -112.784 960.175 -115.194 942.362 -112.823C929.384 -125.002 919.605 -128.993 913.259 -118.523C912.721 -118.624 912.177 -118.708 911.714 -118.792C903.92 -135.102 876.235 -128.242 870.822 -123.624C863.915 -117.766 870.593 -111.937 868.133 -110.317C863.727 -112.077 853.077 -115.704 848.906 -111.349C838.669 -100.739 836.935 -87.2475 837.044 -79.3053C837.152 -73.1959 846.8 -74.8661 846.766 -72.2991Z" fill="url(#paint68_radial_308_2675)"/>
<path d="M626.833 -25.0737C625.981 -21.6098 624.424 -14.1889 626.553 -11.7619C629.317 -8.60075 648.355 3.37141 664.589 1.39287C675.106 0.15419 669.945 -11.207 672.6 -13.3313C697.955 -5.97203 693.2 -38.8899 686.396 -49.2029C671.73 -71.3873 664.045 -53.8158 663.33 -53.855C659.118 -68.6745 630.713 -46.6751 645.356 -32.3265C646.541 -31.1606 648.137 -32.1359 649.413 -33.3634C653.711 -26.7776 658.924 -32.4386 655.307 -36.0089C653.018 -38.2845 650.335 -48.4911 665.121 -47.6167C686.087 -38.8562 673.481 -5.32185 646.032 -16.5542C608.213 -33.7669 622.164 -88.9812 666.008 -100.068C654.478 -90.9373 647.245 -70.8829 647.245 -70.8829C673.338 -72.0711 656.801 -99.115 683.421 -102.136C706.773 -115.027 709.606 -83.6005 731.436 -97.6521C731.436 -97.6521 713.577 -109.731 698.762 -110.482C740.901 -126.736 785.294 -90.0574 765.009 -54.3707C749.524 -29.4848 719.231 -49.3767 730.933 -68.5344C742.377 -77.7489 746.303 -67.9234 745.811 -64.7847C745.027 -59.8075 752.643 -58.2269 752.168 -66.029C753.936 -65.7711 755.813 -65.9001 756.076 -67.5255C759.344 -87.58 723.139 -89.0317 728.61 -74.6101C728.037 -74.1674 711.3 -83.9704 712.73 -57.5767C713.394 -45.3187 729.285 -15.9488 745.399 -36.4853C748.832 -36.3004 751.464 -24.1545 760.717 -29.1989C775.052 -36.9225 783.274 -57.5823 783.606 -61.7076C783.87 -64.9024 778.164 -70.0141 775.395 -72.3233C775.366 -74.8904 785.014 -73.2145 785.123 -79.3127C785.237 -87.2605 783.515 -100.746 773.289 -111.362C769.118 -115.717 758.463 -112.102 754.057 -110.342C751.596 -111.967 758.274 -117.785 751.378 -123.648C745.982 -128.272 718.287 -135.149 710.481 -118.844L708.936 -118.581C702.596 -129.051 692.817 -125.071 679.827 -112.897C662.014 -115.274 651.714 -112.898 652.852 -100.752L651.451 -100.079C635.354 -108.783 617.06 -87.2885 615.463 -80.4617C613.397 -71.7516 622.296 -70.8773 621.277 -68.1308C616.653 -67.0098 605.861 -63.8206 605.1 -57.8962C603.189 -43.4186 609.878 -31.5081 614.731 -25.1409C618.519 -20.2646 625.317 -27.1643 626.833 -25.0737Z" fill="url(#paint69_radial_308_2675)"/>
</g>
<path d="M852.849 391.175C868.023 392.626 926.796 395.202 937.779 391.618C956.595 385.481 960.117 383.381 965.921 386.654C967.172 387.36 968.146 388.175 969.458 387.211C970.864 386.176 969.867 385.928 972.892 387.982C974.039 388.753 974.548 388.211 975.645 387.859C976.589 388.479 978.206 389.82 978.728 388.822C979.601 387.152 978.187 385.307 977.096 383.473C979.591 381.905 978.825 382.273 976.741 378.939C972.688 372.457 972.989 373.488 976.33 373.303C976.503 372.862 976.728 372.52 976.765 372.16C977.224 367.343 978.4 362.693 974.204 358.622C970.497 355.026 971.935 354.539 969.431 353.641C958.936 349.877 949.083 349.066 946.478 344.985C945.252 343.07 931.692 330.857 930.661 329.011C927.945 324.151 923.248 322.419 914.973 311.166C914.298 310.25 910.989 306.348 909.594 303.662C902.328 289.721 887.831 250.081 881.851 240.46C875.402 230.089 871.44 219.595 858.483 221.094C852.765 221.755 843.81 221.042 838.903 218.759C834.283 216.608 828.933 211.98 828.363 208.338C827.933 205.534 827.442 198.877 828.825 198.125C835.44 194.58 835.647 190.248 837.075 184.955C838.287 180.452 837.799 182.321 839.78 181.228C844.007 178.897 845.815 174.158 845.673 172.969C845.502 171.561 844.623 171.401 842.503 170.412C843.671 168.59 844.917 167.164 844.025 165.383C841.477 160.304 852.931 154.947 846.439 146.839C842.963 142.497 838.888 140.805 833.238 139.183C832.64 138.62 833.063 137.878 832.215 137.555C831.202 137.169 831.239 136.53 831.31 135.907C831.622 133.175 829.52 131.761 827.135 129.772C828.778 124.749 823.698 124.995 819.636 121.294C818.19 119.977 814.554 119.55 812.006 120.556C809.458 119.55 805.821 119.977 804.373 121.294C800.314 124.987 795.234 124.741 796.877 129.772C794.491 131.761 792.39 133.175 792.699 135.907C792.77 136.53 792.81 137.167 791.797 137.555C790.949 137.878 791.372 138.62 790.773 139.183C785.124 140.805 781.049 142.497 777.573 146.839C771.081 154.947 782.532 160.304 779.987 165.383C779.095 167.164 780.341 168.59 781.508 170.412C779.396 171.401 778.509 171.569 778.339 172.969C778.195 174.158 780.005 178.897 784.232 181.228C786.213 182.321 785.722 180.457 786.937 184.955C788.362 190.248 788.572 194.58 795.187 198.125C796.57 198.869 796.079 205.527 795.649 208.338C795.092 211.98 789.729 216.608 785.108 218.759C780.212 221.04 771.246 221.747 765.519 221.092C752.562 219.593 748.597 230.087 742.15 240.458C736.17 250.081 721.684 289.721 714.408 303.66C713.012 306.339 709.703 310.248 709.029 311.164C700.753 322.417 696.056 324.149 693.341 329.009C692.309 330.855 678.749 343.075 677.524 344.983C674.918 349.064 665.06 349.875 654.57 353.639C652.067 354.537 653.502 355.024 649.797 358.62C645.599 362.691 646.777 367.331 647.236 372.158C647.27 372.519 647.499 372.86 647.672 373.301C651.012 373.494 651.314 372.455 647.26 378.937C645.177 382.271 644.41 381.903 646.906 383.471C645.812 385.306 644.397 387.15 645.274 388.82C645.798 389.818 647.412 388.477 648.357 387.857C649.453 388.209 649.963 388.76 651.109 387.98C654.134 385.926 653.137 386.175 654.544 387.209C655.856 388.173 656.829 387.358 658.081 386.652C663.882 383.377 667.406 385.479 686.222 391.616C697.206 395.2 755.978 392.624 771.152 391.173C796.396 388.762 827.621 388.762 852.849 391.175ZM874.74 335.063C873.751 334.838 872.683 334.813 872.347 333.801C871.138 330.155 868.871 326.691 868.149 322.962C867.386 318.972 857.097 306.314 854.224 297.72C851.204 288.694 860.356 283.522 859.16 267.392C858.47 258.072 858.336 260.771 858.874 258.709C860.973 261.517 862.629 266.207 863.689 269.307C871.269 291.548 866.071 273.801 880.634 305.693C882.846 310.541 885.052 310.572 891.302 319.182C902.585 334.732 913.047 337.825 919.559 345.118C915.715 345.706 911.669 343.517 874.74 335.063ZM704.45 345.131C710.963 337.838 721.414 334.745 732.707 319.195C738.957 310.586 741.164 310.555 743.376 305.707C757.938 273.814 752.74 291.561 760.321 269.321C761.37 266.213 763.034 261.523 765.135 258.723C765.66 260.785 765.54 258.085 764.849 267.405C763.653 283.536 772.805 288.708 769.785 297.733C766.899 306.321 756.624 318.979 755.857 322.976C755.144 326.704 752.877 330.169 751.659 333.815C751.323 334.826 750.255 334.851 749.266 335.077C712.351 343.517 708.297 345.706 704.448 345.131H704.45ZM970.25 366.85C968.077 366.189 966.54 365.383 965.488 363.996C961.974 359.371 958.899 356.729 961.129 357.271C965.939 358.427 965.776 358.897 969.906 361.655C971.439 362.682 970.88 363.221 970.245 366.844L970.25 366.85ZM654.113 361.647C658.246 358.89 658.083 358.427 662.893 357.263C665.123 356.722 662.048 359.36 658.535 363.988C657.485 365.376 655.945 366.181 653.772 366.842C653.132 363.221 652.573 362.682 654.108 361.655L654.113 361.647Z" fill="#D6809B"/>
</g>
<defs>
<radialGradient id="paint0_radial_308_2675" cx="0" cy="0" r="1" gradientUnits="userSpaceOnUse" gradientTransform="translate(990.564 612.465) scale(266.545 748.42)">
<stop offset="0.442708" stop-color="#FAF5EF"/>
</radialGradient>
<radialGradient id="paint1_radial_308_2675" cx="0" cy="0" r="1" gradientUnits="userSpaceOnUse" gradientTransform="translate(990.534 708.838) scale(266.66 748.125)">
<stop offset="0.442708" stop-color="#FAF5EF"/>
</radialGradient>
<radialGradient id="paint2_radial_308_2675" cx="0" cy="0" r="1" gradientUnits="userSpaceOnUse" gradientTransform="translate(960.07 665.358) scale(496.294 511.911)">
<stop offset="0.442708" stop-color="#FAF5EF"/>
</radialGradient>
<radialGradient id="paint3_radial_308_2675" cx="0" cy="0" r="1" gradientUnits="userSpaceOnUse" gradientTransform="translate(877.967 578.559) scale(590.603 269.955)">
<stop offset="0.442708" stop-color="#FAF5EF"/>
</radialGradient>
<radialGradient id="paint4_radial_308_2675" cx="0" cy="0" r="1" gradientUnits="userSpaceOnUse" gradientTransform="translate(774.467 665.47) scale(496.238 512.236)">
<stop offset="0.442708" stop-color="#FAF5EF"/>
</radialGradient>
<radialGradient id="paint5_radial_308_2675" cx="0" cy="0" r="1" gradientUnits="userSpaceOnUse" gradientTransform="translate(691.932 708.902) scale(266.545 748.42)">
<stop offset="0.442708" stop-color="#FAF5EF"/>
</radialGradient>
<radialGradient id="paint6_radial_308_2675" cx="0" cy="0" r="1" gradientUnits="userSpaceOnUse" gradientTransform="translate(691.987 612.228) scale(266.659 748.125)">
<stop offset="0.442708" stop-color="#FAF5EF"/>
</radialGradient>
<radialGradient id="paint7_radial_308_2675" cx="0" cy="0" r="1" gradientUnits="userSpaceOnUse" gradientTransform="translate(774.574 417.182) scale(496.456 511.91)">
<stop offset="0.442708" stop-color="#FAF5EF"/>
</radialGradient>
<radialGradient id="paint8_radial_308_2675" cx="0" cy="0" r="1" gradientUnits="userSpaceOnUse" gradientTransform="translate(878.089 259.66) scale(590.603 269.955)">
<stop offset="0.442708" stop-color="#FAF5EF"/>
</radialGradient>
<radialGradient id="paint9_radial_308_2675" cx="0" cy="0" r="1" gradientUnits="userSpaceOnUse" gradientTransform="translate(960.163 417.4) scale(496.238 512.236)">
<stop offset="0.442708" stop-color="#FAF5EF"/>
</radialGradient>
<radialGradient id="paint10_radial_308_2675" cx="0" cy="0" r="1" gradientUnits="userSpaceOnUse" gradientTransform="translate(1112 301.028) scale(59.9687 221.062)">
<stop offset="0.442708" stop-color="#FAF5EF"/>
</radialGradient>
<radialGradient id="paint11_radial_308_2675" cx="0" cy="0" r="1" gradientUnits="userSpaceOnUse" gradientTransform="translate(1111.96 488.004) scale(59.9939 221.062)">
<stop offset="0.442708" stop-color="#FAF5EF"/>
</radialGradient>
<radialGradient id="paint12_radial_308_2675" cx="0" cy="0" r="1" gradientUnits="userSpaceOnUse" gradientTransform="translate(1008.59 596.658) scale(142.103 136.72)">
<stop offset="0.442708" stop-color="#FAF5EF"/>
</radialGradient>
<radialGradient id="paint13_radial_308_2675" cx="0" cy="0" r="1" gradientUnits="userSpaceOnUse" gradientTransform="translate(645.495 596.537) scale(142.028 136.721)">
<stop offset="0.442708" stop-color="#FAF5EF"/>
</radialGradient>
<radialGradient id="paint14_radial_308_2675" cx="0" cy="0" r="1" gradientUnits="userSpaceOnUse" gradientTransform="translate(523.598 487.821) scale(59.8932 221.062)">
<stop offset="0.442708" stop-color="#FAF5EF"/>
</radialGradient>
<radialGradient id="paint15_radial_308_2675" cx="0" cy="0" r="1" gradientUnits="userSpaceOnUse" gradientTransform="translate(523.662 300.844) scale(60.0304 221.062)">
<stop offset="0.442708" stop-color="#FAF5EF"/>
</radialGradient>
<radialGradient id="paint16_radial_308_2675" cx="0" cy="0" r="1" gradientUnits="userSpaceOnUse" gradientTransform="translate(645.666 106.964) scale(142.14 136.571)">
<stop offset="0.442708" stop-color="#FAF5EF"/>
</radialGradient>
<radialGradient id="paint17_radial_308_2675" cx="0" cy="0" r="1" gradientUnits="userSpaceOnUse" gradientTransform="translate(1008.74 107.118) scale(142.102 136.67)">
<stop offset="0.442708" stop-color="#FAF5EF"/>
</radialGradient>
<radialGradient id="paint18_radial_308_2675" cx="0" cy="0" r="1" gradientUnits="userSpaceOnUse" gradientTransform="translate(1234.72 2783.47) scale(3733.82 4952.87)">
<stop offset="0.442708" stop-color="#FAF5EF"/>
</radialGradient>
<radialGradient id="paint19_radial_308_2675" cx="0" cy="0" r="1" gradientUnits="userSpaceOnUse" gradientTransform="translate(1263.83 2961.55) scale(3990.41 5305.56)">
<stop offset="0.442708" stop-color="#FAF5EF"/>
</radialGradient>
<radialGradient id="paint20_radial_308_2675" cx="0" cy="0" r="1" gradientUnits="userSpaceOnUse" gradientTransform="translate(1281.39 565.072) scale(422.029 675.656)">
<stop offset="0.442708" stop-color="#FAF5EF"/>
</radialGradient>
<radialGradient id="paint21_radial_308_2675" cx="0" cy="0" r="1" gradientUnits="userSpaceOnUse" gradientTransform="translate(1184.27 196.045) scale(588.011 408.374)">
<stop offset="0.442708" stop-color="#FAF5EF"/>
</radialGradient>
<radialGradient id="paint22_radial_308_2675" cx="0" cy="0" r="1" gradientUnits="userSpaceOnUse" gradientTransform="translate(450.86 485.059) scale(212.666 789.518)">
<stop offset="0.442708" stop-color="#FAF5EF"/>
</radialGradient>
<radialGradient id="paint23_radial_308_2675" cx="0" cy="0" r="1" gradientUnits="userSpaceOnUse" gradientTransform="translate(436.39 682.835) scale(422.058 675.705)">
<stop offset="0.442708" stop-color="#FAF5EF"/>
</radialGradient>
<radialGradient id="paint24_radial_308_2675" cx="0" cy="0" r="1" gradientUnits="userSpaceOnUse" gradientTransform="translate(1219.4 877.805) scale(212.656 789.518)">
<stop offset="0.442708" stop-color="#FAF5EF"/>
</radialGradient>
<radialGradient id="paint25_radial_308_2675" cx="0" cy="0" r="1" gradientUnits="userSpaceOnUse" gradientTransform="translate(1281.37 683.061) scale(422.237 675.642)">
<stop offset="0.442708" stop-color="#FAF5EF"/>
</radialGradient>
<radialGradient id="paint26_radial_308_2675" cx="0" cy="0" r="1" gradientUnits="userSpaceOnUse" gradientTransform="translate(1219.52 485.287) scale(212.521 789.499)">
<stop offset="0.442708" stop-color="#FAF5EF"/>
</radialGradient>
<radialGradient id="paint27_radial_308_2675" cx="0" cy="0" r="1" gradientUnits="userSpaceOnUse" gradientTransform="translate(571.4 195.679) scale(588.111 408.043)">
<stop offset="0.442708" stop-color="#FAF5EF"/>
</radialGradient>
<radialGradient id="paint28_radial_308_2675" cx="0" cy="0" r="1" gradientUnits="userSpaceOnUse" gradientTransform="translate(436.442 564.814) scale(422.279 675.642)">
<stop offset="0.442708" stop-color="#FAF5EF"/>
</radialGradient>
<radialGradient id="paint29_radial_308_2675" cx="0" cy="0" r="1" gradientUnits="userSpaceOnUse" gradientTransform="translate(450.709 877.467) scale(212.462 789.25)">
<stop offset="0.442708" stop-color="#FAF5EF"/>
</radialGradient>
<radialGradient id="paint30_radial_308_2675" cx="0" cy="0" r="1" gradientUnits="userSpaceOnUse" gradientTransform="translate(1292.13 373.909) scale(564.8 382.808)">
<stop offset="0.442708" stop-color="#FAF5EF"/>
</radialGradient>
<radialGradient id="paint31_radial_308_2675" cx="0" cy="0" r="1" gradientUnits="userSpaceOnUse" gradientTransform="translate(469.453 388.773) scale(491.644 533.205)">
<stop offset="0.442708" stop-color="#FAF5EF"/>
</radialGradient>
<radialGradient id="paint32_radial_308_2675" cx="0" cy="0" r="1" gradientUnits="userSpaceOnUse" gradientTransform="translate(458.063 578.272) scale(564.836 382.808)">
<stop offset="0.442708" stop-color="#FAF5EF"/>
</radialGradient>
<radialGradient id="paint33_radial_308_2675" cx="0" cy="0" r="1" gradientUnits="userSpaceOnUse" gradientTransform="translate(1264.14 715.269) scale(491.644 533.205)">
<stop offset="0.442708" stop-color="#FAF5EF"/>
</radialGradient>
<radialGradient id="paint34_radial_308_2675" cx="0" cy="0" r="1" gradientUnits="userSpaceOnUse" gradientTransform="translate(1292.07 578.522) scale(564.803 382.773)">
<stop offset="0.442708" stop-color="#FAF5EF"/>
</radialGradient>
<radialGradient id="paint35_radial_308_2675" cx="0" cy="0" r="1" gradientUnits="userSpaceOnUse" gradientTransform="translate(1264.25 388.956) scale(491.777 533.072)">
<stop offset="0.442708" stop-color="#FAF5EF"/>
</radialGradient>
<radialGradient id="paint36_radial_308_2675" cx="0" cy="0" r="1" gradientUnits="userSpaceOnUse" gradientTransform="translate(458.124 373.62) scale(564.839 382.773)">
<stop offset="0.442708" stop-color="#FAF5EF"/>
</radialGradient>
<radialGradient id="paint37_radial_308_2675" cx="0" cy="0" r="1" gradientUnits="userSpaceOnUse" gradientTransform="translate(469.366 714.956) scale(491.776 533.072)">
<stop offset="0.442708" stop-color="#FAF5EF"/>
</radialGradient>
<radialGradient id="paint38_radial_308_2675" cx="0" cy="0" r="1" gradientUnits="userSpaceOnUse" gradientTransform="translate(1274.5 245.357) scale(323.7 189.191)">
<stop offset="0.442708" stop-color="#FAF5EF"/>
</radialGradient>
<radialGradient id="paint39_radial_308_2675" cx="0" cy="0" r="1" gradientUnits="userSpaceOnUse" gradientTransform="translate(1274.37 511.734) scale(323.474 189.508)">
<stop offset="0.442708" stop-color="#FAF5EF"/>
</radialGradient>
<radialGradient id="paint40_radial_308_2675" cx="0" cy="0" r="1" gradientUnits="userSpaceOnUse" gradientTransform="translate(420.99 511.315) scale(323.699 189.207)">
<stop offset="0.442708" stop-color="#FAF5EF"/>
</radialGradient>
<radialGradient id="paint41_radial_308_2675" cx="0" cy="0" r="1" gradientUnits="userSpaceOnUse" gradientTransform="translate(421.045 245.273) scale(323.474 189.508)">
<stop offset="0.442708" stop-color="#FAF5EF"/>
</radialGradient>
<radialGradient id="paint42_radial_308_2675" cx="0" cy="0" r="1" gradientUnits="userSpaceOnUse" gradientTransform="translate(1116.31 305.896) scale(71.0138 232.215)">
<stop offset="0.442708" stop-color="#FAF5EF"/>
</radialGradient>
<radialGradient id="paint43_radial_308_2675" cx="0" cy="0" r="1" gradientUnits="userSpaceOnUse" gradientTransform="translate(1116.27 494.376) scale(71.0891 232.165)">
<stop offset="0.442708" stop-color="#FAF5EF"/>
</radialGradient>
<radialGradient id="paint44_radial_308_2675" cx="0" cy="0" r="1" gradientUnits="userSpaceOnUse" gradientTransform="translate(1010.89 602.051) scale(149.249 143.441)">
<stop offset="0.442708" stop-color="#FAF5EF"/>
</radialGradient>
<radialGradient id="paint45_radial_308_2675" cx="0" cy="0" r="1" gradientUnits="userSpaceOnUse" gradientTransform="translate(644.819 601.962) scale(149.174 143.541)">
<stop offset="0.442708" stop-color="#FAF5EF"/>
</radialGradient>
<radialGradient id="paint46_radial_308_2675" cx="0" cy="0" r="1" gradientUnits="userSpaceOnUse" gradientTransform="translate(521.803 494.24) scale(71.0138 232.265)">
<stop offset="0.442708" stop-color="#FAF5EF"/>
</radialGradient>
<radialGradient id="paint47_radial_308_2675" cx="0" cy="0" r="1" gradientUnits="userSpaceOnUse" gradientTransform="translate(521.883 305.684) scale(71.0891 232.165)">
<stop offset="0.442708" stop-color="#FAF5EF"/>
</radialGradient>
<radialGradient id="paint48_radial_308_2675" cx="0" cy="0" r="1" gradientUnits="userSpaceOnUse" gradientTransform="translate(644.983 108.418) scale(149.249 143.442)">
<stop offset="0.442708" stop-color="#FAF5EF"/>
</radialGradient>
<radialGradient id="paint49_radial_308_2675" cx="0" cy="0" r="1" gradientUnits="userSpaceOnUse" gradientTransform="translate(1011.04 108.564) scale(149.174 143.541)">
<stop offset="0.442708" stop-color="#FAF5EF"/>
</radialGradient>
<radialGradient id="paint50_radial_308_2675" cx="0" cy="0" r="1" gradientUnits="userSpaceOnUse" gradientTransform="translate(1209.17 428.267) scale(101.819 44.0991)">
<stop offset="0.442708" stop-color="#FAF5EF"/>
</radialGradient>
<radialGradient id="paint51_radial_308_2675" cx="0" cy="0" r="1" gradientUnits="userSpaceOnUse" gradientTransform="translate(1137.56 603.952) scale(109.151 193.28)">
<stop offset="0.442708" stop-color="#FAF5EF"/>
</radialGradient>
<radialGradient id="paint52_radial_308_2675" cx="0" cy="0" r="1" gradientUnits="userSpaceOnUse" gradientTransform="translate(1209.25 182.063) scale(101.819 43.9583)">
<stop offset="0.442708" stop-color="#FAF5EF"/>
</radialGradient>
<radialGradient id="paint53_radial_308_2675" cx="0" cy="0" r="1" gradientUnits="userSpaceOnUse" gradientTransform="translate(1269.11 1094.83) scale(737.966 1608.04)">
<stop offset="0.442708" stop-color="#FAF5EF"/>
</radialGradient>
<radialGradient id="paint54_radial_308_2675" cx="0" cy="0" r="1" gradientUnits="userSpaceOnUse" gradientTransform="translate(1212.23 403.59) scale(81.2875 238.986)">
<stop offset="0.442708" stop-color="#FAF5EF"/>
</radialGradient>
<radialGradient id="paint55_radial_308_2675" cx="0" cy="0" r="1" gradientUnits="userSpaceOnUse" gradientTransform="translate(1225.74 1239.63) scale(1003.51 1470.13)">
<stop offset="0.442708" stop-color="#FAF5EF"/>
</radialGradient>
<radialGradient id="paint56_radial_308_2675" cx="0" cy="0" r="1" gradientUnits="userSpaceOnUse" gradientTransform="translate(623.856 1239.37) scale(1003.27 1469.88)">
<stop offset="0.442708" stop-color="#FAF5EF"/>
</radialGradient>
<radialGradient id="paint57_radial_308_2675" cx="0" cy="0" r="1" gradientUnits="userSpaceOnUse" gradientTransform="translate(509.075 603.809) scale(109.176 193.38)">
<stop offset="0.442708" stop-color="#FAF5EF"/>
</radialGradient>
<radialGradient id="paint58_radial_308_2675" cx="0" cy="0" r="1" gradientUnits="userSpaceOnUse" gradientTransform="translate(435.867 427.949) scale(101.819 43.958)">
<stop offset="0.442708" stop-color="#FAF5EF"/>
</radialGradient>
<radialGradient id="paint59_radial_308_2675" cx="0" cy="0" r="1" gradientUnits="userSpaceOnUse" gradientTransform="translate(509.208 156.82) scale(109.165 193.28)">
<stop offset="0.442708" stop-color="#FAF5EF"/>
</radialGradient>
<radialGradient id="paint60_radial_308_2675" cx="0" cy="0" r="1" gradientUnits="userSpaceOnUse" gradientTransform="translate(624.098 810.121) scale(1003.49 1469.39)">
<stop offset="0.442708" stop-color="#FAF5EF"/>
</radialGradient>
<radialGradient id="paint61_radial_308_2675" cx="0" cy="0" r="1" gradientUnits="userSpaceOnUse" gradientTransform="translate(829.482 522.546) scale(1185.55 1161.24)">
<stop offset="0.442708" stop-color="#FAF5EF"/>
</radialGradient>
<radialGradient id="paint62_radial_308_2675" cx="0" cy="0" r="1" gradientUnits="userSpaceOnUse" gradientTransform="translate(1353.4 3283.96) scale(4779.63 6002.83)">
<stop offset="0.442708" stop-color="#FAF5EF"/>
</radialGradient>
<radialGradient id="paint63_radial_308_2675" cx="0" cy="0" r="1" gradientUnits="userSpaceOnUse" gradientTransform="translate(435.936 181.888) scale(101.819 44.0988)">
<stop offset="0.442708" stop-color="#FAF5EF"/>
</radialGradient>
<radialGradient id="paint64_radial_308_2675" cx="0" cy="0" r="1" gradientUnits="userSpaceOnUse" gradientTransform="translate(428.219 403.356) scale(81.2712 238.986)">
<stop offset="0.442708" stop-color="#FAF5EF"/>
</radialGradient>
<radialGradient id="paint65_radial_308_2675" cx="0" cy="0" r="1" gradientUnits="userSpaceOnUse" gradientTransform="translate(520.393 1094.64) scale(738.096 1608.23)">
<stop offset="0.442708" stop-color="#FAF5EF"/>
</radialGradient>
<radialGradient id="paint66_radial_308_2675" cx="0" cy="0" r="1" gradientUnits="userSpaceOnUse" gradientTransform="translate(1225.9 810.696) scale(1003.56 1470.23)">
<stop offset="0.442708" stop-color="#FAF5EF"/>
</radialGradient>
<radialGradient id="paint67_radial_308_2675" cx="0" cy="0" r="1" gradientUnits="userSpaceOnUse" gradientTransform="translate(1137.7 157.087) scale(109.162 193.38)">
<stop offset="0.442708" stop-color="#FAF5EF"/>
</radialGradient>
<radialGradient id="paint68_radial_308_2675" cx="0" cy="0" r="1" gradientUnits="userSpaceOnUse" gradientTransform="translate(1061.74 522.953) scale(1185.45 1161.89)">
<stop offset="0.442708" stop-color="#FAF5EF"/>
</radialGradient>
<radialGradient id="paint69_radial_308_2675" cx="0" cy="0" r="1" gradientUnits="userSpaceOnUse" gradientTransform="translate(829.482 522.546) scale(1185.55 1161.24)">
<stop offset="0.442708" stop-color="#FAF5EF"/>
</radialGradient>
<clipPath id="clip0_308_2675">
<rect width="1733" height="524" fill="white" transform="translate(-3)"/>
</clipPath>
</defs>
</svg>
