<svg width="559" height="497" viewBox="0 0 559 497" fill="none" xmlns="http://www.w3.org/2000/svg">
<path d="M4 300.593C58.7142 521.581 204.268 506.394 270.206 471.178C429.578 551.485 526.474 390.916 555 300.593C501.128 274.759 433.413 289.828 406.29 300.593C462.126 248.083 473.747 156.333 472.578 117.021C397.942 117.021 356.5 163.5 336.5 180C336.5 91.5 290.08 28.4529 270.206 4C220.823 47.2429 207.775 149.313 207.425 194.943C188.906 138.222 122.08 110.937 90.9815 104.385C78.3552 183.29 117.286 268.067 138.33 300.593C109.711 281.217 36.8519 292.52 4 300.593Z" stroke="#917196" stroke-width="7" stroke-linejoin="round"/>
<path d="M237.235 397.331C252.202 393.468 273.157 370.85 237.235 311.286C223.787 289.863 208.497 246.975 237.235 220.675C249.131 209.788 277.927 182.253 279.33 155C282.488 171.272 314.01 210.675 324.554 220.675C331.219 226.997 355.665 267.737 318.62 311.286C303.653 332.827 282.698 380.193 318.62 397.331M237.235 397.331C131.994 392.274 120.418 414.892 127.784 426.833C165.671 462.796 247.641 441.817 283.891 426.833M237.235 397.331C249.476 401.612 270.026 410.155 279.33 418.064M318.62 397.331C359.313 391.595 439.085 389.464 432.631 426.833C423.159 442.051 380.151 463.358 283.891 426.833M318.62 397.331C310.552 397.331 304.588 418.064 279.33 418.064M283.891 426.833C284.923 424.209 283.002 421.186 279.33 418.064" stroke="#D6809B" stroke-width="7" stroke-linejoin="round"/>
<ellipse cx="277.5" cy="276.5" rx="24.5" ry="28.5" fill="#D6809B"/>
</svg>
