<svg width="523" height="831" viewBox="0 0 523 831" fill="none" xmlns="http://www.w3.org/2000/svg">
<path d="M335.638 162.029C392.182 128.8 421.951 115.392 466.454 142.862C509.552 148.95 555.339 133.409 606.608 118.79C634.842 97.4596 627.368 93.487 668.559 78.3175C613.475 137.203 604.103 177.955 602.06 264.501C601.831 274.207 602.464 285.738 605.157 289.354C673.366 380.964 652 443.466 564.497 500.464C561.118 421.103 568.486 375.114 605.157 289.354C602.464 285.738 601.831 274.207 602.06 264.501C604.103 177.955 613.475 137.203 668.559 78.3175C627.247 106.693 613.278 137.984 578.778 203.264C551.818 266.405 549.79 271.712 532.422 326.12C515.873 368.421 499.162 405.329 479.516 438.033C478.198 462.377 476.343 481.81 472.773 498.87C476.739 541.242 479.113 565.779 480.811 596.344C529.311 692.14 519.211 742.156 440.675 825.626C422.366 723.287 429.251 672.369 480.811 596.344C479.113 565.779 476.739 541.242 472.773 498.87C467.372 524.678 458.044 545.056 440.711 568.789C444.415 640.586 420.481 694.304 357.004 800.854C319.961 684.153 344.041 635.488 440.711 568.789C458.044 545.056 467.372 524.678 472.773 498.87C476.343 481.81 478.198 462.377 479.516 438.033C458.391 473.201 433.874 503.508 402.516 530.434C383.571 550.778 367.156 566.81 350.991 580.469C315.765 613.735 301.614 633.972 285.252 672.738C264.522 773.063 230.755 796.741 153.712 814.215C180.81 744.729 194.418 704.841 285.252 672.738C301.614 633.972 315.765 613.735 350.991 580.469C322.018 604.949 293.85 621.807 253.363 642.208C218.584 713.305 89.8786 729.355 6.09052 672.355C95.4885 640.858 148.924 617.847 253.363 642.208C293.85 621.807 322.018 604.949 350.991 580.469C367.156 566.81 383.571 550.778 402.516 530.434C433.874 503.508 458.391 473.201 479.516 438.033C499.162 405.329 515.873 368.421 532.422 326.12L450.137 420.488C438.188 457.866 419.668 476.322 358.392 503.119C313 522.97 253 532 219.661 553.138L244 507.5C283.409 446.817 355.007 432.587 450.137 420.488L532.422 326.12C549.79 271.712 551.818 266.405 578.778 203.264C613.278 137.984 627.247 106.693 668.559 78.3175C627.368 93.487 634.842 97.4596 606.608 118.79L522.572 162.939C490.087 255.91 456.46 270.738 407.182 327.31C397 339 395.5 350.5 391.409 368.074C354.505 245.501 490.182 135.301 522.572 162.939L606.608 118.79C555.339 133.409 509.552 148.95 466.454 142.862C426.758 186.359 397.448 188.433 335.638 162.029Z" fill="#E6CBAE"/>
<path d="M466.454 142.862C421.951 115.392 392.182 128.8 335.638 162.029C397.448 188.433 426.758 186.359 466.454 142.862ZM466.454 142.862C509.552 148.95 555.339 133.409 606.608 118.79M606.608 118.79C634.842 97.4596 627.368 93.487 668.559 78.3175M606.608 118.79L522.572 162.939M668.559 78.3175C627.247 106.693 613.278 137.984 578.778 203.264C551.818 266.405 549.79 271.712 532.422 326.12M668.559 78.3175C613.475 137.203 604.103 177.955 602.06 264.501C601.831 274.207 602.464 285.738 605.157 289.354M668.559 78.3175C703.793 39.2983 728.36 25.4965 773.548 3.16008M532.422 326.12L450.137 420.488M532.422 326.12C515.873 368.421 499.162 405.329 479.516 438.033M253.363 642.208C148.924 617.847 95.4886 640.858 6.09052 672.355C89.8786 729.355 218.584 713.305 253.363 642.208ZM253.363 642.208C293.85 621.807 322.018 604.949 350.991 580.469M522.572 162.939C490.087 255.91 456.46 270.738 407.182 327.31C397 339 395.5 350.5 391.409 368.074C354.505 245.501 490.182 135.301 522.572 162.939ZM605.157 289.354C673.366 380.964 652 443.466 564.497 500.464C561.118 421.103 568.486 375.114 605.157 289.354ZM450.137 420.488C355.007 432.587 283.409 446.817 244 507.5L219.661 553.138C253 532 313 522.97 358.392 503.119C419.668 476.322 438.188 457.866 450.137 420.488ZM350.991 580.469C367.156 566.81 383.571 550.778 402.516 530.434C433.874 503.508 458.391 473.201 479.516 438.033M350.991 580.469C315.765 613.735 301.614 633.972 285.252 672.738M285.252 672.738C264.522 773.063 230.755 796.741 153.712 814.215C180.81 744.729 194.418 704.841 285.252 672.738ZM479.516 438.033C478.198 462.376 476.343 481.81 472.773 498.87M440.711 568.789C344.041 635.488 319.961 684.153 357.004 800.854C420.481 694.304 444.415 640.586 440.711 568.789ZM440.711 568.789C458.044 545.056 467.372 524.678 472.773 498.87M472.773 498.87C476.739 541.242 479.113 565.779 480.811 596.344M480.811 596.344C429.251 672.369 422.366 723.287 440.675 825.626C519.211 742.156 529.311 692.14 480.811 596.344Z" stroke="#E6CBAE" stroke-width="5"/>
</svg>
