<svg width="143" height="100" viewBox="0 0 143 100" fill="none" xmlns="http://www.w3.org/2000/svg">
<path d="M65.5515 27.6411C62.3331 27.6013 59.1182 27.8675 55.9501 28.4361C53.5838 28.8333 51.3373 29.7589 49.3775 31.1442C47.8788 32.2582 46.5422 33.5754 45.406 35.0579C44.274 36.756 43.5399 38.6882 43.2587 40.7101C42.85 42.8389 42.5847 44.9928 42.4645 47.1572C42.3772 49.0004 42.3423 51.6387 42.3423 55.0806H65.5428V100.044H2.95026C1.09777 88.7799 0.111456 77.3898 0 65.9743C0 43.1969 5.31863 26.5084 15.9558 15.9088C26.593 5.30922 43.1249 0.00652409 65.5515 0.00070015V27.6411ZM143 27.6411C139.782 27.6013 136.567 27.8675 133.399 28.4361C131.036 28.8352 128.792 29.7607 126.835 31.1442C125.329 32.2389 123.986 33.5419 122.846 35.0143C121.707 36.7087 120.972 38.6425 120.699 40.6664C120.283 42.7944 120.015 44.9485 119.895 47.1135C119.82 48.9597 119.779 51.6008 119.773 55.037H142.974V100.001H80.3726C78.5227 88.7361 77.5392 77.3459 77.431 65.9306C77.431 43.1532 82.7496 26.4647 93.3868 15.8651C104.024 5.26555 120.553 -0.0371448 142.974 -0.0429688L143 27.6411Z" fill="#D6809B"/>
</svg>
