<svg width="460" height="646" viewBox="0 0 460 646" fill="none" xmlns="http://www.w3.org/2000/svg">
<path d="M198.295 520.23C154.455 545.993 131.374 556.389 96.8708 535.09C63.4561 530.37 27.957 542.42 -11.7928 553.754C-33.6832 570.292 -27.889 573.372 -59.825 585.133C-17.1173 539.478 -9.85104 507.882 -8.26686 440.782C-8.0892 433.257 -8.58026 424.316 -10.6678 421.513C-63.5517 350.485 -46.9863 302.027 20.8563 257.836C23.4758 319.365 17.7639 355.021 -10.6678 421.513C-8.58026 424.316 -8.0892 433.257 -8.26686 440.782C-9.85104 507.882 -17.1173 539.478 -59.825 585.133C-27.7947 563.133 -16.9645 538.872 9.78441 488.259C30.6865 439.306 32.2589 435.19 45.7243 393.007C58.5555 360.21 71.512 331.595 86.7433 306.239C87.7651 287.365 89.2033 272.298 91.9717 259.071C88.8966 226.219 87.0564 207.195 85.7397 183.498C48.1367 109.226 55.9676 70.4471 116.857 5.73141C131.053 85.0765 125.715 124.554 85.7397 183.498C87.0564 207.195 88.8966 226.219 91.9717 259.071C96.1594 239.062 103.391 223.262 116.829 204.862C113.958 149.196 132.514 107.548 181.729 24.9373C210.449 115.418 191.779 153.149 116.829 204.862C103.391 223.262 96.1594 239.062 91.9717 259.071C89.2033 272.298 87.7651 287.365 86.7433 306.239C103.122 278.973 122.131 255.475 146.443 234.599C161.131 218.826 173.858 206.396 186.391 195.806C213.703 170.014 224.674 154.325 237.36 124.268C253.432 46.4848 279.613 28.1269 339.345 14.5789C318.336 68.4525 307.785 99.3783 237.36 124.268C224.674 154.325 213.703 170.014 186.391 195.806C208.854 176.826 230.694 163.756 262.084 147.939C289.049 92.8162 388.836 80.3718 453.799 124.565C384.487 148.985 343.057 166.826 262.084 147.939C230.694 163.756 208.854 176.826 186.391 195.806C173.858 206.396 161.131 218.826 146.443 234.599C122.131 255.475 103.122 278.973 86.7433 306.239C71.512 331.595 58.5555 360.21 45.7243 393.007L109.522 319.842C118.786 290.863 133.145 276.553 180.653 255.777C215.846 240.386 262.366 233.385 288.214 216.996L269.343 252.38C238.789 299.429 183.278 310.461 109.522 319.842L45.7243 393.007C32.2589 435.19 30.6865 439.306 9.78441 488.259C-16.9645 538.872 -27.7947 563.133 -59.825 585.133C-27.889 573.372 -33.6832 570.292 -11.7928 553.754L53.362 519.524C78.5474 447.443 104.62 435.946 142.825 392.085C150.72 383.021 151.883 374.105 155.055 360.48C183.667 455.513 78.4743 540.953 53.362 519.524L-11.7928 553.754C27.957 542.42 63.4561 530.37 96.8708 535.09C127.648 501.366 150.372 499.759 198.295 520.23Z" fill="#E6CBAE"/>
<path d="M96.8708 535.09C131.374 556.389 154.455 545.993 198.295 520.23C150.372 499.759 127.648 501.366 96.8708 535.09ZM96.8708 535.09C63.4561 530.371 27.957 542.42 -11.7928 553.754M-11.7928 553.754C-33.6832 570.292 -27.889 573.372 -59.825 585.133M-11.7928 553.754L53.3619 519.524M-59.825 585.133C-27.7946 563.133 -16.9645 538.872 9.78442 488.259C30.6865 439.306 32.2589 435.19 45.7243 393.007M-59.825 585.133C-17.1173 539.478 -9.85104 507.882 -8.26686 440.782C-8.0892 433.257 -8.58027 424.316 -10.6678 421.513M-59.825 585.133C-87.1426 615.385 -106.189 626.086 -141.225 643.404M45.7243 393.007L109.522 319.842M45.7243 393.007C58.5555 360.21 71.512 331.595 86.7433 306.239M262.084 147.939C343.057 166.826 384.487 148.985 453.799 124.565C388.836 80.3718 289.049 92.8161 262.084 147.939ZM262.084 147.939C230.694 163.756 208.854 176.826 186.391 195.806M53.3619 519.524C78.5474 447.443 104.62 435.946 142.825 392.085C150.72 383.021 151.883 374.105 155.055 360.48C183.667 455.513 78.4743 540.953 53.3619 519.524ZM-10.6678 421.513C-63.5517 350.485 -46.9863 302.027 20.8563 257.836C23.4758 319.365 17.7639 355.021 -10.6678 421.513ZM109.522 319.842C183.278 310.461 238.789 299.429 269.343 252.38L288.214 216.996C262.366 233.385 215.846 240.386 180.653 255.777C133.145 276.553 118.786 290.863 109.522 319.842ZM186.391 195.806C173.858 206.396 161.131 218.826 146.443 234.599C122.131 255.475 103.122 278.973 86.7433 306.239M186.391 195.806C213.703 170.014 224.674 154.325 237.36 124.268M237.36 124.268C253.432 46.4848 279.613 28.1269 339.345 14.5789C318.336 68.4525 307.785 99.3783 237.36 124.268ZM86.7433 306.239C87.7651 287.365 89.2033 272.298 91.9717 259.071M116.829 204.862C191.779 153.149 210.449 115.418 181.729 24.9373C132.514 107.548 113.958 149.196 116.829 204.862ZM116.829 204.862C103.391 223.262 96.1594 239.062 91.9717 259.071M91.9717 259.071C88.8966 226.219 87.0563 207.195 85.7397 183.498M85.7397 183.498C125.715 124.554 131.053 85.0765 116.858 5.73141C55.9676 70.4471 48.1367 109.226 85.7397 183.498Z" stroke="#E6CBAE" stroke-width="5"/>
</svg>
