<svg width="47" height="42" viewBox="0 0 47 42" fill="none" xmlns="http://www.w3.org/2000/svg">
<rect width="47" height="42" fill="#1E1E1E"/>
<g clip-path="url(#clip0_308_119)">
<rect width="1728" height="3862" transform="translate(-165 -11)" fill="#FAF5EF"/>
<path d="M-18.4553 368.619C-65.5922 381.633 3.41621 521.857 -162.883 563L-184 21L356 51.2278C356 51.2278 239.478 163.742 188.947 263.242C138.416 362.742 112.397 368.619 -18.4553 368.619Z" fill="#D6809B"/>
<rect width="1728" height="64" transform="translate(-165 -11)" fill="#917196"/>
<path d="M1 25.2612C5.46849 43.3379 17.5 42 22.7409 39.2149C35.7568 45.7841 43.6703 32.6496 46 25.2612C41.6003 23.1479 36.07 24.3806 33.8549 25.2612C38.415 20.9659 39.3641 13.4607 39.2686 10.2451C33.1731 10.2451 29.7886 14.047 28.1552 15.3967C28.1552 8.15746 24.3641 3.00023 22.7409 1C18.7078 4.53725 17.6423 12.8866 17.6136 16.619C16.1012 11.9793 10.6435 9.74743 8.10376 9.21148C7.07257 15.6658 10.2521 22.6006 11.9707 25.2612C9.63335 23.6763 3.683 24.6008 1 25.2612Z" stroke="white" stroke-linejoin="round"/>
<path d="M20.0582 32.9176C21.277 32.6001 22.9834 30.7411 20.0582 25.8454C18.9631 24.0846 17.718 20.5596 20.0582 18.398C21.027 17.5031 23.3719 15.24 23.4862 13C23.7433 14.3375 26.3103 17.5761 27.1689 18.398C27.7116 18.9176 29.7024 22.266 26.6857 25.8454C25.4668 27.6159 23.7604 31.509 26.6857 32.9176M20.0582 32.9176C11.4881 32.502 10.5454 34.3609 11.1453 35.3424C14.2305 38.2983 20.9056 36.574 23.8576 35.3424M20.0582 32.9176C21.055 33.2695 22.7285 33.9716 23.4862 34.6217M26.6857 32.9176C29.9994 32.4462 36.4956 32.271 35.9699 35.3424C35.1986 36.5933 31.6963 38.3445 23.8576 35.3424M26.6857 32.9176C26.0287 32.9176 25.543 34.6217 23.4862 34.6217M23.8576 35.3424C23.9416 35.1268 23.7852 34.8783 23.4862 34.6217" stroke="#D6809B"/>
<circle cx="23" cy="23" r="2" fill="#D6809B"/>
</g>
<defs>
<clipPath id="clip0_308_119">
<rect width="1728" height="3862" fill="white" transform="translate(-165 -11)"/>
</clipPath>
</defs>
</svg>
