<svg width="591" height="828" viewBox="0 0 591 828" fill="none" xmlns="http://www.w3.org/2000/svg">
<g opacity="0.1">
<path d="M412.335 267.284C419.4 270.416 418.493 287.175 438.432 274.525C441.231 272.761 443.062 281.328 451.587 278.778C460.779 276.021 457.616 264.682 457.616 264.682C457.616 264.682 433.389 275.954 410.381 261.761C400.831 285.663 373.995 289.608 373.995 289.608C373.995 289.608 378.692 300.494 387.889 297.764C396.42 295.234 392.446 287.294 395.821 287.222C420.06 286.723 408.612 273.63 412.335 267.284Z" fill="url(#paint0_radial_308_2521)"/>
<path d="M516.226 267.315C519.937 273.666 508.484 286.733 532.706 287.263C536.065 287.335 532.102 295.275 540.633 297.81C549.824 300.541 554.527 289.664 554.527 289.664C554.527 289.664 527.713 285.7 518.18 261.792C495.161 275.975 470.939 264.682 470.939 264.682C470.939 264.682 467.776 276.027 476.962 278.783C485.482 281.354 487.346 272.777 490.123 274.54C510.046 287.201 509.156 270.442 516.226 267.315Z" fill="url(#paint1_radial_308_2521)"/>
<path d="M600.256 323.439C599.198 330.577 581.57 334.969 600.815 348.478C603.497 350.355 595.217 354.649 600.479 361.288C606.167 368.488 616.937 362.198 616.937 362.198C616.937 362.198 597.776 344.513 605.361 320.03C577.662 319.073 565.291 296.889 565.291 296.889C565.291 296.889 555.478 304.356 561.143 311.545C566.4 318.23 573.391 312.296 574.505 315.217C582.533 336.193 592.536 322.154 600.256 323.439Z" fill="url(#paint2_radial_308_2521)"/>
<path d="M600.195 504.979C592.475 506.26 582.483 492.216 574.445 513.207C573.325 516.133 566.339 510.204 561.077 516.874C555.406 524.073 565.219 531.535 565.219 531.535C565.219 531.535 577.607 509.33 605.3 508.394C597.732 483.9 616.904 466.225 616.904 466.225C616.904 466.225 606.145 459.957 600.447 467.131C595.168 473.785 603.458 478.064 600.777 479.941C581.515 493.45 599.142 497.836 600.195 504.979Z" fill="url(#paint3_radial_308_2521)"/>
<path d="M516.119 561.055C509.055 557.923 509.962 541.164 490.028 553.814C487.229 555.578 485.393 547.011 476.867 549.562C467.675 552.318 470.838 563.657 470.838 563.657C470.838 563.657 495.066 552.385 518.073 566.578C527.623 542.676 554.459 538.732 554.459 538.732C554.459 538.732 549.763 527.845 540.565 530.576C532.034 533.106 536.009 541.046 532.633 541.118C508.4 541.632 519.842 554.709 516.119 561.055Z" fill="url(#paint4_radial_308_2521)"/>
<path d="M412.229 561.024C408.517 554.673 419.97 541.606 395.748 541.076C392.39 541.004 396.353 533.069 387.827 530.529C378.63 527.798 373.928 538.68 373.928 538.68C373.928 538.68 400.742 542.639 410.275 566.547C433.293 552.364 457.515 563.657 457.515 563.657C457.515 563.657 460.678 552.312 451.492 549.556C442.972 546.985 441.108 555.568 438.331 553.804C418.409 541.138 419.299 557.897 412.229 561.024Z" fill="url(#paint5_radial_308_2521)"/>
<path d="M328.198 504.896C329.256 497.758 346.884 493.367 327.639 479.857C324.957 477.98 333.236 473.686 327.974 467.053C322.287 459.853 311.517 466.137 311.517 466.137C311.517 466.137 330.678 483.822 323.093 508.306C350.791 509.262 363.163 531.473 363.163 531.473C363.163 531.473 372.976 524.011 367.311 516.817C362.054 510.131 355.063 516.071 353.949 513.145C345.921 492.148 335.918 506.182 328.198 504.896Z" fill="url(#paint6_radial_308_2521)"/>
<path d="M296.123 414.116C301.553 408.912 318.621 414.877 311.685 393.546C310.716 390.573 320.16 391.597 320.154 383.364C320.154 374.483 307.425 373.737 307.425 373.737C307.425 373.737 311.607 398.39 289.803 414.106C311.595 429.836 307.391 454.484 307.391 454.484C307.391 454.484 320.115 453.749 320.132 444.868C320.132 436.64 310.7 437.668 311.668 434.681C318.621 413.37 301.547 419.325 296.123 414.116Z" fill="url(#paint7_radial_308_2521)"/>
<path d="M328.26 323.359C335.98 322.078 345.972 336.122 354.011 315.131C355.13 312.204 362.116 318.134 367.379 311.464C373.049 304.264 363.236 296.803 363.236 296.803C363.236 296.803 350.848 319.008 323.155 319.944C330.724 344.438 311.551 362.112 311.551 362.112C311.551 362.112 322.31 368.381 328.009 361.207C333.287 354.553 324.997 350.274 327.678 348.397C346.963 334.903 329.313 330.501 328.26 323.359Z" fill="url(#paint8_radial_308_2521)"/>
<path d="M370.569 149.081C374.673 147.626 378.989 146.739 383.377 146.448C378.788 145.643 374.094 145.47 369.45 145.934C365.399 148.07 361.716 150.748 358.522 153.879C362.258 151.742 366.318 150.125 370.569 149.081Z" fill="url(#paint9_radial_308_2521)"/>
<path d="M558.07 149.139C562.321 150.177 566.381 151.789 570.116 153.922C566.924 150.788 563.241 148.109 559.189 145.972C554.545 145.51 549.851 145.683 545.262 146.486C549.651 146.783 553.967 147.677 558.07 149.139Z" fill="url(#paint10_radial_308_2521)"/>
<path d="M557.885 679.255C553.781 680.71 549.465 681.598 545.077 681.888C549.666 682.693 554.36 682.867 559.005 682.402C563.057 680.272 566.74 677.598 569.932 674.468C566.197 676.603 562.137 678.216 557.885 679.255Z" fill="url(#paint11_radial_308_2521)"/>
<path d="M370.385 679.196C366.133 678.159 362.074 676.547 358.338 674.414C361.532 677.547 365.214 680.228 369.265 682.369C373.91 682.831 378.603 682.657 383.192 681.855C378.803 681.557 374.487 680.661 370.385 679.196Z" fill="url(#paint12_radial_308_2521)"/>
<path d="M218.732 577.909C215.959 574.773 213.708 571.275 212.054 567.531C212.63 571.794 213.894 575.953 215.804 579.873C219.268 582.753 223.179 585.143 227.409 586.965C224.043 584.359 221.118 581.307 218.732 577.909Z" fill="url(#paint13_radial_308_2521)"/>
<path d="M160.849 414.079C160.61 410.043 161.025 405.996 162.081 402.072C159.822 405.829 158.184 409.874 157.222 414.074C158.181 418.275 159.815 422.322 162.069 426.082C161.02 422.158 160.609 418.114 160.849 414.079Z" fill="url(#paint14_radial_308_2521)"/>
<path d="M218.849 250.281C221.235 246.887 224.157 243.839 227.521 241.236C223.289 243.055 219.376 245.444 215.91 248.322C214 252.242 212.734 256.402 212.154 260.664C213.813 256.917 216.069 253.418 218.849 250.281Z" fill="url(#paint15_radial_308_2521)"/>
<path d="M540.33 643.94C541.243 641.127 536.82 635.48 534.643 632.899C534.94 631.526 538.203 632.127 541.08 631.695C543.689 630.492 545.945 628.245 547.059 629.196C546.947 632.462 546.981 639.414 549.516 641.204C552.802 643.528 573.492 650.795 588.629 646.017C598.442 642.968 591.176 633.711 593.292 631.315C619.076 633.254 607.796 604.574 599.164 596.572C580.585 579.35 576.823 596.541 576.129 596.639C569.064 584.102 546.342 609.094 563.321 619.266C564.698 620.094 566.025 618.921 566.999 617.584C572.457 622.727 576.291 616.669 572.098 614.124C569.473 612.498 564.782 603.839 579.118 601.895C600.989 605.906 595.777 638.34 567.195 633.305C527.45 624.804 529.526 572.654 569.238 554.625C560.052 564.951 557.253 584.287 557.253 584.287C577.288 579.53 567.083 564.694 575.687 555.185C588.198 550.619 600.39 564.118 611.513 548.089C611.513 548.089 590.633 544.551 577.103 549.38C608.07 520.273 662.689 534.621 659.179 571.955C655.54 598.485 620.358 592.993 622.977 572.644C629.421 560.724 636.939 567.502 637.806 570.299C639.144 574.753 646.589 573.272 642.973 566.915C644.653 566.478 646.282 565.681 645.85 564.226C640.56 546.227 607.656 558.348 618.421 568.402C618.113 568.983 599.153 566.941 611.222 588.504C616.82 598.521 643.029 617.255 649.002 594.135C652.137 593.024 659.47 602.234 665.661 594.608C675.295 582.867 674.181 562.549 672.793 558.955C671.724 556.183 664.542 554.008 661.127 553.092C660.489 551.822 663.512 550.521 665.561 548.644C666.899 546.263 667.29 543.224 668.802 543.394C670.8 546.093 675.273 551.704 678.469 551.781C682.617 551.884 704.001 546.592 713.176 534.554C719.166 526.789 707.371 523.24 707.578 520.155C729.679 507.813 702.199 490.688 690.096 488.878C664.044 484.98 672.004 500.917 671.506 501.369C657.768 495.044 655.372 527.534 675.626 526.603C677.271 526.531 677.596 524.87 677.529 523.261C685.226 524.459 684.459 517.501 679.438 517.707C676.275 517.81 666.932 513.331 677.294 504.023C697.553 495.455 714.094 524.51 687.745 535.87C650.166 550.449 618.466 507.144 639.043 471.111C638.215 484.425 648.319 501.58 648.319 501.58C661.485 486.914 643.746 480.419 644.613 468.082C651.812 457.632 670.319 461.973 669.065 442.997C669.065 442.997 649.909 451.41 642.05 462.621C648.476 422.355 701.846 404.469 722.894 436.569C736.928 459.993 704.947 474.551 694.048 456.671C691.63 443.547 702.053 444.971 704.544 446.766C708.463 449.646 713.551 444.432 706.56 441.243C707.64 439.978 708.446 438.456 707.164 437.51C691.378 425.816 672.508 453.379 687.667 455.688C687.784 456.321 671.142 464.909 694.703 475.837C705.647 480.912 738.831 481.925 728.85 459.993C730.675 457.421 742.498 460.898 742.627 451.379C742.912 436.677 729.007 420.843 725.587 418.683C722.95 417.022 715.74 419.136 712.398 420.226C711.066 419.542 712.695 416.878 713.137 414.23C712.695 411.581 711.066 408.918 712.398 408.239C715.757 409.339 722.95 411.463 725.587 409.781C729.013 407.627 742.94 391.783 742.655 377.096C742.532 367.577 730.703 371.064 728.878 368.477C738.854 346.549 705.669 347.542 694.731 352.607C671.159 363.52 687.795 372.118 687.678 372.755C672.519 375.054 691.372 402.633 707.164 390.944C708.446 389.998 707.646 388.476 706.56 387.211C713.557 384.028 708.485 378.808 704.556 381.688C702.059 383.478 691.636 384.897 694.06 371.773C704.97 353.903 736.939 368.482 722.894 391.896C701.818 423.985 648.442 406.069 642.066 365.798C649.903 377.013 669.071 385.437 669.071 385.437C670.336 366.461 651.829 370.791 644.636 360.336C643.774 347.994 661.525 341.515 648.364 326.838C648.364 326.838 638.249 343.988 639.066 357.302C618.505 321.253 650.262 277.969 687.801 292.574C714.145 303.949 697.581 332.994 677.327 324.416C666.977 315.098 676.32 310.624 679.483 310.732C684.521 310.943 685.271 303.98 677.579 305.173C677.646 303.568 677.322 301.902 675.676 301.83C655.423 300.889 657.796 333.379 671.534 327.064C672.037 327.512 664.066 343.448 690.119 339.566C702.221 337.761 729.712 320.662 707.623 308.299C707.444 305.214 719.25 301.655 713.266 293.9C704.085 281.852 682.707 276.55 678.559 276.653C675.363 276.73 670.89 282.309 668.886 285.035C667.374 285.199 666.988 282.165 665.65 279.784C663.601 277.876 660.579 276.601 661.217 275.331C664.631 274.416 671.819 272.245 672.888 269.474C674.282 265.874 675.407 245.566 665.785 233.816C659.593 226.184 652.26 235.389 649.125 234.278C643.164 211.137 616.954 229.876 611.34 239.889C599.254 261.446 618.214 259.43 618.522 259.991C607.729 270.039 640.628 282.17 645.923 264.187C646.354 262.732 644.737 261.93 643.052 261.492C646.673 255.141 639.228 253.655 637.89 258.109C637.017 260.906 629.493 267.684 623.061 255.753C620.453 235.405 655.641 229.933 659.263 256.463C662.745 293.803 608.115 308.114 577.17 278.992C590.7 283.826 611.58 280.304 611.58 280.304C600.468 264.269 588.265 277.763 575.754 273.187C567.155 263.668 577.366 248.842 557.337 244.075C557.337 244.075 560.136 263.411 569.305 273.742C529.605 255.681 527.578 203.531 567.318 195.062C595.901 190.043 601.09 222.482 579.219 226.477C564.877 224.533 569.574 215.868 572.205 214.243C576.403 211.703 572.569 205.655 567.105 210.782C566.131 209.445 564.804 208.273 563.427 209.101C546.443 219.273 569.148 244.281 576.224 231.728C576.918 231.825 580.669 249.017 599.259 231.81C607.897 223.813 619.199 195.139 593.415 197.062C591.299 194.666 598.565 185.414 588.758 182.36C573.643 177.572 552.931 184.823 549.64 187.147C547.104 188.937 547.07 195.89 547.177 199.15C546.057 200.101 543.818 197.854 541.198 196.651C538.321 196.219 535.04 196.815 534.766 195.442C536.944 192.871 541.366 187.214 540.459 184.406C539.289 180.745 527.198 163.698 511.91 159.393C502.018 156.56 501.974 167.971 498.727 168.763C479.106 153.274 469.881 182.571 471.745 193.704C475.759 217.668 489.804 205.789 490.425 206.087C488.119 220.044 522.495 212.094 515.274 194.686C514.714 193.272 512.867 193.504 511.227 194.059C510.107 186.962 503.116 189.78 504.884 194.105C505.97 196.841 504.218 206.385 491.377 200.209C476.262 185.152 501.218 161.728 521.124 181.234C547.826 209.564 512.794 250.657 469.125 243.792C483.159 240.398 497.798 226.266 497.798 226.266C478.546 219.293 477.309 236.803 464.266 239.858C451.223 236.772 449.997 219.288 430.74 226.246C430.74 226.246 445.368 240.388 459.402 243.787C415.738 250.611 380.723 209.512 407.448 181.203C427.365 161.702 452.32 185.147 437.178 200.194C424.336 206.365 422.59 196.815 423.681 194.079C425.45 189.76 418.481 186.937 417.339 194.028C415.693 193.473 413.874 193.241 413.286 194.655C406.054 212.063 440.425 220.029 438.13 206.072C438.751 205.774 452.785 217.663 456.815 193.699C458.691 182.571 449.482 153.264 429.856 168.742C426.609 167.945 426.57 156.534 416.679 159.363C401.374 163.662 389.249 180.699 388.096 184.36C387.189 187.178 391.611 192.82 393.789 195.401C393.492 196.774 390.229 196.173 387.351 196.604C384.743 197.808 382.492 200.055 381.373 199.104C381.485 195.838 381.451 188.886 378.915 187.096C375.629 184.772 354.939 177.505 339.803 182.288C329.99 185.332 337.256 194.589 335.134 196.985C309.384 195.046 320.636 223.726 329.268 231.728C347.847 248.95 351.609 231.759 352.303 231.666C359.367 244.198 382.089 219.206 365.111 209.039C363.734 208.211 362.407 209.384 361.433 210.721C355.975 205.578 352.14 211.636 356.333 214.181C358.959 215.807 363.65 224.466 349.314 226.41C327.443 222.399 332.654 189.966 361.237 195C400.982 203.501 398.905 255.651 359.194 273.68C368.402 263.375 371.201 244.039 371.201 244.039C351.166 248.796 361.366 263.632 352.767 273.14C340.256 277.712 328.064 264.208 316.941 280.237C316.941 280.237 337.821 283.775 351.351 278.946C320.384 308.053 265.765 293.705 269.275 256.371C272.914 229.84 308.096 235.333 305.477 255.681C299.033 267.602 291.515 260.824 290.642 258.026C289.31 253.573 281.865 255.054 285.481 261.41C283.801 261.847 282.173 262.644 282.604 264.1C287.894 282.098 320.798 269.978 310.033 259.924C310.341 259.343 329.301 261.384 317.232 239.822C311.634 229.81 285.425 211.07 279.452 234.165C276.317 235.276 268.984 226.066 262.793 233.692C253.159 245.438 254.273 265.756 255.661 269.35C256.73 272.117 263.912 274.292 267.327 275.207C267.971 276.478 264.942 277.753 262.893 279.656C261.555 282.037 261.164 285.076 259.652 284.906C257.654 282.206 253.181 276.596 249.985 276.519C245.837 276.416 224.453 281.708 215.278 293.746C209.288 301.511 221.083 305.06 220.876 308.145C198.775 320.487 226.255 337.612 238.358 339.422C264.41 343.32 256.45 327.383 256.948 326.931C270.686 333.256 273.082 300.766 252.828 301.696C251.183 301.768 250.858 303.435 250.925 305.039C243.228 303.841 243.995 310.799 249.016 310.593C252.179 310.49 261.522 314.969 251.16 324.277C230.901 332.845 214.36 303.789 240.709 292.43C278.288 277.851 309.988 321.156 289.411 357.189C290.239 343.88 280.135 326.72 280.135 326.72C266.969 341.386 284.708 347.881 283.841 360.218C276.642 370.668 258.135 366.332 259.389 385.303C259.389 385.303 278.545 376.895 286.404 365.679C279.978 405.95 226.608 423.831 205.56 391.731C191.526 368.307 223.507 353.754 234.406 371.629C236.824 384.753 226.401 383.328 223.904 381.534C219.986 378.654 214.903 383.868 221.894 387.062C220.814 388.322 220.008 389.844 221.29 390.79C237.076 402.489 255.946 374.92 240.787 372.611C240.67 371.979 257.312 363.391 233.751 352.463C222.807 347.388 189.623 346.374 199.604 368.307C197.779 370.878 185.956 367.407 185.827 376.921C185.542 391.623 199.447 407.457 202.867 409.617C205.504 411.283 212.714 409.164 216.061 408.074C217.388 408.758 215.759 411.422 215.317 414.07C215.759 416.719 217.388 419.382 216.056 420.066C212.697 418.961 205.504 416.837 202.867 418.524C199.441 420.678 185.514 436.522 185.799 451.209C185.922 460.728 197.745 457.241 199.576 459.828C189.6 481.756 222.785 480.763 233.723 475.698C257.295 464.786 240.659 456.187 240.776 455.55C255.935 453.251 237.082 425.677 221.29 437.361C220.008 438.307 220.808 439.829 221.894 441.094C214.897 444.277 219.969 449.497 223.898 446.622C226.395 444.827 236.818 443.408 234.395 456.532C223.484 474.402 191.515 459.828 205.56 436.409C226.636 404.32 280.012 422.237 286.388 462.507C278.551 451.292 259.389 442.868 259.389 442.868C258.118 461.844 276.625 457.514 283.818 467.969C284.68 480.311 266.935 486.79 280.09 501.467C280.09 501.467 290.205 484.317 289.388 471.003C309.949 507.052 278.192 550.336 240.653 535.731C214.309 524.356 230.873 495.311 251.127 503.889C261.477 513.207 252.134 517.681 248.971 517.573C243.933 517.362 243.183 524.325 250.875 523.132C250.808 524.737 251.132 526.403 252.778 526.475C273.031 527.416 270.658 494.926 256.92 501.241C256.417 500.793 264.388 484.857 238.335 488.739C226.233 490.544 198.742 507.643 220.831 520.011C221.01 523.096 209.204 526.65 215.194 534.41C224.369 546.459 245.747 551.766 249.901 551.658C253.097 551.586 257.57 546.001 259.574 543.281C261.085 543.111 261.471 546.145 262.809 548.531C264.858 550.434 267.881 551.709 267.243 552.979C263.828 553.895 256.641 556.065 255.571 558.837C254.177 562.436 253.052 582.744 262.675 594.495C268.866 602.126 276.2 592.921 279.334 594.032C285.296 617.173 311.505 598.434 317.12 588.421C329.206 566.869 310.246 568.88 309.932 568.319C320.731 558.271 287.832 546.14 282.536 564.123C282.1 565.578 283.723 566.381 285.408 566.818C281.786 573.169 289.231 574.655 290.569 570.201C291.443 567.404 298.966 560.631 305.398 572.557C308.007 592.906 272.818 598.377 269.197 571.847C265.715 534.507 320.344 520.196 351.29 549.318C337.76 544.484 316.879 548.007 316.879 548.007C327.991 564.046 340.195 550.547 352.706 555.124C361.304 564.642 351.094 579.468 371.123 584.235C371.123 584.235 368.324 564.9 359.155 554.568C398.855 572.629 400.881 624.779 361.142 633.248C332.559 638.268 327.37 605.829 349.241 601.833C363.583 603.777 358.886 612.442 356.255 614.067C352.057 616.607 355.891 622.655 361.355 617.533C362.329 618.87 363.655 620.037 365.027 619.209C382.016 609.038 359.311 584.03 352.236 596.582C351.542 596.49 347.791 579.293 329.2 596.5C320.563 604.497 309.261 633.171 335.045 631.248C337.161 633.644 329.895 642.896 339.702 645.95C354.816 650.738 375.528 643.487 378.82 641.163C381.356 639.373 381.389 632.421 381.283 629.16C382.403 628.209 384.642 630.456 387.262 631.659C390.139 632.091 393.419 631.495 393.694 632.868C391.516 635.439 387.094 641.096 388.001 643.904C389.171 647.565 401.262 664.613 416.55 668.917C426.413 671.74 426.452 660.334 429.705 659.552C449.297 675.041 458.551 645.745 456.687 634.611C452.673 610.647 438.628 622.526 438.007 622.228C440.313 608.271 405.936 616.222 413.157 633.629C413.717 635.043 415.565 634.812 417.205 634.256C418.324 641.353 425.316 638.535 423.547 634.21C422.461 631.474 424.213 621.935 437.055 628.106C452.169 643.163 427.214 666.587 407.308 647.082C380.606 618.752 415.637 577.658 459.306 584.523C445.273 587.917 430.634 602.049 430.634 602.049C449.885 609.022 451.122 591.512 464.165 588.462C477.208 591.522 478.434 609.032 497.691 602.07C497.691 602.07 483.064 587.933 469.03 584.528C512.694 577.704 547.708 618.803 520.984 647.113C501.067 666.613 476.111 643.168 491.254 628.121C504.095 621.95 505.842 631.5 504.75 634.236C502.981 638.556 509.951 641.379 511.092 634.287C512.738 634.843 514.558 635.074 515.145 633.66C522.372 616.258 488.007 608.287 490.302 622.244C489.681 622.542 475.647 610.652 471.616 634.616C469.741 645.75 478.949 675.052 498.576 659.573C501.822 660.37 501.862 671.781 511.753 668.953C527.058 664.638 539.155 647.601 540.33 643.94ZM522.132 582.379C517.911 577.236 492.799 565.959 481.989 579.165C481.53 579.165 480.987 579.134 480.455 579.119C477.774 571.919 472.187 570.443 464.171 572.948C456.155 570.433 450.568 571.919 447.881 579.119C447.321 579.119 446.806 579.155 446.353 579.16C435.549 565.949 410.431 577.211 406.205 582.353C400.797 588.884 408.377 592.885 406.356 594.798C404.425 594.469 402.476 594.239 400.517 594.109C398.849 593.155 397.124 592.286 395.351 591.507C394.942 588.869 403.635 589.733 403.445 581.525C403.322 575.087 390.217 552.403 373.021 557.248C372.657 556.996 372.237 556.682 371.817 556.389C374.258 549.107 370.697 544.906 362.586 542.602C357.71 536.24 352.252 534.41 345.468 538.791C345.031 538.513 344.578 538.241 344.203 537.999C343.917 521.476 316.387 517.023 309.681 518.905C301.127 521.266 304.698 528.599 301.843 529.051C300.494 527.741 299.064 526.504 297.561 525.344C296.823 523.672 295.984 522.039 295.048 520.453C296.402 518.093 302.885 523.487 307.979 516.745C312.004 511.469 315.917 486.039 298.905 480.676C298.77 480.275 298.63 479.791 298.474 479.328C305.113 474.757 304.906 469.424 299.834 463.191C299.951 455.411 296.71 450.983 288.42 450.849C288.246 450.387 288.05 449.924 287.899 449.523C298.244 436.008 278.819 417.536 272.191 415.438C263.761 412.728 261.959 420.581 259.355 419.413C259.091 417.623 258.717 415.848 258.236 414.096C258.713 412.345 259.087 410.572 259.355 408.784C261.959 407.606 263.75 415.469 272.186 412.769C278.819 410.671 298.25 392.199 287.922 378.685L288.442 377.363C296.733 377.25 299.979 372.822 299.862 365.021C304.939 358.794 305.146 353.461 298.518 348.889C298.669 348.421 298.809 347.938 298.944 347.537C315.961 342.183 312.065 316.754 308.046 311.478C302.957 304.731 296.469 310.12 295.115 307.759C296.052 306.173 296.893 304.541 297.634 302.869C299.137 301.709 300.567 300.471 301.916 299.161C304.777 299.619 301.2 306.947 309.753 309.318C316.471 311.2 343.99 306.746 344.287 290.239C344.662 290.002 345.115 289.725 345.552 289.452C352.336 293.834 357.794 292.023 362.676 285.652C370.77 283.353 374.353 279.152 371.912 271.87C372.338 271.572 372.757 271.263 373.121 271.006C390.312 275.866 403.434 253.187 403.563 246.749C403.759 238.521 395.059 239.4 395.479 236.762C397.251 235.985 398.974 235.118 400.641 234.165C402.599 234.034 404.548 233.806 406.479 233.481C408.506 235.389 400.92 239.39 406.322 245.926C410.543 251.069 435.655 262.346 446.465 249.14C446.924 249.14 447.467 249.171 447.999 249.186C450.68 256.386 456.267 257.862 464.283 255.357C472.299 257.867 477.886 256.386 480.573 249.186C481.133 249.186 481.648 249.156 482.101 249.145C492.905 262.356 518.023 251.094 522.249 245.952C527.657 239.421 520.077 235.42 522.098 233.507C524.029 233.836 525.978 234.066 527.937 234.196C529.605 235.15 531.33 236.019 533.103 236.798C533.512 239.436 524.819 238.572 525.009 246.78C525.132 253.218 538.237 275.902 555.433 271.058C555.797 271.31 556.217 271.623 556.637 271.921C554.196 279.198 557.757 283.405 565.868 285.703C570.744 292.065 576.202 293.895 582.986 289.514C583.423 289.792 583.876 290.064 584.251 290.306C584.537 306.829 612.067 311.282 618.774 309.405C627.327 307.04 623.756 299.706 626.611 299.254C627.96 300.564 629.39 301.801 630.893 302.961C631.632 304.635 632.471 306.269 633.406 307.857C632.052 310.212 625.569 304.818 620.475 311.565C616.45 316.836 612.537 342.266 629.549 347.629C629.684 348.03 629.824 348.514 629.98 348.977C623.341 353.548 623.548 358.886 628.62 365.114C628.503 372.894 631.744 377.322 640.034 377.456C640.208 377.918 640.404 378.386 640.555 378.782C630.21 392.302 649.635 410.769 656.263 412.872C664.693 415.577 666.495 407.73 669.098 408.892C669.363 410.682 669.737 412.457 670.218 414.209C669.738 415.959 669.364 417.733 669.098 419.521C666.495 420.699 664.699 412.836 656.263 415.541C649.629 417.634 630.199 436.111 640.527 449.62L640.006 450.942C631.716 451.055 628.469 455.483 628.587 463.284C623.509 469.511 623.302 474.844 629.93 479.421C629.779 479.884 629.639 480.367 629.505 480.768C612.487 486.122 616.383 511.551 620.402 516.828C625.491 523.575 631.979 518.185 633.334 520.546C632.396 522.131 631.557 523.764 630.82 525.436C629.314 526.596 627.88 527.834 626.527 529.144C623.672 528.686 627.249 521.358 618.69 518.987C611.972 517.105 584.453 521.559 584.156 538.066C583.781 538.303 583.328 538.58 582.891 538.853C576.106 534.471 570.648 536.282 565.767 542.653C557.673 544.952 554.09 549.153 556.531 556.435C556.105 556.733 555.685 557.042 555.321 557.299C538.13 552.439 525.009 575.118 524.88 581.556C524.684 589.784 533.383 588.905 532.963 591.543C531.192 592.322 529.469 593.191 527.802 594.145C525.844 594.272 523.895 594.499 521.964 594.824C519.937 592.916 527.534 588.915 522.132 582.379Z" fill="url(#paint16_radial_308_2521)"/>
<path d="M553.9 667.975C600.995 672.706 627.719 646.094 624.097 616.442C653.66 628.784 689.486 613.686 699.165 571.08C740.298 549.482 744.889 513.515 722.99 491.49C754.808 485.514 774.121 453.95 754.696 414.255C774.149 374.57 754.859 342.995 723.04 336.999C744.961 314.984 740.394 279.018 699.277 257.393C689.621 214.783 653.811 199.659 624.265 211.985C627.91 182.339 601.202 155.711 554.107 160.416C519.031 131.156 480.383 138.257 464.345 164.201C448.324 138.247 409.676 131.125 374.583 160.36C327.488 155.629 300.764 182.241 304.385 211.893C274.823 199.551 238.996 214.649 229.318 257.255C188.184 278.853 183.594 314.82 205.493 336.845C173.675 342.826 154.362 374.385 173.787 414.08C154.334 453.765 173.624 485.34 205.443 491.336C183.521 513.351 188.089 549.317 229.206 570.942C238.862 613.552 274.672 628.676 304.217 616.35C300.573 645.996 327.281 672.624 374.376 667.919C409.452 697.18 448.1 690.078 464.138 664.139C480.159 690.088 518.818 697.21 553.9 667.975ZM464.143 653.895C451.599 690.71 402.69 686.509 391.981 671.38C386.428 663.548 383.282 656.004 380.925 649.421C374.807 653.473 367.429 657.875 357.924 661.203C339.59 667.631 297.349 644.598 310.784 608.05C277.079 631.057 240.2 601.251 241.202 583.248C241.717 573.914 244.001 566.108 246.307 559.51C238.767 559.484 229.984 559.062 220.16 556.625C201.216 551.925 181.78 510.481 216.034 488.163C174.05 488.579 163.279 444.555 175.612 430.526C181.999 423.254 188.839 418.184 194.93 414.07C188.845 409.956 182.01 404.891 175.623 397.614C163.307 383.58 174.095 339.56 216.084 340.018C181.848 317.684 201.311 276.251 220.26 271.561C230.085 269.129 238.868 268.712 246.408 268.691C244.107 262.094 241.829 254.293 241.32 244.954C240.334 226.955 277.23 197.159 310.918 220.193C297.483 183.635 339.764 160.627 358.097 167.066C367.613 170.398 374.975 174.779 381.093 178.857C383.45 172.28 386.602 164.736 392.16 156.909C402.88 141.806 451.789 137.63 464.311 174.455C476.856 137.64 525.765 141.842 536.474 156.971C542.027 164.803 545.173 172.347 547.53 178.929C553.648 174.877 561.026 170.48 570.531 167.148C588.864 160.72 631.106 183.753 617.671 220.301C651.376 197.293 688.255 227.099 687.253 245.103C686.738 254.442 684.454 262.243 682.148 268.841C689.688 268.841 698.471 269.288 708.295 271.726C727.239 276.426 746.674 317.869 712.421 340.188C754.405 339.771 765.175 383.796 752.843 397.825C746.456 405.096 739.616 410.167 733.531 414.281C739.61 418.395 746.445 423.465 752.832 430.737C765.147 444.771 754.36 488.79 712.371 488.333C746.607 510.672 727.143 552.099 708.195 556.789C698.37 559.222 689.587 559.638 682.047 559.659C684.348 566.262 686.626 574.058 687.135 583.397C688.121 601.395 651.225 631.191 617.537 608.158C630.972 644.721 588.691 667.728 570.358 661.285C560.841 657.953 553.48 653.545 547.362 649.493C545.005 656.07 541.853 663.614 536.295 671.441C525.569 686.529 476.666 690.705 464.143 653.895Z" fill="url(#paint17_radial_308_2521)"/>
<path d="M374.309 63.3203C374.309 63.3203 355.634 37.9164 379.906 37.4433C379.14 14.2455 395.821 22.3193 397.926 21.1262C404.61 17.3362 401.733 0.725922 423.049 11.3555C426.011 12.8365 426.862 4.15598 435.633 5.83757C445.088 7.6683 443.275 19.2595 443.275 19.2595C443.275 19.2595 392.043 1.44069 374.309 63.3203Z" fill="url(#paint18_radial_308_2521)"/>
<path d="M167.002 178.883C167.002 178.883 135.653 168.413 154.977 154.919C139.516 136.56 158.174 134.087 159.114 131.983C162.098 125.298 149.144 113.424 173.187 110.513C176.546 110.112 171.648 102.609 179.832 99.2513C188.66 95.6515 194.599 105.983 194.599 105.983C194.599 105.983 141.75 119.245 167.002 178.883Z" fill="url(#paint19_radial_308_2521)"/>
<path d="M73.226 384.312C73.226 384.312 41.1501 392.782 48.1698 371.42C23.9086 364.915 37.4219 352.84 36.8397 350.634C34.9812 343.62 16.8944 340.997 34.483 325.662C36.9349 323.528 28.1854 320.098 32.6581 312.96C37.4778 305.246 48.8919 310.435 48.8919 310.435C48.8919 310.435 14.6385 349.698 73.226 384.312Z" fill="url(#paint20_radial_308_2521)"/>
<path d="M128.79 601.145C128.79 601.145 108.263 625.315 100.269 604.231C76.4837 612.068 79.6913 594.974 77.8048 593.529C71.8151 588.86 55.5084 596.507 59.9252 574.6C60.5409 571.555 51.2652 573.499 50.3192 565.312C49.2948 556.483 61.8509 554.513 61.8509 554.513C61.8509 554.513 59.2311 604.776 128.79 601.145Z" fill="url(#paint21_radial_308_2521)"/>
<path d="M312.485 746.556C312.485 746.556 311.366 777.2 291.398 764.468C277.168 783.649 268.844 768.114 266.376 767.939C258.539 767.394 250.237 782.389 239.797 762.282C238.347 759.484 232.089 766.067 226.082 759.952C219.605 753.36 228.489 744.967 228.489 744.967C228.489 744.967 258.55 787.043 312.485 746.556Z" fill="url(#paint22_radial_308_2521)"/>
<path d="M554.146 765.015C554.146 765.015 572.821 790.419 548.548 790.892C549.31 814.095 532.628 806.016 530.523 807.209C523.839 810.999 526.717 827.614 505.405 816.98C502.438 815.499 501.588 824.179 492.816 822.503C483.361 820.667 485.175 809.081 485.175 809.081C485.175 809.081 536.412 826.894 554.146 765.015Z" fill="url(#paint23_radial_308_2521)"/>
<path d="M554.387 63.3789C554.387 63.3789 573.084 37.9802 548.789 37.4968C549.567 14.2938 532.88 22.3624 530.781 21.1642C524.097 17.3742 526.98 0.763935 505.663 11.3935C502.696 12.8745 501.851 4.19398 493.079 5.86529C483.619 7.69087 485.432 19.282 485.432 19.282C485.432 19.282 536.731 1.48901 554.387 63.3789Z" fill="url(#paint24_radial_308_2521)"/>
<path d="M312.721 81.6852C312.721 81.6852 311.601 51.0462 291.644 63.7636C277.426 44.577 269.091 60.1073 266.622 60.277C258.785 60.7913 250.494 45.8215 240.043 65.9338C238.588 68.7262 232.335 62.1438 226.323 68.253C219.84 74.8406 228.724 83.2383 228.724 83.2383C228.724 83.2383 258.813 41.1675 312.721 81.6852Z" fill="url(#paint25_radial_308_2521)"/>
<path d="M128.92 226.996C128.92 226.996 108.409 202.827 100.404 223.875C76.6243 216.027 79.8151 233.095 77.9286 234.566C71.9389 239.23 55.6322 231.578 60.0154 253.485C60.6256 256.53 51.3555 254.581 50.4038 262.768C49.3738 271.597 61.9299 273.598 61.9299 273.598C61.9299 273.598 59.3828 223.325 128.92 226.996Z" fill="url(#paint26_radial_308_2521)"/>
<path d="M73.2255 443.795C73.2255 443.795 41.1552 435.31 48.1581 456.652C23.8689 463.162 37.399 475.247 36.7888 477.453C34.9303 484.462 16.838 487.08 34.4153 502.425C36.8616 504.559 28.1121 507.984 32.5792 515.127C37.399 522.841 48.8131 517.662 48.8131 517.662C48.8131 517.662 14.5932 478.374 73.2255 443.795Z" fill="url(#paint27_radial_308_2521)"/>
<path d="M166.833 649.269C166.833 649.269 135.485 659.713 154.792 673.218C139.32 691.571 157.977 694.055 158.912 696.158C161.896 702.843 148.931 714.712 172.974 717.638C176.333 718.04 171.429 725.537 179.613 728.906C188.436 732.531 194.386 722.179 194.386 722.179C194.386 722.179 141.548 708.922 166.833 649.269Z" fill="url(#paint28_radial_308_2521)"/>
<path d="M374.067 764.973C374.067 764.973 355.37 790.372 379.665 790.855C378.887 814.058 395.574 805.995 397.674 807.188C404.358 810.978 401.475 827.588 422.791 816.958C425.758 815.482 426.604 824.184 435.375 822.487C444.836 820.661 443.022 809.07 443.022 809.07C443.022 809.07 391.745 826.847 374.067 764.973Z" fill="url(#paint29_radial_308_2521)"/>
<path d="M364.098 14.809C340.212 19.2882 358.338 68.291 368.84 78C333.265 60.7778 329.408 2.2665 368.548 0.790611C380.645 0.332924 389.031 15.3953 379.705 27.2333C370.687 38.6754 349.588 28.8841 364.098 14.809Z" fill="url(#paint30_radial_308_2521)"/>
<path d="M127.694 145.143C111.236 161.666 157.239 191.508 171.962 193.709C132.161 198.985 91.6097 153.731 122.325 131.402C131.842 124.496 148.244 132.153 148.272 146.768C148.3 160.894 124.962 164.365 127.694 145.143Z" fill="url(#paint31_radial_308_2521)"/>
<path d="M19.8331 378.259C17.0957 400.51 73.4048 399.811 86.7222 393.645C57.8987 419.399 -3.86839 404.686 6.67244 370.036C9.936 359.329 28.1235 356.665 37.5 368.457C46.5798 379.858 29.9205 395.27 19.8331 378.259Z" fill="url(#paint32_radial_308_2521)"/>
<path d="M81.7182 625.061C93.7425 644.541 138.85 613.573 145.674 601.406C138.839 637.81 79.4567 659.254 65.8314 625.519C61.6162 615.095 74.6201 603.108 89.7568 607.597C104.395 611.927 100.773 633.387 81.7182 625.061Z" fill="url(#paint33_radial_308_2521)"/>
<path d="M289.708 791.329C311.898 800.586 328.58 751.182 326.307 737.642C344.063 770.785 309.748 820.199 277.141 800.267C267.064 794.096 269.908 777.388 285.028 772.847C299.65 768.461 310.454 787.776 289.708 791.329Z" fill="url(#paint34_radial_308_2521)"/>
<path d="M564.357 813.534C588.243 809.05 570.117 760.052 559.616 750.338C595.19 767.56 599.047 826.071 559.907 827.553C547.81 828.005 539.424 812.948 548.75 801.105C557.768 789.658 578.867 799.428 564.357 813.534Z" fill="url(#paint35_radial_308_2521)"/>
<path d="M638.747 37.0077C616.557 27.7512 599.881 77.1551 602.148 90.6953C584.391 57.5519 618.706 8.13771 651.314 28.07C661.39 34.241 658.546 50.9489 643.427 55.4898C628.805 59.8815 618.001 40.5611 638.747 37.0077Z" fill="url(#paint36_radial_308_2521)"/>
<path d="M564.636 14.8637C588.517 19.3634 570.357 68.3457 559.85 78.0547C595.436 60.853 599.332 2.34689 560.197 0.845276C548.1 0.377312 539.698 15.4345 549.001 27.2777C558.031 38.73 579.135 28.949 564.636 14.8637Z" fill="url(#paint37_radial_308_2521)"/>
<path d="M289.971 36.905C312.172 27.6486 328.814 77.0731 326.531 90.6133C344.315 57.4802 310.034 8.04537 277.409 27.9622C267.333 34.1332 270.132 50.8361 285.28 55.3872C299.896 59.784 310.711 40.4739 289.971 36.905Z" fill="url(#paint38_radial_308_2521)"/>
<path d="M81.8632 203.047C93.8987 183.572 138.99 214.571 145.808 226.754C138.995 190.35 79.6297 168.87 65.9764 202.584C61.7556 213.008 74.7483 225 89.8906 220.521C104.529 216.196 100.924 194.732 81.8632 203.047Z" fill="url(#paint39_radial_308_2521)"/>
<path d="M19.8056 449.832C17.0851 427.581 73.3942 428.311 86.706 434.487C57.9048 408.713 -3.87344 423.39 6.65619 458.045C9.90856 468.757 28.0961 471.446 37.4782 459.644C46.5579 448.233 29.9098 432.816 19.8056 449.832Z" fill="url(#paint40_radial_308_2521)"/>
<path d="M127.525 682.991C111.084 666.458 157.11 636.647 171.833 634.456C132.037 629.154 91.447 674.387 122.146 696.731C131.634 703.643 148.07 695.996 148.109 681.381C148.12 667.265 124.788 663.768 127.525 682.991Z" fill="url(#paint41_radial_308_2521)"/>
<path d="M363.818 813.474C339.937 808.974 358.097 759.992 368.604 750.283C333.018 767.485 329.122 825.991 368.257 827.497C380.354 827.96 388.756 812.903 379.453 801.06C370.423 789.608 349.319 799.389 363.818 813.474Z" fill="url(#paint42_radial_308_2521)"/>
<path d="M638.483 791.433C616.282 800.69 599.64 751.265 601.924 737.725C584.139 770.858 618.421 820.293 651.045 800.376C661.121 794.205 658.322 777.502 643.174 772.956C628.536 768.575 617.743 787.864 638.483 791.433Z" fill="url(#paint43_radial_308_2521)"/>
<path d="M320.916 8.5132C324.235 11.969 327.074 16.7412 328.675 23.0665C333.791 42.9679 342.053 49.0978 342.053 49.0978C339.199 48.8485 336.481 47.8586 334.216 46.2437C333.427 48.7648 331.874 51.028 329.738 52.7695C329.738 52.7695 332.537 43.3485 323.928 24.4858C321.213 18.5308 320.434 13.1414 320.916 8.5132Z" fill="url(#paint44_radial_308_2521)"/>
<path d="M607.824 8.62222C608.3 13.2093 607.511 18.6141 604.79 24.5639C596.197 43.4266 598.963 52.8477 598.963 52.8477C596.827 51.1065 595.273 48.8432 594.485 46.3219C592.219 47.935 589.501 48.923 586.647 49.1708C586.647 49.1708 594.916 43.0461 600.043 23.1498C601.667 16.8708 604.499 12.078 607.824 8.62222Z" fill="url(#paint45_radial_308_2521)"/>
<path d="M607.539 819.805C604.219 816.349 601.381 811.551 599.78 805.251C594.664 785.35 586.401 779.22 586.401 779.22C589.256 779.469 591.974 780.459 594.238 782.074C595.028 779.553 596.581 777.29 598.717 775.548C598.717 775.548 595.918 784.969 604.527 803.832C607.265 809.808 608.02 815.212 607.539 819.805Z" fill="url(#paint46_radial_308_2521)"/>
<path d="M320.653 819.715C320.177 815.128 320.966 809.723 323.687 803.773C332.279 784.91 329.514 775.489 329.514 775.489C331.648 777.232 333.201 779.495 333.992 782.015C336.258 780.402 338.976 779.414 341.829 779.166C341.829 779.166 333.561 785.291 328.434 805.187C326.81 811.466 323.955 816.264 320.653 819.715Z" fill="url(#paint47_radial_308_2521)"/>
<path d="M88.5693 664.727C91.122 660.757 95.214 656.807 101.237 653.449C120.27 642.83 124.049 633.717 124.049 633.717C124.663 636.285 124.469 638.961 123.489 641.431C126.347 641.348 129.172 642.013 131.634 643.349C131.634 643.349 121.026 643.838 104.143 657.167C98.8247 661.374 93.4675 663.729 88.5693 664.727Z" fill="url(#paint48_radial_308_2521)"/>
<path d="M0 414.028C4.60146 412.197 10.4401 411.215 17.4598 411.745C39.6442 413.426 48.5449 408.099 48.5449 408.099C47.4069 410.507 45.547 412.569 43.1821 414.044C45.5435 415.52 47.401 417.581 48.5393 419.988C48.5393 419.988 39.6442 414.661 17.4598 416.327C10.4401 416.826 4.60146 415.869 0 414.028Z" fill="url(#paint49_radial_308_2521)"/>
<path d="M88.7432 163.39C93.6469 164.392 98.9985 166.748 104.339 170.97C121.211 184.309 131.813 184.803 131.813 184.803C129.353 186.138 126.53 186.801 123.674 186.716C124.642 189.189 124.827 191.864 124.206 194.43C124.206 194.43 120.422 185.317 101.406 174.688C95.3879 171.309 91.2958 167.36 88.7432 163.39Z" fill="url(#paint50_radial_308_2521)"/>
<path d="M368.128 142.178C373.006 143.623 378.121 144.274 383.242 144.101C378.784 145.358 374.147 145.999 369.483 146.004C365.707 148.516 361.545 150.499 357.134 151.887C361.385 149.263 365.106 145.977 368.128 142.178Z" fill="url(#paint51_radial_308_2521)"/>
<path d="M560.517 142.218C563.535 146.022 567.254 149.311 571.505 151.938C567.095 150.544 562.933 148.558 559.156 146.044C554.494 146.037 549.859 145.394 545.402 144.136C550.523 144.308 555.638 143.659 560.517 142.218Z" fill="url(#paint52_radial_308_2521)"/>
<path d="M560.326 686.16C555.449 684.715 550.334 684.064 545.212 684.237C549.671 682.98 554.308 682.339 558.971 682.334C562.749 679.821 566.913 677.838 571.326 676.451C567.071 679.074 563.349 682.36 560.326 686.16Z" fill="url(#paint53_radial_308_2521)"/>
<path d="M367.938 686.102C364.92 682.298 361.201 679.009 356.949 676.382C361.36 677.776 365.521 679.762 369.298 682.276C373.96 682.285 378.595 682.927 383.052 684.183C377.931 684.012 372.817 684.661 367.938 686.102Z" fill="url(#paint54_radial_308_2521)"/>
<path d="M212.333 582.177C212.325 577.47 211.42 572.8 209.657 568.38C212.337 571.886 214.435 575.739 215.882 579.811C219.648 582.337 222.985 585.361 225.785 588.785C221.755 585.878 217.203 583.641 212.333 582.177Z" fill="url(#paint55_radial_308_2521)"/>
<path d="M152.945 414.077C155.947 410.263 158.201 405.998 159.607 401.473C159.529 405.754 158.761 410.002 157.328 414.077C158.757 418.156 159.523 422.407 159.601 426.691C158.197 422.163 155.945 417.894 152.945 414.077Z" fill="url(#paint56_radial_308_2521)"/>
<path d="M212.451 246.012C217.313 244.545 221.859 242.311 225.886 239.41C223.084 242.834 219.742 245.857 215.972 248.378C214.524 252.449 212.426 256.3 209.747 259.805C211.516 255.387 212.431 250.719 212.451 246.012Z" fill="url(#paint57_radial_308_2521)"/>
<path d="M589.715 59.7668C586.871 62.8883 585.612 67.9948 584.783 73.6875C587.772 68.6221 590.012 63.8294 589.715 59.7668Z" fill="url(#paint58_radial_308_2521)"/>
<path d="M343.906 73.6172C343.083 67.9039 341.829 62.818 338.991 59.6965C338.689 63.7539 340.923 68.5518 343.906 73.6172Z" fill="url(#paint59_radial_308_2521)"/>
<path d="M376.715 90.9623C378.68 96.254 387.144 92.1194 387.911 94.3718C386.047 97.1539 382.313 103.196 383.545 105.906C385.134 109.429 399.152 125.181 414.893 127.952C425.059 129.788 423.765 118.439 426.9 117.328C448.217 130.791 453.96 100.748 450.803 89.867C444.002 66.4378 431.435 79.6386 430.78 79.402C431.435 65.3013 398.194 76.5994 407.408 93.1942C408.153 94.5415 409.939 94.1301 411.506 93.4205C413.471 100.358 420.071 96.866 417.809 92.7468C416.41 90.1344 417.031 80.4717 430.522 85.3416C447.316 98.8098 425.243 124.574 403.171 107.146C373.3 81.6236 403.322 37.321 447.54 39.81C433.982 44.5719 421.084 60.0714 421.084 60.0714C445.715 66.2784 438.684 38.0872 464.384 42.8441C490.089 38.1027 483.025 66.2887 507.678 60.092C507.678 60.092 494.803 44.5925 481.233 39.8203C525.457 37.357 555.439 81.675 525.552 107.187C503.468 124.599 481.407 98.8252 498.223 85.3673C511.714 80.5025 512.33 90.1653 510.925 92.7776C508.685 96.8916 515.257 100.394 517.228 93.4565C518.795 94.1713 520.586 94.5775 521.325 93.2353C530.556 76.6457 497.316 65.3219 497.965 79.4278C497.31 79.6643 484.749 66.4532 477.936 89.8824C474.768 100.759 480.489 130.806 501.817 117.359C504.952 118.47 503.653 129.819 513.819 127.983C529.537 125.227 543.566 109.47 545.167 105.963C546.398 103.253 542.665 97.2208 540.806 94.4181C541.573 92.1709 550.026 96.3105 552.002 91.0189C554.56 84.1177 557.118 71.8683 550.882 59.7629C548.346 54.8055 537.319 55.0009 532.672 55.3146C530.887 53.2165 538.897 49.987 534.29 42.9726C530.696 37.4393 507.051 23.7499 494.758 35.8091C494.304 35.7525 493.767 35.6754 493.241 35.6137C490.571 24.7116 480.243 25.4727 464.401 32.4871C448.564 25.4624 438.236 24.6962 435.56 35.5726C435.034 35.6394 434.497 35.7166 434.043 35.768C421.728 23.7037 398.099 37.3827 394.505 42.9109C389.887 49.9407 397.898 53.1702 396.112 55.2529C391.466 54.9392 380.438 54.7386 377.902 59.6909C371.593 71.8066 374.163 84.056 376.715 90.9623Z" fill="url(#paint60_radial_308_2521)"/>
<path d="M477.78 65.3644C473.65 61.9369 469.148 58.9075 464.345 56.3238C459.544 58.9082 455.042 61.9357 450.91 65.3592C456.362 67.8173 460.639 67.8585 464.345 66.686C468.051 67.8636 472.356 67.8225 477.78 65.3644Z" fill="url(#paint61_radial_308_2521)"/>
<path d="M584.548 754.72C585.371 760.433 586.625 765.519 589.463 768.641C589.765 764.583 587.532 759.785 584.548 754.72Z" fill="url(#paint62_radial_308_2521)"/>
<path d="M136.102 195.022C138.458 198.467 143.334 201.136 148.977 203.625C144.672 199.449 140.401 196.014 136.102 195.022Z" fill="url(#paint63_radial_308_2521)"/>
<path d="M251.798 703.553C248.955 698.617 245.529 696.277 241.778 695.223C239.539 692.276 236.052 689.998 230.067 689.052C231.216 694.052 232.918 698.932 235.145 703.615C240.684 704.117 246.264 704.096 251.798 703.553Z" fill="url(#paint64_radial_308_2521)"/>
<path d="M289.73 741.317C293.284 744.078 302.045 750.198 307.301 747.555C320.098 741.142 325.875 729.854 328.226 722.871C330.023 717.523 320.535 716.304 321.352 714.072C324.644 712.822 331.535 709.958 332.274 707.094C333.231 703.386 331.977 683.073 321.027 672.346C313.98 665.367 307.766 675.246 304.519 674.454C295.882 652.054 272.018 673.256 267.612 683.767C258.096 706.394 276.737 702.501 277.129 703.041C267.573 714.098 301.703 722.907 304.861 704.502C305.118 703.01 303.416 702.378 301.687 702.111C304.542 695.425 296.968 694.695 296.162 699.251C295.602 702.121 288.935 709.603 281.142 698.382C276.166 678.409 310.509 669.487 317.215 695.508C325.052 732.282 272.432 751.916 238.24 726.023C252.235 729.494 272.606 723.92 272.606 723.92C256.64 705.592 244.297 732.199 226.552 714.473C202.722 704.435 226.468 685.444 202.565 677.144C202.565 677.144 203.074 696.644 210.962 707.819C173.613 685.937 177.71 633.89 218.239 629.396C247.247 627.231 248.602 659.999 226.389 661.793C212.361 658.44 218.049 650.29 220.848 648.937C225.326 646.824 222.219 640.431 216.185 644.988C215.378 643.563 214.197 642.267 212.731 642.931C194.649 651.37 214.292 678.476 222.807 666.715C223.484 666.879 225.197 684.343 245.697 669.07C255.213 661.979 269.818 634.584 243.956 633.947C242.136 631.376 250.449 622.875 241.05 618.869C226.563 612.616 205.146 617.779 201.602 619.764C198.87 621.307 198.019 628.197 197.745 631.453C195.685 632.862 191.492 624.942 186.516 628.162C180.028 632.368 170.12 640.894 167.421 654.054C166.302 659.438 175.348 665.229 179.306 667.486C179.406 670.15 170.864 668.432 170.092 676.609C169.459 683.027 179.832 706.873 197.493 703.756C197.823 704.044 198.21 704.394 198.613 704.733C193.804 714.987 202.643 719.95 219.946 722.83C228.265 737.069 236.13 743.261 245.271 735.892C245.736 736.123 246.223 736.349 246.62 736.55C248.859 752.949 276.731 754.657 283.18 752.121C291.353 748.995 286.942 742.057 289.73 741.317Z" fill="url(#paint65_radial_308_2521)"/>
<path d="M156.73 579.676C160.189 580.442 167.601 581.841 170.025 579.928C173.182 577.444 185.139 560.335 183.163 545.746C181.926 536.294 170.579 540.932 168.458 538.546C175.808 515.76 142.931 520.033 132.631 526.148C110.475 539.328 128.024 546.234 127.985 546.877C113.184 550.662 135.156 576.189 149.486 563.03C150.651 561.965 149.677 560.53 148.451 559.384C155.028 555.522 149.374 550.837 145.808 554.087C143.536 556.144 133.342 558.556 134.215 545.268C142.965 526.425 176.457 537.754 165.239 562.423C148.048 596.41 92.9028 583.872 81.8302 544.47C90.9492 554.833 110.978 561.333 110.978 561.333C109.792 537.883 82.7819 552.745 79.7646 528.822C66.8895 507.835 98.2768 505.29 84.2429 485.671C84.2429 485.671 72.1795 501.721 71.4294 515.035C55.1955 477.165 91.828 437.27 127.47 455.5C152.324 469.416 132.458 496.64 113.324 486.124C104.121 475.839 113.934 472.311 117.069 472.753C122.04 473.458 123.618 466.613 115.826 467.04C116.084 465.451 115.955 463.764 114.332 463.528C94.3023 460.591 92.8525 493.128 107.256 488.212C107.698 488.726 97.9073 503.768 124.268 502.482C136.51 501.885 165.843 487.605 145.333 473.123C145.517 470.038 157.648 467.672 152.61 459.357C144.896 446.475 124.262 439.085 120.142 438.787C116.951 438.551 111.846 443.678 109.54 446.167C106.976 446.192 108.65 437.522 102.559 437.424C94.6214 437.321 81.1529 438.869 70.5505 448.059C66.2009 451.808 69.8116 461.383 71.5693 465.343C69.9459 467.554 64.1353 461.553 58.2799 467.75C53.6616 472.599 46.793 497.489 63.0773 504.503L63.3404 505.891C52.8835 511.589 56.8581 520.378 69.0167 532.051C66.6432 548.06 69.0167 557.316 81.1473 556.293L81.819 557.553C73.1255 572.019 94.5934 588.459 101.412 589.894C110.111 591.751 110.984 583.754 113.727 584.669C114.847 588.824 118.032 598.523 123.949 599.207C138.408 600.925 150.304 594.913 156.663 590.552C161.533 587.148 154.642 581.039 156.73 579.676Z" fill="url(#paint66_radial_308_2521)"/>
<path d="M261.874 665.315C251.473 662.297 249.094 674.762 255.112 678.429C260.766 682.543 272.941 676.634 266.61 668.478C297.88 634.537 342.512 662.446 343.693 681.437C345.216 705.962 333.376 721.183 340.301 729.823C343.939 734.369 348.367 733.767 351.748 731.905C353.293 735.243 356.49 738.118 362.34 736.41C373.479 733.165 373.647 714.462 390.586 695.45C403.702 680.727 457.649 682.306 461.221 726.629C450.876 729.807 456.927 741.172 464.143 740.889C471.358 741.172 477.415 729.812 467.07 726.629C470.67 682.306 524.622 680.763 537.727 695.497C554.649 714.524 554.812 733.217 565.946 736.472C571.796 738.179 574.992 735.305 576.537 731.972C579.896 733.839 584.374 734.435 587.99 729.915C594.921 721.276 583.092 706.049 584.632 681.524C585.824 662.533 630.478 634.676 661.72 668.606C655.389 676.762 667.553 682.692 673.213 678.567C679.23 674.901 676.862 662.441 666.462 665.449C641.014 627.646 683.675 597.27 703.699 602.109C729.561 608.357 741.658 623.404 752.742 620.02C758.575 618.246 759.319 614.194 758.435 610.661C762.353 610.347 766.328 608.444 766.373 602.803C766.451 592.071 747.144 586.136 732.696 565.469C722.76 551.255 736.099 512.917 772.105 511.899V507.847C735.03 509.39 709.034 545.444 734.672 594.791C672.726 587.247 643.465 624.921 657.919 659.221C626.896 635.972 578.838 649.867 567.469 706.316C522.176 666.75 474.37 681.427 464.12 716.982C453.893 681.422 406.126 666.709 360.811 706.239C349.481 649.78 301.435 635.864 270.389 659.093C284.87 624.798 255.638 587.098 193.698 594.616C220.635 542.816 190.675 505.62 150.7 507.646C184.355 487.724 184.847 441.447 129.893 414.053C184.842 386.705 184.405 340.428 150.762 320.46C190.736 322.517 220.735 285.326 193.804 233.515C255.756 241.06 285.016 203.386 270.562 169.085C301.586 192.334 349.644 178.439 361.013 121.99C406.305 161.546 454.083 146.865 464.333 111.309C474.56 146.875 522.327 161.582 567.642 122.052C578.978 178.511 627.019 192.432 658.065 169.203C643.583 203.494 672.815 241.198 734.756 233.675C709.095 282.981 735.025 319.04 772.06 320.64V316.587C736.105 315.502 722.799 277.196 732.757 262.997C747.217 242.335 766.535 236.416 766.462 225.683C766.423 220.027 762.46 218.139 758.53 217.821C759.414 214.288 758.67 210.235 752.843 208.456C741.759 205.067 729.651 220.109 703.788 226.342C683.759 231.17 641.092 200.763 666.59 162.976C676.991 165.995 679.37 153.534 673.353 149.863C667.699 145.749 655.523 151.657 661.854 159.813C630.585 193.754 585.953 165.845 584.772 146.854C583.255 122.33 595.089 107.113 588.164 98.4685C584.525 93.9277 580.097 94.5242 576.716 96.4115C575.171 93.0792 571.975 90.1993 566.125 91.9067C554.985 95.1516 554.817 113.86 537.878 132.867C524.768 147.59 470.815 146.011 467.244 101.688C477.589 98.5147 471.538 87.1498 464.322 87.4275C457.106 87.1447 451.049 98.5045 461.394 101.688C457.795 146.011 403.842 147.554 390.738 132.82C373.815 113.793 373.653 95.1002 362.519 91.845C356.669 90.1376 353.473 93.0123 351.927 96.3447C348.569 94.483 344.118 93.8814 340.48 98.4016C333.544 107.041 345.372 122.263 343.839 146.787C342.652 165.779 297.992 193.635 266.75 159.705C273.081 151.549 260.917 145.62 255.258 149.744C249.24 153.411 251.608 165.871 262.009 162.863C287.457 200.665 244.795 231.047 224.771 226.203C198.909 219.955 186.812 204.908 175.728 208.292C169.901 210.066 169.151 214.118 170.035 217.651C166.117 217.965 162.142 219.872 162.098 225.509C162.019 236.241 181.326 242.175 195.774 262.843C206.97 278.852 188.66 325.499 141.671 314.921C141.576 304.904 127.939 306.693 125.997 313.07C123.472 319.282 133.364 328.086 139.852 320.038C184.635 336.88 169.554 384.489 150.252 391.385C125.336 400.297 105.923 394.655 99.1101 403.377C95.5331 407.959 97.5203 411.641 100.498 414.022C97.5203 416.403 95.5331 420.08 99.1045 424.667C105.906 433.409 125.325 427.753 150.236 436.69C169.532 443.597 184.573 491.201 139.784 508.032C133.302 499.979 123.405 508.778 125.924 514.995C127.861 521.387 141.497 523.166 141.598 513.149C188.62 502.596 206.869 549.259 195.668 565.258C181.209 585.92 161.89 591.839 161.963 602.572C162.002 608.228 165.966 610.116 169.895 610.435C169.011 613.967 169.755 618.02 175.583 619.799C186.667 623.188 198.775 608.146 224.637 601.913C244.678 597.121 287.317 627.528 261.874 665.315Z" fill="url(#paint67_radial_308_2521)"/>
<path d="M148.842 624.527C143.182 627.011 138.307 629.669 135.967 633.125C140.244 632.132 144.52 628.697 148.842 624.527Z" fill="url(#paint68_radial_308_2521)"/>
<path d="M338.739 768.574C341.583 765.453 342.843 760.346 343.671 754.653C340.682 759.714 338.443 764.507 338.739 768.574Z" fill="url(#paint69_radial_308_2521)"/>
<path d="M450.675 762.971C454.805 766.399 459.307 769.428 464.11 772.012C468.911 769.427 473.412 766.4 477.545 762.976C472.087 760.518 467.816 760.477 464.11 761.65C460.404 760.477 456.122 760.513 450.675 762.971Z" fill="url(#paint70_radial_308_2521)"/>
<path d="M492.933 792.742C493.46 792.675 493.997 792.598 494.45 792.546C506.766 804.61 530.394 790.931 533.988 785.403C538.607 778.373 530.596 775.144 532.382 773.061C537.028 773.375 548.056 773.575 550.592 768.623C556.839 756.523 554.292 744.274 551.711 737.367C549.746 732.076 541.282 736.21 540.515 733.958C542.38 731.176 546.113 725.133 544.882 722.423C543.286 718.901 529.275 703.149 513.534 700.382C503.368 698.541 504.661 709.891 501.526 711.002C480.209 697.539 474.466 727.581 477.623 738.463C484.425 761.892 496.992 748.691 497.647 748.928C496.992 763.033 530.232 751.73 521.018 735.135C520.274 733.788 518.488 734.199 516.92 734.914C514.956 727.972 508.356 731.464 510.617 735.588C512.017 738.195 511.395 747.858 497.904 742.988C481.111 729.52 503.183 703.756 525.256 721.184C555.126 746.706 525.104 791.014 480.887 788.52C494.445 783.758 507.342 768.263 507.342 768.263C482.712 762.051 489.743 790.242 464.043 785.486C438.337 790.227 445.402 762.041 420.749 768.238C420.749 768.238 433.624 783.737 447.193 788.509C402.97 790.973 372.988 746.655 402.875 721.143C424.958 703.73 447.02 729.504 430.204 742.962C416.713 747.827 416.097 738.164 417.502 735.552C419.741 731.438 413.169 727.936 411.199 734.878C409.631 734.158 407.84 733.752 407.101 735.099C397.87 751.684 431.11 763.008 430.461 748.902C431.116 748.67 443.678 761.876 450.49 738.452C453.659 727.571 447.938 697.528 426.61 710.976C423.475 709.86 424.774 698.511 414.608 700.346C398.889 703.103 384.861 718.859 383.26 722.372C382.028 725.082 385.756 731.114 387.62 733.911C386.853 736.159 378.401 732.019 376.425 737.311C373.866 744.212 371.308 756.461 377.544 768.567C380.08 773.524 391.108 773.329 395.754 773.015C397.54 775.113 389.529 778.343 394.136 785.357C397.73 790.89 421.376 804.585 433.669 792.52C434.122 792.577 434.659 792.654 435.186 792.721C437.856 803.618 448.184 802.857 464.026 795.842C479.93 802.893 490.269 803.659 492.933 792.742Z" fill="url(#paint71_radial_308_2521)"/>
<path d="M107.222 533.562C108.085 528.039 106.808 524.306 104.424 521.416C104.491 517.816 103.13 514.098 98.904 510.102C96.6309 514.769 94.8846 519.637 93.6924 524.63C97.8591 528.023 102.393 531.017 107.222 533.562Z" fill="url(#paint72_radial_308_2521)"/>
<path d="M107.306 294.537C102.482 297.087 97.9563 300.084 93.7979 303.48C94.9865 308.473 96.7291 313.341 98.9983 318.008C103.225 314.002 104.596 310.294 104.523 306.694C106.886 303.809 108.162 300.066 107.306 294.537Z" fill="url(#paint73_radial_308_2521)"/>
<path d="M241.162 209.266C250.567 205.265 242.282 196.785 244.084 194.194C269.941 193.571 255.364 166.167 245.848 159.07C225.359 143.787 223.635 161.251 222.958 161.41C214.46 149.649 194.801 176.745 212.882 185.189C214.348 185.878 215.529 184.582 216.341 183.132C222.37 187.688 225.477 181.301 221.01 179.188C218.211 177.83 212.529 169.674 226.557 166.332C248.77 168.157 247.387 200.92 218.384 198.729C177.884 194.209 173.825 142.162 211.191 120.301C203.27 131.471 202.75 150.971 202.75 150.971C226.658 142.686 202.929 123.685 226.764 113.657C244.521 95.9411 256.842 122.553 272.824 104.236C272.824 104.236 252.476 98.6512 238.458 102.112C272.656 76.2402 325.276 95.9051 317.389 132.679C310.671 158.69 276.328 149.752 281.316 129.784C289.119 118.563 295.803 126.05 296.335 128.915C297.141 133.476 304.732 132.741 301.866 126.061C303.595 125.793 305.297 125.161 305.04 123.669C301.894 105.27 267.763 114.053 277.308 125.114C276.933 125.66 258.32 121.756 267.791 144.388C272.197 154.9 296.044 176.118 304.693 153.722C307.945 152.93 314.153 162.814 321.201 155.841C332.156 145.119 333.432 124.806 332.469 121.098C331.736 118.239 324.845 115.364 321.559 114.115C320.736 111.883 330.23 110.664 328.433 105.321C326.088 98.3529 320.322 87.0651 307.531 80.637C302.302 77.9938 293.508 84.1082 289.953 86.8646C287.154 86.1343 291.582 79.1971 283.354 75.9985C276.91 73.4632 249.016 75.1551 246.782 91.5494C246.385 91.7499 245.898 91.9762 245.433 92.2076C236.303 84.8333 228.433 91.0248 220.103 105.254C202.794 108.124 193.95 113.081 198.758 123.34C198.372 123.675 197.986 124.029 197.639 124.317C179.977 121.191 169.593 145.031 170.209 151.444C170.976 159.621 179.518 157.913 179.418 160.577C175.454 162.829 166.408 168.615 167.522 173.999C170.215 187.164 180.112 195.695 186.594 199.902C191.576 203.126 195.775 195.212 197.829 196.616C198.103 199.876 198.949 206.782 201.675 208.31C205.252 210.341 226.669 215.514 241.162 209.266Z" fill="url(#paint74_radial_308_2521)"/>
<path d="M252.018 124.662C246.485 124.12 240.907 124.099 235.369 124.6C233.135 129.283 231.429 134.163 230.275 139.164C236.26 138.208 239.747 135.935 241.992 132.993C245.742 131.934 249.174 129.594 252.018 124.662Z" fill="url(#paint75_radial_308_2521)"/>
<path d="M109.562 382.028C111.868 384.517 116.968 389.649 120.159 389.408C124.296 389.104 144.935 381.73 152.66 368.838C157.698 360.528 145.556 358.147 145.383 355.066C165.91 340.6 136.583 326.304 124.34 325.697C97.9856 324.402 107.765 339.459 107.317 339.958C92.9196 335.026 94.347 367.562 114.376 364.642C116 364.405 116.128 362.718 115.871 361.129C123.663 361.561 122.09 354.716 117.125 355.416C113.99 355.832 104.177 352.33 113.385 342.045C132.525 331.529 152.369 358.779 127.509 372.679C91.856 390.889 55.2626 350.973 71.53 313.109C72.2746 326.423 84.3268 342.483 84.3268 342.483C98.3719 322.869 67.0125 320.308 79.8765 299.327C82.9105 275.404 109.909 290.281 111.113 266.831C111.113 266.831 91.0835 273.301 81.9533 283.673C93.0651 244.276 148.216 231.77 165.362 265.767C176.558 290.451 143.065 301.764 134.327 282.902C133.465 269.613 143.659 272.061 145.926 274.092C149.492 277.343 155.151 272.658 148.574 268.796C149.8 267.649 150.774 266.225 149.609 265.15C135.29 251.959 113.301 277.492 128.097 281.292C128.141 281.935 110.586 288.826 132.732 302.021C143.021 308.146 175.891 312.435 168.558 289.643C170.68 287.252 182.027 291.896 183.269 282.444C185.268 267.86 173.305 250.74 170.154 248.257C167.73 246.338 160.318 247.742 156.859 248.498C154.771 247.136 161.667 241.026 156.797 237.668C150.438 233.302 138.554 227.28 124.089 228.993C118.172 229.677 114.97 239.37 113.861 243.526C111.135 244.436 110.267 236.439 101.546 238.296C94.7053 239.725 73.2206 256.15 81.9085 270.621C81.7126 271.002 81.4663 271.444 81.2368 271.881C69.1285 270.853 66.7214 280.109 69.0893 296.118C56.9251 307.781 52.9395 316.569 63.3963 322.273C63.2955 322.756 63.2116 323.244 63.1276 323.661C46.8377 330.665 53.6896 355.544 58.3022 360.409C64.152 366.616 69.9738 360.615 71.5916 362.826C69.8339 366.786 66.212 376.356 70.5616 380.105C81.1584 389.305 94.6325 390.863 102.565 390.765C108.666 390.668 106.998 381.997 109.562 382.028Z" fill="url(#paint76_radial_308_2521)"/>
<path d="M156.73 579.676C160.189 580.442 167.601 581.841 170.025 579.928C173.182 577.444 185.139 560.335 183.163 545.746C181.926 536.294 170.579 540.932 168.458 538.546C175.808 515.76 142.931 520.033 132.631 526.148C110.475 539.328 128.024 546.234 127.985 546.877C113.184 550.662 135.156 576.189 149.486 563.03C150.651 561.965 149.677 560.53 148.451 559.384C155.028 555.522 149.374 550.837 145.808 554.087C143.536 556.144 133.342 558.556 134.215 545.268C142.965 526.425 176.457 537.754 165.239 562.423C148.048 596.41 92.9028 583.872 81.8302 544.47C90.9492 554.833 110.978 561.333 110.978 561.333C109.792 537.883 82.7819 552.745 79.7646 528.822C66.8895 507.835 98.2768 505.29 84.2429 485.671C84.2429 485.671 72.1795 501.721 71.4294 515.035C55.1955 477.165 91.828 437.27 127.47 455.5C152.324 469.416 132.458 496.64 113.324 486.124C104.121 475.839 113.934 472.311 117.069 472.753C122.04 473.458 123.618 466.613 115.826 467.04C116.084 465.451 115.955 463.764 114.332 463.528C94.3023 460.591 92.8525 493.128 107.256 488.212C107.698 488.726 97.9073 503.768 124.268 502.482C136.51 501.885 165.843 487.605 145.333 473.123C145.517 470.038 157.648 467.672 152.61 459.357C144.896 446.475 124.262 439.085 120.142 438.787C116.951 438.551 111.846 443.678 109.54 446.167C106.976 446.192 108.65 437.522 102.559 437.424C94.6214 437.321 81.1529 438.869 70.5505 448.059C66.2009 451.808 69.8116 461.383 71.5693 465.343C69.9459 467.554 64.1353 461.553 58.2799 467.75C53.6616 472.599 46.793 497.489 63.0773 504.503L63.3404 505.891C52.8835 511.589 56.8581 520.378 69.0167 532.051C66.6432 548.06 69.0167 557.316 81.1473 556.293L81.819 557.553C73.1255 572.019 94.5934 588.459 101.412 589.894C110.111 591.751 110.984 583.754 113.727 584.669C114.847 588.824 118.032 598.523 123.949 599.207C138.408 600.925 150.304 594.913 156.663 590.552C161.533 587.148 154.642 581.039 156.73 579.676Z" fill="url(#paint77_radial_308_2521)"/>
<path d="M58.5488 414.05C62.6577 415.593 68.3115 415.078 74.4804 414.05C68.3115 413.006 62.6577 412.533 58.5488 414.05Z" fill="url(#paint78_radial_308_2521)"/>
</g>
<defs>
<radialGradient id="paint0_radial_308_2521" cx="0" cy="0" r="1" gradientUnits="userSpaceOnUse" gradientTransform="translate(793.462 252.799) rotate(-90) scale(239.539 747.478)">
<stop offset="0.442708" stop-color="#D6809B"/>
</radialGradient>
<radialGradient id="paint1_radial_308_2521" cx="0" cy="0" r="1" gradientUnits="userSpaceOnUse" gradientTransform="translate(889.715 252.827) rotate(-90) scale(239.643 747.183)">
<stop offset="0.442708" stop-color="#D6809B"/>
</radialGradient>
<radialGradient id="paint2_radial_308_2521" cx="0" cy="0" r="1" gradientUnits="userSpaceOnUse" gradientTransform="translate(846.292 280.202) rotate(-90) scale(446.01 511.266)">
<stop offset="0.442708" stop-color="#D6809B"/>
</radialGradient>
<radialGradient id="paint3_radial_308_2521" cx="0" cy="0" r="1" gradientUnits="userSpaceOnUse" gradientTransform="translate(846.405 447.005) rotate(-90) scale(445.959 511.591)">
<stop offset="0.442708" stop-color="#D6809B"/>
</radialGradient>
<radialGradient id="paint4_radial_308_2521" cx="0" cy="0" r="1" gradientUnits="userSpaceOnUse" gradientTransform="translate(889.78 521.174) rotate(-90) scale(239.539 747.478)">
<stop offset="0.442708" stop-color="#D6809B"/>
</radialGradient>
<radialGradient id="paint5_radial_308_2521" cx="0" cy="0" r="1" gradientUnits="userSpaceOnUse" gradientTransform="translate(793.229 521.124) rotate(-90) scale(239.641 747.183)">
<stop offset="0.442708" stop-color="#D6809B"/>
</radialGradient>
<radialGradient id="paint6_radial_308_2521" cx="0" cy="0" r="1" gradientUnits="userSpaceOnUse" gradientTransform="translate(598.427 446.905) rotate(-90) scale(446.156 511.266)">
<stop offset="0.442708" stop-color="#D6809B"/>
</radialGradient>
<radialGradient id="paint7_radial_308_2521" cx="0" cy="0" r="1" gradientUnits="userSpaceOnUse" gradientTransform="translate(441.104 353.88) rotate(-90) scale(530.764 269.615)">
<stop offset="0.442708" stop-color="#D6809B"/>
</radialGradient>
<radialGradient id="paint8_radial_308_2521" cx="0" cy="0" r="1" gradientUnits="userSpaceOnUse" gradientTransform="translate(598.644 280.118) rotate(-90) scale(445.959 511.591)">
<stop offset="0.442708" stop-color="#D6809B"/>
</radialGradient>
<radialGradient id="paint9_radial_308_2521" cx="0" cy="0" r="1" gradientUnits="userSpaceOnUse" gradientTransform="translate(482.421 143.664) rotate(-90) scale(53.8927 220.784)">
<stop offset="0.442708" stop-color="#D6809B"/>
</radialGradient>
<radialGradient id="paint10_radial_308_2521" cx="0" cy="0" r="1" gradientUnits="userSpaceOnUse" gradientTransform="translate(669.161 143.702) rotate(-90) scale(53.9154 220.784)">
<stop offset="0.442708" stop-color="#D6809B"/>
</radialGradient>
<radialGradient id="paint11_radial_308_2521" cx="0" cy="0" r="1" gradientUnits="userSpaceOnUse" gradientTransform="translate(668.976 672.454) rotate(-90) scale(53.8249 220.784)">
<stop offset="0.442708" stop-color="#D6809B"/>
</radialGradient>
<radialGradient id="paint12_radial_308_2521" cx="0" cy="0" r="1" gradientUnits="userSpaceOnUse" gradientTransform="translate(482.237 672.395) rotate(-90) scale(53.9482 220.784)">
<stop offset="0.442708" stop-color="#D6809B"/>
</radialGradient>
<radialGradient id="paint13_radial_308_2521" cx="0" cy="0" r="1" gradientUnits="userSpaceOnUse" gradientTransform="translate(288.598 562.752) rotate(-90) scale(127.739 136.399)">
<stop offset="0.442708" stop-color="#D6809B"/>
</radialGradient>
<radialGradient id="paint14_radial_308_2521" cx="0" cy="0" r="1" gradientUnits="userSpaceOnUse" gradientTransform="translate(181.443 396.167) rotate(-90) scale(157.823 43.1623)">
<stop offset="0.442708" stop-color="#D6809B"/>
</radialGradient>
<radialGradient id="paint15_radial_308_2521" cx="0" cy="0" r="1" gradientUnits="userSpaceOnUse" gradientTransform="translate(288.754 236.458) rotate(-90) scale(127.705 136.498)">
<stop offset="0.442708" stop-color="#D6809B"/>
</radialGradient>
<radialGradient id="paint16_radial_308_2521" cx="0" cy="0" r="1" gradientUnits="userSpaceOnUse" gradientTransform="translate(2961.73 33.3758) rotate(-90) scale(3355.51 4946.64)">
<stop offset="0.442708" stop-color="#D6809B"/>
</radialGradient>
<radialGradient id="paint17_radial_308_2521" cx="0" cy="0" r="1" gradientUnits="userSpaceOnUse" gradientTransform="translate(3139.59 7.21817) rotate(-90) scale(3586.11 5298.88)">
<stop offset="0.442708" stop-color="#D6809B"/>
</radialGradient>
<radialGradient id="paint18_radial_308_2521" cx="0" cy="0" r="1" gradientUnits="userSpaceOnUse" gradientTransform="translate(746.133 -8.56896) rotate(-90) scale(379.27 674.805)">
<stop offset="0.442708" stop-color="#D6809B"/>
</radialGradient>
<radialGradient id="paint19_radial_308_2521" cx="0" cy="0" r="1" gradientUnits="userSpaceOnUse" gradientTransform="translate(377.566 78.7198) rotate(-90) scale(528.434 407.86)">
<stop offset="0.442708" stop-color="#D6809B"/>
</radialGradient>
<radialGradient id="paint20_radial_308_2521" cx="0" cy="0" r="1" gradientUnits="userSpaceOnUse" gradientTransform="translate(258.006 289.733) rotate(-90) scale(507.716 411.901)">
<stop offset="0.442708" stop-color="#D6809B"/>
</radialGradient>
<radialGradient id="paint21_radial_308_2521" cx="0" cy="0" r="1" gradientUnits="userSpaceOnUse" gradientTransform="translate(441.731 540.164) rotate(-90) scale(383.544 697.589)">
<stop offset="0.442708" stop-color="#D6809B"/>
</radialGradient>
<radialGradient id="paint22_radial_308_2521" cx="0" cy="0" r="1" gradientUnits="userSpaceOnUse" gradientTransform="translate(666.219 737.817) rotate(-90) scale(191.119 788.525)">
<stop offset="0.442708" stop-color="#D6809B"/>
</radialGradient>
<radialGradient id="paint23_radial_308_2521" cx="0" cy="0" r="1" gradientUnits="userSpaceOnUse" gradientTransform="translate(863.748 750.825) rotate(-90) scale(379.295 674.855)">
<stop offset="0.442708" stop-color="#D6809B"/>
</radialGradient>
<radialGradient id="paint24_radial_308_2521" cx="0" cy="0" r="1" gradientUnits="userSpaceOnUse" gradientTransform="translate(863.97 -8.54572) rotate(-90) scale(379.456 674.792)">
<stop offset="0.442708" stop-color="#D6809B"/>
</radialGradient>
<radialGradient id="paint25_radial_308_2521" cx="0" cy="0" r="1" gradientUnits="userSpaceOnUse" gradientTransform="translate(666.446 47.037) rotate(-90) scale(190.989 788.505)">
<stop offset="0.442708" stop-color="#D6809B"/>
</radialGradient>
<radialGradient id="paint26_radial_308_2521" cx="0" cy="0" r="1" gradientUnits="userSpaceOnUse" gradientTransform="translate(442.041 200.921) rotate(-90) scale(383.421 697.992)">
<stop offset="0.442708" stop-color="#D6809B"/>
</radialGradient>
<radialGradient id="paint27_radial_308_2521" cx="0" cy="0" r="1" gradientUnits="userSpaceOnUse" gradientTransform="translate(258.237 423.138) rotate(-90) scale(507.661 412.417)">
<stop offset="0.442708" stop-color="#D6809B"/>
</radialGradient>
<radialGradient id="paint28_radial_308_2521" cx="0" cy="0" r="1" gradientUnits="userSpaceOnUse" gradientTransform="translate(377.205 629.496) rotate(-90) scale(528.524 407.529)">
<stop offset="0.442708" stop-color="#D6809B"/>
</radialGradient>
<radialGradient id="paint29_radial_308_2521" cx="0" cy="0" r="1" gradientUnits="userSpaceOnUse" gradientTransform="translate(745.874 750.775) rotate(-90) scale(379.494 674.791)">
<stop offset="0.442708" stop-color="#D6809B"/>
</radialGradient>
<radialGradient id="paint30_radial_308_2521" cx="0" cy="0" r="1" gradientUnits="userSpaceOnUse" gradientTransform="translate(555.207 -18.2091) rotate(-90) scale(507.575 382.326)">
<stop offset="0.442708" stop-color="#D6809B"/>
</radialGradient>
<radialGradient id="paint31_radial_308_2521" cx="0" cy="0" r="1" gradientUnits="userSpaceOnUse" gradientTransform="translate(412.805 112.775) rotate(-90) scale(429.221 536.875)">
<stop offset="0.442708" stop-color="#D6809B"/>
</radialGradient>
<radialGradient id="paint32_radial_308_2521" cx="0" cy="0" r="1" gradientUnits="userSpaceOnUse" gradientTransform="translate(410.485 349.433) rotate(-90) scale(302.101 721.716)">
<stop offset="0.442708" stop-color="#D6809B"/>
</radialGradient>
<radialGradient id="paint33_radial_308_2521" cx="0" cy="0" r="1" gradientUnits="userSpaceOnUse" gradientTransform="translate(467.047 591.328) rotate(-90) scale(269.372 716.387)">
<stop offset="0.442708" stop-color="#D6809B"/>
</radialGradient>
<radialGradient id="paint34_radial_308_2521" cx="0" cy="0" r="1" gradientUnits="userSpaceOnUse" gradientTransform="translate(570.054 721.112) rotate(-90) scale(441.831 532.534)">
<stop offset="0.442708" stop-color="#D6809B"/>
</radialGradient>
<radialGradient id="paint35_radial_308_2521" cx="0" cy="0" r="1" gradientUnits="userSpaceOnUse" gradientTransform="translate(759.313 731.347) rotate(-90) scale(507.607 382.327)">
<stop offset="0.442708" stop-color="#D6809B"/>
</radialGradient>
<radialGradient id="paint36_radial_308_2521" cx="0" cy="0" r="1" gradientUnits="userSpaceOnUse" gradientTransform="translate(896.142 6.9477) rotate(-90) scale(441.831 532.534)">
<stop offset="0.442708" stop-color="#D6809B"/>
</radialGradient>
<radialGradient id="paint37_radial_308_2521" cx="0" cy="0" r="1" gradientUnits="userSpaceOnUse" gradientTransform="translate(759.563 -18.155) rotate(-90) scale(507.578 382.291)">
<stop offset="0.442708" stop-color="#D6809B"/>
</radialGradient>
<radialGradient id="paint38_radial_308_2521" cx="0" cy="0" r="1" gradientUnits="userSpaceOnUse" gradientTransform="translate(570.234 6.84309) rotate(-90) scale(441.95 532.401)">
<stop offset="0.442708" stop-color="#D6809B"/>
</radialGradient>
<radialGradient id="paint39_radial_308_2521" cx="0" cy="0" r="1" gradientUnits="userSpaceOnUse" gradientTransform="translate(467.146 175.656) rotate(-90) scale(269.579 716.309)">
<stop offset="0.442708" stop-color="#D6809B"/>
</radialGradient>
<radialGradient id="paint40_radial_308_2521" cx="0" cy="0" r="1" gradientUnits="userSpaceOnUse" gradientTransform="translate(410.459 410.112) rotate(-90) scale(302.042 721.693)">
<stop offset="0.442708" stop-color="#D6809B"/>
</radialGradient>
<radialGradient id="paint41_radial_308_2521" cx="0" cy="0" r="1" gradientUnits="userSpaceOnUse" gradientTransform="translate(412.815 617.975) rotate(-90) scale(429.076 537.186)">
<stop offset="0.442708" stop-color="#D6809B"/>
</radialGradient>
<radialGradient id="paint42_radial_308_2521" cx="0" cy="0" r="1" gradientUnits="userSpaceOnUse" gradientTransform="translate(554.921 731.292) rotate(-90) scale(507.61 382.291)">
<stop offset="0.442708" stop-color="#D6809B"/>
</radialGradient>
<radialGradient id="paint43_radial_308_2521" cx="0" cy="0" r="1" gradientUnits="userSpaceOnUse" gradientTransform="translate(895.827 721.191) rotate(-90) scale(441.95 532.401)">
<stop offset="0.442708" stop-color="#D6809B"/>
</radialGradient>
<radialGradient id="paint44_radial_308_2521" cx="0" cy="0" r="1" gradientUnits="userSpaceOnUse" gradientTransform="translate(426.818 -2.37011) rotate(-90) scale(290.903 188.953)">
<stop offset="0.442708" stop-color="#D6809B"/>
</radialGradient>
<radialGradient id="paint45_radial_308_2521" cx="0" cy="0" r="1" gradientUnits="userSpaceOnUse" gradientTransform="translate(692.861 -2.2535) rotate(-90) scale(290.7 189.269)">
<stop offset="0.442708" stop-color="#D6809B"/>
</radialGradient>
<radialGradient id="paint46_radial_308_2521" cx="0" cy="0" r="1" gradientUnits="userSpaceOnUse" gradientTransform="translate(692.446 764.665) rotate(-90) scale(290.903 188.969)">
<stop offset="0.442708" stop-color="#D6809B"/>
</radialGradient>
<radialGradient id="paint47_radial_308_2521" cx="0" cy="0" r="1" gradientUnits="userSpaceOnUse" gradientTransform="translate(426.736 764.614) rotate(-90) scale(290.7 189.27)">
<stop offset="0.442708" stop-color="#D6809B"/>
</radialGradient>
<radialGradient id="paint48_radial_308_2521" cx="0" cy="0" r="1" gradientUnits="userSpaceOnUse" gradientTransform="translate(303.244 626.092) rotate(-90) scale(203.828 382.543)">
<stop offset="0.442708" stop-color="#D6809B"/>
</radialGradient>
<radialGradient id="paint49_radial_308_2521" cx="0" cy="0" r="1" gradientUnits="userSpaceOnUse" gradientTransform="translate(241.993 405.175) rotate(-90) scale(78.1509 431.225)">
<stop offset="0.442708" stop-color="#D6809B"/>
</radialGradient>
<radialGradient id="paint50_radial_308_2521" cx="0" cy="0" r="1" gradientUnits="userSpaceOnUse" gradientTransform="translate(303.445 155.756) rotate(-90) scale(204.031 382.593)">
<stop offset="0.442708" stop-color="#D6809B"/>
</radialGradient>
<radialGradient id="paint51_radial_308_2521" cx="0" cy="0" r="1" gradientUnits="userSpaceOnUse" gradientTransform="translate(487.283 139.79) rotate(-90) scale(63.8188 231.923)">
<stop offset="0.442708" stop-color="#D6809B"/>
</radialGradient>
<radialGradient id="paint52_radial_308_2521" cx="0" cy="0" r="1" gradientUnits="userSpaceOnUse" gradientTransform="translate(675.524 139.828) rotate(-90) scale(63.8864 231.873)">
<stop offset="0.442708" stop-color="#D6809B"/>
</radialGradient>
<radialGradient id="paint53_radial_308_2521" cx="0" cy="0" r="1" gradientUnits="userSpaceOnUse" gradientTransform="translate(675.39 674.064) rotate(-90) scale(63.8188 231.973)">
<stop offset="0.442708" stop-color="#D6809B"/>
</radialGradient>
<radialGradient id="paint54_radial_308_2521" cx="0" cy="0" r="1" gradientUnits="userSpaceOnUse" gradientTransform="translate(487.071 673.992) rotate(-90) scale(63.8864 231.873)">
<stop offset="0.442708" stop-color="#D6809B"/>
</radialGradient>
<radialGradient id="paint55_radial_308_2521" cx="0" cy="0" r="1" gradientUnits="userSpaceOnUse" gradientTransform="translate(290.052 563.362) rotate(-90) scale(134.127 143.261)">
<stop offset="0.442708" stop-color="#D6809B"/>
</radialGradient>
<radialGradient id="paint56_radial_308_2521" cx="0" cy="0" r="1" gradientUnits="userSpaceOnUse" gradientTransform="translate(186.152 395.271) rotate(-90) scale(165.766 59.1741)">
<stop offset="0.442708" stop-color="#D6809B"/>
</radialGradient>
<radialGradient id="paint57_radial_308_2521" cx="0" cy="0" r="1" gradientUnits="userSpaceOnUse" gradientTransform="translate(290.198 234.394) rotate(-90) scale(134.06 143.361)">
<stop offset="0.442708" stop-color="#D6809B"/>
</radialGradient>
<radialGradient id="paint58_radial_308_2521" cx="0" cy="0" r="1" gradientUnits="userSpaceOnUse" gradientTransform="translate(609.499 56.3435) rotate(-90) scale(91.5026 44.0436)">
<stop offset="0.442708" stop-color="#D6809B"/>
</radialGradient>
<radialGradient id="paint59_radial_308_2521" cx="0" cy="0" r="1" gradientUnits="userSpaceOnUse" gradientTransform="translate(363.601 56.2732) rotate(-90) scale(91.5026 43.9029)">
<stop offset="0.442708" stop-color="#D6809B"/>
</radialGradient>
<radialGradient id="paint60_radial_308_2521" cx="0" cy="0" r="1" gradientUnits="userSpaceOnUse" gradientTransform="translate(1275.22 2.47692) rotate(-90) scale(663.197 1606.01)">
<stop offset="0.442708" stop-color="#D6809B"/>
</radialGradient>
<radialGradient id="paint61_radial_308_2521" cx="0" cy="0" r="1" gradientUnits="userSpaceOnUse" gradientTransform="translate(584.855 53.5908) rotate(-90) scale(73.0516 238.686)">
<stop offset="0.442708" stop-color="#D6809B"/>
</radialGradient>
<radialGradient id="paint62_radial_308_2521" cx="0" cy="0" r="1" gradientUnits="userSpaceOnUse" gradientTransform="translate(609.185 751.297) rotate(-90) scale(91.5028 43.9026)">
<stop offset="0.442708" stop-color="#D6809B"/>
</radialGradient>
<radialGradient id="paint63_radial_308_2521" cx="0" cy="0" r="1" gradientUnits="userSpaceOnUse" gradientTransform="translate(200.283 192.906) rotate(-90) scale(56.5512 114.37)">
<stop offset="0.442708" stop-color="#D6809B"/>
</radialGradient>
<radialGradient id="paint64_radial_308_2521" cx="0" cy="0" r="1" gradientUnits="userSpaceOnUse" gradientTransform="translate(338.395 685.381) rotate(-90) scale(98.1043 193.037)">
<stop offset="0.442708" stop-color="#D6809B"/>
</radialGradient>
<radialGradient id="paint65_radial_308_2521" cx="0" cy="0" r="1" gradientUnits="userSpaceOnUse" gradientTransform="translate(990.874 582.134) rotate(-90) scale(901.819 1467.54)">
<stop offset="0.442708" stop-color="#D6809B"/>
</radialGradient>
<radialGradient id="paint66_radial_308_2521" cx="0" cy="0" r="1" gradientUnits="userSpaceOnUse" gradientTransform="translate(703.66 397.56) rotate(-90) scale(1065.43 1159.78)">
<stop offset="0.442708" stop-color="#D6809B"/>
</radialGradient>
<radialGradient id="paint67_radial_308_2521" cx="0" cy="0" r="1" gradientUnits="userSpaceOnUse" gradientTransform="translate(3461.6 -73.2766) rotate(-90) scale(4295.36 5995.28)">
<stop offset="0.442708" stop-color="#D6809B"/>
</radialGradient>
<radialGradient id="paint68_radial_308_2521" cx="0" cy="0" r="1" gradientUnits="userSpaceOnUse" gradientTransform="translate(200.149 622.412) rotate(-90) scale(56.5173 114.37)">
<stop offset="0.442708" stop-color="#D6809B"/>
</radialGradient>
<radialGradient id="paint69_radial_308_2521" cx="0" cy="0" r="1" gradientUnits="userSpaceOnUse" gradientTransform="translate(363.429 751.23) rotate(-90) scale(91.5028 44.0433)">
<stop offset="0.442708" stop-color="#D6809B"/>
</radialGradient>
<radialGradient id="paint70_radial_308_2521" cx="0" cy="0" r="1" gradientUnits="userSpaceOnUse" gradientTransform="translate(584.62 758.168) rotate(-90) scale(73.0369 238.686)">
<stop offset="0.442708" stop-color="#D6809B"/>
</radialGradient>
<radialGradient id="paint71_radial_308_2521" cx="0" cy="0" r="1" gradientUnits="userSpaceOnUse" gradientTransform="translate(1275.03 675.33) rotate(-90) scale(663.313 1606.21)">
<stop offset="0.442708" stop-color="#D6809B"/>
</radialGradient>
<radialGradient id="paint72_radial_308_2521" cx="0" cy="0" r="1" gradientUnits="userSpaceOnUse" gradientTransform="translate(162.484 504.333) rotate(-90) scale(154.206 122.585)">
<stop offset="0.442708" stop-color="#D6809B"/>
</radialGradient>
<radialGradient id="paint73_radial_308_2521" cx="0" cy="0" r="1" gradientUnits="userSpaceOnUse" gradientTransform="translate(162.465 288.766) rotate(-90) scale(154.274 122.362)">
<stop offset="0.442708" stop-color="#D6809B"/>
</radialGradient>
<radialGradient id="paint74_radial_308_2521" cx="0" cy="0" r="1" gradientUnits="userSpaceOnUse" gradientTransform="translate(991.449 41.3061) rotate(-90) scale(901.877 1468.38)">
<stop offset="0.442708" stop-color="#D6809B"/>
</radialGradient>
<radialGradient id="paint75_radial_308_2521" cx="0" cy="0" r="1" gradientUnits="userSpaceOnUse" gradientTransform="translate(338.659 120.569) rotate(-90) scale(98.1021 193.137)">
<stop offset="0.442708" stop-color="#D6809B"/>
</radialGradient>
<radialGradient id="paint76_radial_308_2521" cx="0" cy="0" r="1" gradientUnits="userSpaceOnUse" gradientTransform="translate(704.065 188.837) rotate(-90) scale(1065.34 1160.43)">
<stop offset="0.442708" stop-color="#D6809B"/>
</radialGradient>
<radialGradient id="paint77_radial_308_2521" cx="0" cy="0" r="1" gradientUnits="userSpaceOnUse" gradientTransform="translate(703.66 397.56) rotate(-90) scale(1065.43 1159.78)">
<stop offset="0.442708" stop-color="#D6809B"/>
</radialGradient>
<radialGradient id="paint78_radial_308_2521" cx="0" cy="0" r="1" gradientUnits="userSpaceOnUse" gradientTransform="translate(137.967 412.604) rotate(-90) scale(12.7656 141.521)">
<stop offset="0.442708" stop-color="#D6809B"/>
</radialGradient>
</defs>
</svg>
