<svg width="561" height="971" viewBox="0 0 561 971" fill="none" xmlns="http://www.w3.org/2000/svg">
<g opacity="0.5">
<path d="M403 40.5C353.605 124.407 422.798 156.007 471.5 217C463.988 245.789 459.719 262.286 451 299C434.383 240.355 410.908 215.223 351.5 193.5L286 179C335.584 210.001 346.049 229.799 365.5 265C391.67 298.19 416.681 303.769 451 299C452.078 367.681 427.435 409.535 402.5 479.5V406.5C391.214 303.762 357.412 278.803 286 247.5C296.987 265.461 303.026 276.277 310 319C333.594 366.551 354.704 384.794 402.5 406.5V479.5L335.5 591C335.776 555.779 329.049 539.63 310 514.5C280.303 483.172 266.558 463.969 249.5 425.5C246.53 400.085 238.429 387.584 219.5 366.5C195.696 417.574 197.548 442.344 229 479.5C253.682 503.055 270.744 511.673 310 514.5C329.049 539.63 335.776 555.779 335.5 591C311.075 625.96 299.355 635.841 268.5 702.5C262.419 715.031 258.595 723.801 251.077 742.378C259.845 700.685 262.217 677.982 249.5 642C211.414 535.15 173.951 519.264 98.5 514.5C128.683 539.097 130.5 550.5 143 592C155.5 633.5 200.371 646.442 249.5 642C262.217 677.982 259.845 700.685 251.077 742.378C217.395 794.482 186.848 874 186.848 874C186.848 874 195.464 841.99 186.848 824.25C191.839 800.548 188.965 789.98 181 772.5C145.143 698.625 79 666 41 675.5C3 685 3 694.5 3 694.5C47.8558 697.447 66.662 707.968 82.5 751.5C105.239 798.017 129.616 812.408 186.848 824.25C195.464 841.99 186.848 874 186.848 874C186.848 874 165.455 944.68 152.5 968H181C181 968 192.696 960 192.696 940.375L295.5 837.5C326.121 863.771 353.834 863.725 410.5 853.5C443.785 839.432 465.058 842.934 504 853.5C493.673 826.826 483.063 814.373 450 799.5C381.932 782.205 348.282 790.132 295.5 837.5L192.696 940.375C220.566 860.538 230.606 822.754 276.525 742.378L351.5 694.5C392.164 710.408 415.734 709.574 459.5 685C481.216 659.618 501.903 656.073 539 650C527.449 638.115 519.994 632.878 504 627.5C424.182 616.226 386.893 623.704 351.5 694.5L276.525 742.378C280.62 735.19 282.837 730.827 286 720C302.949 668.615 320.804 640.96 355.25 592C390.822 592.844 422.317 591.187 467.5 580C520.679 555.704 546.324 559.182 588.5 580C591.63 565.09 587.622 556.683 569.5 541.5C515.975 504.647 484.551 503.761 424.5 557.5C402.212 576.357 386.096 582.825 355.25 592L424.5 464L432.655 436.5L486.5 406.5C509.761 416.152 537.886 409.345 569.5 380.431C598.893 368.076 631.122 365.596 665 376.5C656.057 359.826 647.443 352.258 623.5 343C548.806 333.811 514.216 340.367 486.5 406.5L432.655 436.5L467.5 319L498 292C519.106 285.139 526.101 282.778 548.5 247.5C578.737 202.608 604.563 182.538 665 155C640.228 147.569 569.182 150.089 548.5 164.5C529.621 177.654 471.863 252.031 498 292L467.5 319C477.897 276.265 477.617 254.317 471.5 217C477.511 196.924 482.865 185.421 467.5 168C442.829 108.006 423.591 75.6531 435.5 7C417.263 22.765 419.189 13 403 40.5Z" fill="#D6809B"/>
<path d="M402.5 479.5C427.435 409.535 452.078 367.681 451 299M402.5 479.5V406.5M402.5 479.5L335.5 591M471.5 217C422.798 156.007 353.605 124.407 403 40.5C419.189 13 417.263 22.765 435.5 7C423.591 75.6531 442.829 108.006 467.5 168C482.865 185.421 477.511 196.924 471.5 217ZM471.5 217C477.617 254.317 477.897 276.265 467.5 319M471.5 217C463.988 245.789 459.719 262.286 451 299M467.5 319L432.655 436.5M467.5 319L498 292M186.848 874C186.848 874 165.455 944.68 152.5 968H181C181 968 192.696 960 192.696 940.375M186.848 874C186.848 874 195.464 841.99 186.848 824.25M186.848 874C186.848 874 217.395 794.482 251.077 742.378M186.848 824.25C191.839 800.548 188.965 789.98 181 772.5C145.143 698.625 79 666 41 675.5C3 685 3 694.5 3 694.5C47.8558 697.447 66.662 707.968 82.5 751.5C105.239 798.017 129.616 812.408 186.848 824.25ZM192.696 940.375L295.5 837.5M192.696 940.375C220.566 860.538 230.606 822.754 276.525 742.378M295.5 837.5C348.282 790.132 381.932 782.205 450 799.5C483.063 814.373 493.673 826.826 504 853.5C465.058 842.934 443.785 839.432 410.5 853.5C353.834 863.725 326.121 863.771 295.5 837.5ZM276.525 742.378C280.62 735.19 282.837 730.827 286 720C302.949 668.615 320.804 640.96 355.25 592M276.525 742.378L351.5 694.5M351.5 694.5C386.893 623.704 424.182 616.226 504 627.5C519.994 632.878 527.449 638.115 539 650C501.903 656.073 481.216 659.618 459.5 685C415.734 709.574 392.164 710.408 351.5 694.5ZM355.25 592L424.5 464L432.655 436.5M355.25 592C386.096 582.825 402.212 576.357 424.5 557.5C484.551 503.761 515.975 504.647 569.5 541.5C587.622 556.683 591.63 565.09 588.5 580C546.324 559.182 520.679 555.704 467.5 580C422.317 591.187 390.822 592.844 355.25 592ZM432.655 436.5L486.5 406.5M486.5 406.5C514.216 340.367 548.806 333.811 623.5 343C647.443 352.258 656.057 359.826 665 376.5C631.122 365.596 598.893 368.076 569.5 380.431C537.886 409.345 509.761 416.152 486.5 406.5ZM498 292C519.106 285.139 526.101 282.778 548.5 247.5C578.737 202.608 604.563 182.538 665 155C640.228 147.569 569.182 150.089 548.5 164.5C529.621 177.654 471.863 252.031 498 292ZM451 299C434.383 240.355 410.908 215.223 351.5 193.5L286 179C335.584 210.001 346.049 229.799 365.5 265C391.67 298.19 416.681 303.769 451 299ZM402.5 406.5C391.214 303.762 357.412 278.803 286 247.5C296.987 265.461 303.026 276.277 310 319C333.594 366.551 354.704 384.794 402.5 406.5ZM335.5 591C311.075 625.96 299.356 635.841 268.5 702.5C262.419 715.031 258.595 723.801 251.077 742.378M335.5 591C335.776 555.779 329.049 539.63 310 514.5M310 514.5C280.303 483.172 266.558 463.969 249.5 425.5C246.53 400.085 238.429 387.584 219.5 366.5C195.696 417.574 197.548 442.344 229 479.5C253.682 503.055 270.744 511.673 310 514.5ZM251.077 742.378C259.845 700.685 262.217 677.982 249.5 642M249.5 642C211.414 535.15 173.951 519.264 98.5 514.5C128.683 539.097 130.5 550.5 143 592C155.5 633.5 200.371 646.442 249.5 642Z" stroke="#D6809B" stroke-width="5"/>
</g>
</svg>
