<svg width="140" height="96" viewBox="0 0 140 96" fill="none" xmlns="http://www.w3.org/2000/svg">
<path d="M0 69.4652C3.09819 69.5054 6.19303 69.247 9.24148 68.6936C11.519 68.3171 13.6817 67.4312 15.5677 66.1022C17.0133 65.0468 18.3055 63.7965 19.4072 62.387C20.4952 60.756 21.2016 58.9015 21.4739 56.961C21.8673 54.9173 22.1227 52.8496 22.2384 50.7717C22.314 49.0022 22.356 46.4611 22.356 43.1652H0.0336382V0H60.2796C62.0565 10.8147 63.0058 21.7487 63.1193 32.7073C63.1193 54.568 58.0002 70.589 47.7617 80.7702C37.5233 90.9513 21.6139 96.0419 0.0336382 96.0419L0 69.4652ZM76.9059 69.4652C80.0041 69.5053 83.0989 69.2469 86.1474 68.6936C88.4223 68.317 90.5823 67.431 92.4652 66.1022C93.9128 65.0491 95.2051 63.7985 96.3046 62.387C97.3993 60.7587 98.1089 58.9032 98.3798 56.961C98.7691 54.9167 99.0244 52.8492 99.1443 50.7717C99.2199 49.0022 99.2619 46.4611 99.2619 43.1652H76.9312V0H137.186C138.962 10.8147 139.912 21.7487 140.025 32.7073C140.025 54.568 134.903 70.589 124.659 80.7702C114.415 90.9513 98.5058 96.0419 76.9312 96.0419L76.9059 69.4652Z" fill="#D6809B"/>
</svg>
